<svg width="14" height="14" viewBox="0 0 14 14" fill="none" xmlns="http://www.w3.org/2000/svg">
<mask id="mask0_142_324" style="mask-type:alpha" maskUnits="userSpaceOnUse" x="0" y="0" width="14" height="14">
<rect width="14" height="14" fill="white"/>
</mask>
<g mask="url(#mask0_142_324)">
<path d="M13.3 9.56668V8.86668H13.5333C13.6571 8.86668 13.7758 8.81751 13.8633 8.72999C13.9508 8.64248 14 8.52378 14 8.40001V8.16668C14 7.91914 13.9017 7.68174 13.7266 7.50671C13.5516 7.33168 13.3142 7.23334 13.0667 7.23334H11.5523C11.4047 6.952 11.183 6.71636 10.9112 6.55186C10.6393 6.38737 10.3277 6.30028 10.01 6.30001H7.44333C7.19873 6.28777 6.95426 6.32675 6.72559 6.41447C6.49693 6.50218 6.2891 6.63669 6.11543 6.80938C6.0776 6.78139 6.04079 6.75205 6.00507 6.72141C5.30421 6.13341 4.41471 5.81808 3.5 5.83334H2.56667V1.63334C2.56667 1.57146 2.59125 1.51211 2.63501 1.46835C2.67877 1.42459 2.73812 1.40001 2.8 1.40001H4.046C4.10853 1.40001 4.16873 1.42521 4.21237 1.47001L4.54393 1.80158C4.32179 2.08706 4.2008 2.43828 4.2 2.80001C4.2 2.92378 4.24917 3.04248 4.33668 3.12999C4.4242 3.21751 4.5429 3.26668 4.66667 3.26668H7C7.11532 3.26535 7.22623 3.22217 7.31208 3.14516C7.39793 3.06816 7.45287 2.96257 7.46667 2.84808C7.47271 2.44504 7.33193 2.05357 7.0706 1.74668C6.80927 1.43979 6.44522 1.23845 6.04637 1.18021C5.99454 1.17396 5.94245 1.17015 5.89027 1.16878L5.20333 0.479042C5.05173 0.326577 4.87136 0.205725 4.67269 0.123495C4.47403 0.0412643 4.26101 -0.000708855 4.046 9.05597e-06H2.8C2.36696 0.000503107 1.95181 0.172745 1.6456 0.478947C1.3394 0.785149 1.16716 1.20031 1.16667 1.63334V5.83334H0.933333C0.685798 5.83334 0.448401 5.93168 0.273367 6.10671C0.0983331 6.28174 0 6.51914 0 6.76668L0 7.00001C0 7.12378 0.0491665 7.24248 0.136684 7.32999C0.2242 7.41751 0.342899 7.46668 0.466667 7.46668H0.7V9.56668C0.700512 10.0753 0.829015 10.5757 1.07367 11.0217C1.31833 11.4677 1.67128 11.8449 2.1 12.1186V12.6H1.86667C1.68102 12.6 1.50297 12.6738 1.37169 12.805C1.24042 12.9363 1.16667 13.1144 1.16667 13.3V13.5333H0.233333C0.171449 13.5333 0.1121 13.5579 0.0683418 13.6017C0.0245833 13.6454 0 13.7048 0 13.7667C0 13.8286 0.0245833 13.8879 0.0683418 13.9317C0.1121 13.9754 0.171449 14 0.233333 14H13.7667C13.8286 14 13.8879 13.9754 13.9317 13.9317C13.9754 13.8879 14 13.8286 14 13.7667C14 13.7048 13.9754 13.6454 13.9317 13.6017C13.8879 13.5579 13.8286 13.5333 13.7667 13.5333H12.8333V13.3C12.8333 13.1144 12.7596 12.9363 12.6283 12.805C12.497 12.6738 12.319 12.6 12.1333 12.6H11.9V12.1186C12.3287 11.8449 12.6817 11.4677 12.9263 11.0217C13.171 10.5757 13.2995 10.0753 13.3 9.56668ZM13.5333 8.16668V8.40001H11.76V8.05001C11.76 7.93241 11.7481 7.81528 11.7243 7.70001H13.0667C13.1904 7.70001 13.3091 7.74918 13.3967 7.83669C13.4842 7.92421 13.5333 8.04291 13.5333 8.16668ZM11.1946 7.55604C11.2598 7.71256 11.2934 7.88045 11.2933 8.05001V10.7333C11.2933 10.7952 11.2688 10.8546 11.225 10.8983C11.1812 10.9421 11.1219 10.9667 11.06 10.9667H9.33333C9.27145 10.9667 9.2121 10.9421 9.16834 10.8983C9.12458 10.8546 9.1 10.7952 9.1 10.7333V8.05001C9.10014 7.8089 9.05031 7.57038 8.95365 7.3495C8.85698 7.12861 8.71558 6.93017 8.53837 6.76668H10.01C10.2633 6.76664 10.511 6.84158 10.7218 6.98205C10.9326 7.12252 11.0971 7.32224 11.1946 7.55604ZM8.16667 8.05001C8.16746 7.9424 8.14626 7.83577 8.10437 7.73664C8.04301 7.58795 7.93896 7.46077 7.80536 7.37119C7.67175 7.28161 7.51459 7.23364 7.35373 7.23334C7.07281 7.22996 6.79551 7.16946 6.5387 7.05554C6.72682 6.90205 6.95463 6.80508 7.19566 6.77588C7.4367 6.74668 7.68107 6.78645 7.9004 6.89058C8.11974 6.99472 8.30503 7.15893 8.43476 7.36416C8.5645 7.56939 8.63336 7.80721 8.63333 8.05001V10.7333C8.63403 10.8129 8.64873 10.892 8.67627 10.9667H8.4C8.33812 10.9667 8.27877 10.9421 8.23501 10.8983C8.19125 10.8546 8.16667 10.7952 8.16667 10.7333V8.05001ZM7 2.80001H4.66667C4.66667 2.49059 4.78958 2.19384 5.00838 1.97505C5.22717 1.75626 5.52391 1.63334 5.83333 1.63334C6.14275 1.63334 6.4395 1.75626 6.65829 1.97505C6.87708 2.19384 7 2.49059 7 2.80001ZM1.63333 1.63334C1.6337 1.32404 1.75674 1.02751 1.97545 0.808794C2.19416 0.590082 2.49069 0.467046 2.8 0.466676H4.046C4.19953 0.466217 4.35163 0.496213 4.4935 0.554929C4.63536 0.613645 4.76417 0.699914 4.87247 0.808742L5.3158 1.25324C5.1597 1.30504 5.01247 1.38018 4.879 1.47608L4.5423 1.13938C4.47732 1.0739 4.4 1.02197 4.31481 0.986605C4.22961 0.951237 4.13824 0.933133 4.046 0.933342H2.8C2.61435 0.933342 2.4363 1.00709 2.30503 1.13837C2.17375 1.26964 2.1 1.44769 2.1 1.63334V5.83334H1.63333V1.63334ZM0.466667 6.76668C0.466667 6.64291 0.515833 6.52421 0.60335 6.43669C0.690867 6.34918 0.809566 6.30001 0.933333 6.30001H3.5C4.30196 6.28477 5.08253 6.55923 5.69847 7.07304C6.13353 7.4494 6.6821 7.66922 7.25667 7.69744C7.37147 7.68718 7.48603 7.71844 7.57983 7.78494C7.65637 7.85191 7.7 7.94828 7.7 8.05001V8.40001H7.46667C6.66453 8.41449 5.88395 8.13994 5.2675 7.62651C4.80227 7.22273 4.20702 7.00028 3.591 7.00001H0.466667V6.76668ZM1.16667 9.56668V7.46668H3.591C4.09446 7.46691 4.58097 7.64858 4.96137 7.97838C5.66245 8.56616 6.55191 8.88153 7.46667 8.86668H7.7V10.7333C7.7 10.919 7.77375 11.097 7.90503 11.2283C8.0363 11.3596 8.21435 11.4333 8.4 11.4333H11.06C11.2457 11.4333 11.4237 11.3596 11.555 11.2283C11.6863 11.097 11.76 10.919 11.76 10.7333V8.86668H12.8333V9.56668C12.8317 10.9835 11.6835 12.1317 10.2667 12.1333H3.73333C2.31653 12.1317 1.1683 10.9835 1.16667 9.56668ZM4.24247 12.6H9.75753C9.89995 12.713 10.0174 12.8543 10.1026 13.0149C10.1877 13.1755 10.2386 13.3521 10.2522 13.5333H3.74757C3.76122 13.352 3.81223 13.1755 3.8974 13.0149C3.98257 12.8543 4.10006 12.713 4.24247 12.6ZM1.63333 13.5333V13.3C1.63333 13.2381 1.65792 13.1788 1.70168 13.135C1.74543 13.0913 1.80478 13.0667 1.86667 13.0667H2.33333C2.39522 13.0667 2.45457 13.0421 2.49832 12.9983C2.54208 12.9546 2.56667 12.8952 2.56667 12.8333V12.3667C2.898 12.5043 3.2515 12.5813 3.61013 12.5944C3.41704 12.8718 3.30241 13.1962 3.27833 13.5333H1.63333ZM11.6667 13.0667H12.1333C12.1952 13.0667 12.2546 13.0913 12.2983 13.135C12.3421 13.1788 12.3667 13.2381 12.3667 13.3V13.5333H10.7228C10.6982 13.1959 10.5832 12.8714 10.3899 12.5937C10.7484 12.5808 11.1018 12.5039 11.4333 12.3667V12.8333C11.4333 12.8952 11.4579 12.9546 11.5017 12.9983C11.5454 13.0421 11.6048 13.0667 11.6667 13.0667Z" fill="white"/>
<path d="M3.96663 11.4334C3.96663 11.3715 3.94205 11.3121 3.89829 11.2684C3.85453 11.2246 3.79518 11.2 3.7333 11.2C3.30027 11.1996 2.88511 11.0273 2.57891 10.7211C2.2727 10.4149 2.10046 9.99975 2.09997 9.56672C2.09997 9.50483 2.07538 9.44548 2.03163 9.40172C1.98787 9.35796 1.92852 9.33338 1.86663 9.33338C1.80475 9.33338 1.7454 9.35796 1.70164 9.40172C1.65788 9.44548 1.6333 9.50483 1.6333 9.56672C1.63392 10.1235 1.85537 10.6573 2.24906 11.051C2.64275 11.4447 3.17654 11.6661 3.7333 11.6667C3.79518 11.6667 3.85453 11.6421 3.89829 11.5984C3.94205 11.5546 3.96663 11.4953 3.96663 11.4334ZM5.59997 3.96672V5.13338C5.59997 5.19527 5.62455 5.25461 5.66831 5.29837C5.71207 5.34213 5.77142 5.36671 5.8333 5.36671C5.89518 5.36671 5.95453 5.34213 5.99829 5.29837C6.04205 5.25461 6.06663 5.19527 6.06663 5.13338V3.96672C6.06663 3.90483 6.04205 3.84548 5.99829 3.80172C5.95453 3.75796 5.89518 3.73338 5.8333 3.73338C5.77142 3.73338 5.71207 3.75796 5.66831 3.80172C5.62455 3.84548 5.59997 3.90483 5.59997 3.96672ZM4.6832 3.87992L4.21653 5.04658C4.19351 5.10407 4.19427 5.16835 4.21865 5.22528C4.24302 5.28221 4.28901 5.32713 4.3465 5.35015C4.40399 5.37317 4.46827 5.37241 4.5252 5.34804C4.58213 5.32366 4.62705 5.27767 4.65007 5.22018L5.11673 4.05351C5.13976 3.99602 5.139 3.93174 5.11462 3.87481C5.09025 3.81789 5.04426 3.77297 4.98677 3.74995C4.92928 3.72693 4.865 3.72769 4.80807 3.75206C4.75114 3.77643 4.70622 3.82243 4.6832 3.87992ZM6.9834 3.87992C6.96038 3.82243 6.91546 3.77643 6.85853 3.75206C6.8016 3.72769 6.73732 3.72693 6.67983 3.74995C6.62234 3.77297 6.57635 3.81789 6.55198 3.87481C6.52761 3.93174 6.52685 3.99602 6.54987 4.05351L7.01653 5.22018C7.03955 5.27767 7.08447 5.32366 7.1414 5.34804C7.19833 5.37241 7.26261 5.37317 7.3201 5.35015C7.37759 5.32713 7.42358 5.28221 7.44796 5.22528C7.47233 5.16835 7.47309 5.10407 7.45007 5.04658L6.9834 3.87992Z" fill="white"/>
</g>
</svg>
