<svg width="14" height="14" viewBox="0 0 14 14" fill="none" xmlns="http://www.w3.org/2000/svg">
<mask id="mask0_142_331" style="mask-type:alpha" maskUnits="userSpaceOnUse" x="0" y="0" width="14" height="14">
<rect width="14" height="14" fill="white"/>
</mask>
<g mask="url(#mask0_142_331)">
<path d="M13.1068 6.33833V1.94016C13.1068 0.870337 12.2361 0 11.1657 0H2.77845C1.70811 0 0.837348 0.870364 0.837348 1.94016V6.39507C0.31891 6.93681 0 7.67083 0 8.47789V11.8128C0 12.425 0.498285 12.9231 1.11079 12.9231C1.72326 12.9231 2.22154 12.425 2.22154 11.8128V11.4684H11.7785V11.8128C11.7785 12.425 12.2768 12.9231 12.8892 12.9231C13.5017 12.9231 14 12.425 14 11.8128V8.47789C14 7.64227 13.6581 6.885 13.1068 6.33833ZM2.77845 0.546608H11.1657C11.9345 0.546608 12.56 1.17176 12.56 1.94016V5.90818C12.3914 5.8044 12.213 5.71751 12.0273 5.64879V4.73994C12.0273 3.93424 11.3715 3.27875 10.5654 3.27875H8.1885C7.69915 3.27875 7.26551 3.52054 7.00003 3.89062C6.73455 3.52054 6.3009 3.27875 5.81156 3.27875H3.43462C2.62853 3.27875 1.97271 3.93421 1.97271 4.73994V5.64879C1.76637 5.72516 1.56904 5.82393 1.38425 5.94333V1.94016C1.38422 1.17176 2.00966 0.546608 2.77845 0.546608ZM3.01692 5.46245C2.84752 5.46245 2.68138 5.47671 2.51954 5.50366V4.73994C2.51954 4.23564 2.93002 3.82536 3.43457 3.82536H5.8115C6.31605 3.82536 6.72653 4.23564 6.72653 4.73994V5.46248H3.01692V5.46245ZM7.27344 4.73991C7.27344 4.23561 7.68392 3.82533 8.18847 3.82533H10.5654C11.07 3.82533 11.4804 4.23561 11.4804 4.73991V5.50363C11.3161 5.47623 11.1497 5.46244 10.9831 5.46242H7.27344V4.73991ZM3.01692 6.00906H10.9831C12.345 6.00906 13.4531 7.11657 13.4531 8.47789V9.28871H10.7106C10.5596 9.28871 10.4372 9.41109 10.4372 9.56201C10.4372 9.71293 10.5596 9.83531 10.7106 9.83531H13.4531V10.9218H0.546875V9.83531H7.97625C8.12727 9.83531 8.24969 9.71293 8.24969 9.56201C8.24969 9.41109 8.12727 9.28871 7.97625 9.28871H0.546875V8.47789C0.546875 7.11657 1.65493 6.00906 3.01692 6.00906ZM1.67467 11.8128C1.67467 12.1236 1.42171 12.3765 1.11079 12.3765C0.799859 12.3765 0.546875 12.1236 0.546875 11.8128V11.4684H1.67467V11.8128ZM12.8892 12.3765C12.5783 12.3765 12.3253 12.1236 12.3253 11.8128V11.4684H13.4531V11.8128C13.4531 12.1236 13.2002 12.3765 12.8892 12.3765Z" fill="white"/>
<path d="M9.3434 9.83558C9.49449 9.83558 9.61697 9.71315 9.61697 9.56214C9.61697 9.41112 9.49449 9.2887 9.3434 9.2887C9.19231 9.2887 9.06982 9.41112 9.06982 9.56214C9.06982 9.71315 9.19231 9.83558 9.3434 9.83558Z" fill="white"/>
</g>
</svg>
