<svg width="39" height="40" viewBox="0 0 39 40" fill="none" xmlns="http://www.w3.org/2000/svg">
<path d="M36.4875 11.093H35.0122C35.0796 10.7158 35.0389 10.3275 34.8948 9.97207C34.7507 9.61667 34.5089 9.30843 34.197 9.08234C33.8851 8.85625 33.5154 8.72137 33.13 8.69301C32.7446 8.66464 32.359 8.74393 32.0167 8.92188C31.6723 7.06625 28.9314 6.76192 28.1863 8.50251C27.9388 8.35222 27.662 8.25586 27.3741 8.21983C27.0862 8.18379 26.7939 8.20891 26.5166 8.29352C26.2392 8.37813 25.9832 8.52028 25.7656 8.71053C25.548 8.90077 25.3737 9.13476 25.2544 9.39692C24.9473 9.21193 24.5964 9.11059 24.2372 9.10314C23.8779 9.09569 23.523 9.18241 23.2084 9.35451C22.8938 9.52662 22.6306 9.77802 22.4455 10.0833C22.2603 10.3885 22.1598 10.7368 22.1541 11.093H17.9342C18.1738 8.72889 16.1518 6.19781 16.2492 3.856H17.2901C17.4391 3.856 17.5819 3.79735 17.6873 3.69295C17.7926 3.58855 17.8518 3.44696 17.8518 3.29931V0.55669C17.8518 0.409046 17.7926 0.26745 17.6873 0.163051C17.5819 0.058651 17.4391 0 17.2901 0H5.6601C5.51114 0 5.36828 0.058651 5.26295 0.163051C5.15762 0.26745 5.09844 0.409046 5.09844 0.55669V3.29931C5.09844 4.07868 6.16559 3.81147 6.6561 3.856C6.35281 6.51327 3.20379 8.34292 3.1289 11.093C2.83285 11.0531 2.53163 11.0758 2.24508 11.1597C1.95852 11.2435 1.69314 11.3865 1.46639 11.5794C1.23964 11.7722 1.05667 12.0105 0.929536 12.2785C0.802398 12.5464 0.73397 12.8381 0.72876 13.1342V26.8658C0.72975 27.4069 0.94704 27.9255 1.33304 28.3081C1.71904 28.6907 2.24228 28.9061 2.78817 28.907H5.07598C4.84757 30.5623 6.5288 31.876 8.07148 31.0781C8.41596 32.9338 11.1568 33.2381 11.902 31.4975C12.15 31.651 12.4284 31.7501 12.7184 31.7878C13.0084 31.8256 13.3032 31.8013 13.5828 31.7165C13.8625 31.6318 14.1206 31.4885 14.3396 31.2964C14.5587 31.1043 14.7336 30.8679 14.8525 30.6031C15.1592 30.7834 15.5082 30.881 15.8647 30.8861C16.2212 30.8911 16.5729 30.8035 16.8846 30.632C17.1964 30.4604 17.4573 30.2108 17.6414 29.9082C17.8256 29.6056 17.9265 29.2604 17.9342 28.907H22.1541C21.9182 31.2822 23.9401 33.7948 23.839 36.144H22.7981C22.6491 36.144 22.5063 36.2026 22.4009 36.307C22.2956 36.4114 22.2364 36.553 22.2364 36.7007V39.4433C22.2364 39.591 22.2956 39.7326 22.4009 39.837C22.5063 39.9413 22.6491 40 22.7981 40H34.4281C34.5771 40 34.7199 39.9413 34.8253 39.837C34.9306 39.7326 34.9898 39.591 34.9898 39.4433V36.7007C34.9898 35.9176 33.9226 36.1885 33.4284 36.144C33.7467 33.4682 36.9069 31.6348 36.9668 28.8514C37.4167 28.744 37.8171 28.4898 38.1037 28.1297C38.3902 27.7696 38.5464 27.3245 38.5469 26.8658V13.1342C38.5459 12.5931 38.3287 12.0745 37.9427 11.6919C37.5567 11.3093 37.0334 11.0939 36.4875 11.093ZM32.9828 9.79774C33.7317 9.79774 33.9638 10.4583 33.8889 11.093H32.0804C31.9943 10.4583 32.2526 9.81258 32.9828 9.79774ZM29.1448 9.33383C29.1448 9.09563 29.2403 8.86719 29.4102 8.69876C29.5801 8.53033 29.8106 8.4357 30.051 8.4357C30.2913 8.4357 30.5218 8.53033 30.6917 8.69876C30.8616 8.86719 30.9571 9.09563 30.9571 9.33383V11.093H29.1448V9.33383ZM26.213 10.1948C26.2278 9.9671 26.3295 9.75349 26.4974 9.59739C26.6654 9.44129 26.887 9.35442 27.1172 9.35442C27.3475 9.35442 27.5691 9.44129 27.737 9.59739C27.905 9.75349 28.0067 9.9671 28.0215 10.1948V11.093H26.213V10.1948ZM24.1835 10.1948C24.4235 10.1958 24.6534 10.2908 24.8232 10.459C24.9929 10.6272 25.0887 10.8551 25.0897 11.093H23.2774C23.2803 10.8567 23.3771 10.6311 23.5467 10.4651C23.7163 10.2991 23.9451 10.206 24.1835 10.206V10.1948ZM6.21052 1.10225H16.7285V2.74262H6.22176L6.21052 1.10225ZM6.69729 6.6877C7.29897 5.84826 7.67171 4.86903 7.77942 3.84487H15.1446C14.9686 6.20523 17.0168 8.72889 16.8296 11.0818H10.8685C10.7196 11.0818 10.5767 11.1405 10.4714 11.2449C10.366 11.3493 10.3069 11.4909 10.3069 11.6385C10.3627 12.068 10.3266 12.5043 10.2009 12.919C10.0751 13.3337 9.86257 13.7175 9.57708 14.0453C9.29159 14.3731 8.93959 14.6375 8.54402 14.8214C8.14846 15.0052 7.71823 15.1043 7.28141 15.1123C7.13245 15.1123 6.98959 15.1709 6.88426 15.2753C6.77893 15.3797 6.71976 15.5213 6.71976 15.669V19.885C6.71976 20.0463 6.6877 20.206 6.62542 20.355C6.56313 20.5041 6.47184 20.6395 6.35675 20.7536C6.24166 20.8677 6.10503 20.9581 5.95466 21.0199C5.80429 21.0816 5.64313 21.1134 5.48037 21.1134C5.31761 21.1134 5.15645 21.0816 5.00608 21.0199C4.85571 20.9581 4.71908 20.8677 4.60399 20.7536C4.4889 20.6395 4.39761 20.5041 4.33533 20.355C4.27304 20.206 4.24098 20.0463 4.24098 19.885V11.6645C4.07249 9.87938 5.78366 8.06458 6.70852 6.69883L6.69729 6.6877ZM7.0942 30.1911C6.34532 30.1911 6.11317 29.5305 6.18806 28.8959H7.99659C8.08271 29.5417 7.83558 30.1874 7.10543 30.2023L7.0942 30.1911ZM10.9322 30.655C10.9322 30.8932 10.8367 31.1217 10.6668 31.2901C10.4968 31.4585 10.2664 31.5532 10.026 31.5532C9.78572 31.5532 9.55524 31.4585 9.3853 31.2901C9.21537 31.1217 9.1199 30.8932 9.1199 30.655V28.907H10.9322V30.655ZM12.9616 30.6922C11.9282 30.6476 12.0592 29.6493 12.0667 28.907H13.8753C13.8865 29.6493 14.0213 30.6476 12.9729 30.7033L12.9616 30.6922ZM15.8935 29.794C15.6573 29.7902 15.4319 29.6955 15.2649 29.53C15.0979 29.3645 15.0024 29.1411 14.9986 28.907H16.8108C16.8094 29.025 16.7845 29.1415 16.7376 29.2499C16.6907 29.3583 16.6227 29.4565 16.5375 29.5389C16.4523 29.6212 16.3516 29.6862 16.2411 29.7299C16.1306 29.7737 16.0125 29.7955 15.8935 29.794ZM33.8665 38.8866H23.3598V37.2574H33.8665V38.8866ZM35.8697 28.3503C35.9371 31.3194 32.4024 33.2047 32.2976 36.144H24.9623C25.1421 33.7799 23.0902 31.2637 23.2774 28.907H29.2234C29.8113 28.8811 29.8038 28.3466 29.7851 27.9013C29.7861 27.1023 30.1067 26.3364 30.6767 25.7715C31.2467 25.2065 32.0195 24.8887 32.8255 24.8877C32.9745 24.8877 33.1174 24.8291 33.2227 24.7247C33.328 24.6203 33.3872 24.4787 33.3872 24.331V20.115C33.4046 19.8004 33.543 19.5044 33.7739 19.2878C34.0047 19.0712 34.3106 18.9505 34.6285 18.9505C34.9463 18.9505 35.2522 19.0712 35.483 19.2878C35.7139 19.5044 35.8523 19.8004 35.8697 20.115V28.3503ZM37.4236 26.8658C37.4237 27.0211 37.3843 27.174 37.309 27.3102C37.2338 27.4464 37.1251 27.5616 36.993 27.6452V20.115C37.0492 18.0813 34.372 16.9865 32.9566 18.4598C32.736 18.6763 32.5611 18.9341 32.4422 19.2183C32.3232 19.5025 32.2626 19.8074 32.2639 20.115V23.8263C31.287 23.9584 30.389 24.4296 29.7295 25.1559C29.07 25.8823 28.6917 26.8169 28.6618 27.7937H2.78817C2.5399 27.7937 2.3018 27.6959 2.12625 27.5219C1.9507 27.3479 1.85207 27.1119 1.85207 26.8658V13.1342C1.85207 12.4698 2.47738 12.121 3.09895 12.2063V19.885C3.03529 21.9187 5.72001 23.0173 7.13164 21.5402C7.35191 21.3235 7.52657 21.0656 7.64548 20.7814C7.7644 20.4973 7.82519 20.1926 7.82435 19.885V16.1737C8.80121 16.0416 9.69918 15.5705 10.3587 14.8441C11.0182 14.1177 11.3965 13.1831 11.4264 12.2063H36.4875C36.7358 12.2063 36.9739 12.3041 37.1494 12.4781C37.325 12.6521 37.4236 12.8881 37.4236 13.1342V26.8658Z" fill="#16191E"/>
<path d="M9.47394 25.5672H5.03311C4.88415 25.5672 4.74129 25.5086 4.63596 25.4042C4.53063 25.2998 4.47146 25.1582 4.47146 25.0105V23.63C4.47146 23.4823 4.41228 23.3407 4.30695 23.2363C4.20162 23.1319 4.05876 23.0733 3.9098 23.0733C3.76084 23.0733 3.61798 23.1319 3.51265 23.2363C3.40732 23.3407 3.34814 23.4823 3.34814 23.63V25.0105C3.34814 25.4535 3.52567 25.8783 3.84166 26.1915C4.15765 26.5047 4.58623 26.6806 5.03311 26.6806H9.47394C9.6229 26.6806 9.76576 26.622 9.87109 26.5176C9.97642 26.4132 10.0356 26.2716 10.0356 26.1239C10.0356 25.9763 9.97642 25.8347 9.87109 25.7303C9.76576 25.6259 9.6229 25.5672 9.47394 25.5672ZM34.2392 13.3201H29.7947C29.6457 13.3201 29.5028 13.3787 29.3975 13.4831C29.2922 13.5875 29.233 13.7291 29.233 13.8768C29.233 14.0244 29.2922 14.166 29.3975 14.2704C29.5028 14.3748 29.6457 14.4334 29.7947 14.4334H34.2392C34.3879 14.4344 34.5302 14.4934 34.6353 14.5976C34.7404 14.7018 34.7999 14.8428 34.8009 14.9901V16.3744C34.8009 16.5221 34.8601 16.6637 34.9654 16.7681C35.0707 16.8725 35.2136 16.9311 35.3625 16.9311C35.5115 16.9311 35.6544 16.8725 35.7597 16.7681C35.865 16.6637 35.9242 16.5221 35.9242 16.3744V14.9864C35.9222 14.5444 35.7439 14.1212 35.4283 13.809C35.1126 13.4968 34.6852 13.321 34.2392 13.3201ZM22.7328 19.8519V20.1599C22.7328 20.3076 22.7919 20.4492 22.8973 20.5536C23.0026 20.658 23.1455 20.7166 23.2944 20.7166C23.4434 20.7166 23.5862 20.658 23.6916 20.5536C23.7969 20.4492 23.8561 20.3076 23.8561 20.1599V19.8519C23.8561 19.7042 23.7969 19.5627 23.6916 19.4583C23.5862 19.3539 23.4434 19.2952 23.2944 19.2952C23.1455 19.2952 23.0026 19.3539 22.8973 19.4583C22.7919 19.5627 22.7328 19.7042 22.7328 19.8519ZM15.9779 19.2952C15.829 19.2952 15.6861 19.3539 15.5808 19.4583C15.4754 19.5627 15.4163 19.7042 15.4163 19.8519C15.3713 20.2564 15.4912 20.7092 15.9779 20.7166C16.1269 20.7166 16.2697 20.658 16.3751 20.5536C16.4804 20.4492 16.5396 20.3076 16.5396 20.1599C16.5845 19.7554 16.4684 19.3026 15.9779 19.2952ZM19.1419 18.1447H20.1304C20.1514 18.1447 20.1722 18.1489 20.1915 18.1569C20.2108 18.165 20.2283 18.1768 20.243 18.1917C20.2576 18.2065 20.2691 18.2242 20.2768 18.2435C20.2845 18.2628 20.2882 18.2835 20.2877 18.3043C20.2877 18.4519 20.3469 18.5935 20.4522 18.6979C20.5575 18.8023 20.7004 18.861 20.8494 18.861C20.9983 18.861 21.1412 18.8023 21.2465 18.6979C21.3518 18.5935 21.411 18.4519 21.411 18.3043C21.4124 17.9783 21.2872 17.6642 21.0614 17.4272C20.8355 17.1903 20.5263 17.0485 20.1978 17.0313C20.1978 16.5711 20.3139 15.8326 19.6362 15.8177C18.9584 15.8029 19.0745 16.56 19.0745 17.0313C18.7473 17.0484 18.4392 17.1891 18.2136 17.4246C17.9879 17.66 17.8618 17.9721 17.8613 18.2969V19.2804C17.8613 19.6173 17.9961 19.9405 18.2362 20.1792C18.4762 20.4178 18.8019 20.5523 19.1419 20.5533H20.1304C20.1721 20.5533 20.2121 20.5697 20.2416 20.599C20.2711 20.6282 20.2877 20.6679 20.2877 20.7092V21.7075C20.2877 21.7489 20.2711 21.7885 20.2416 21.8177C20.2121 21.847 20.1721 21.8634 20.1304 21.8634H19.1419C19.0109 21.8634 18.9697 21.7298 18.9847 21.6222C18.9847 21.4745 18.9255 21.3329 18.8201 21.2285C18.7148 21.1241 18.572 21.0655 18.423 21.0655C18.3422 21.0669 18.2625 21.0852 18.1893 21.1192C18.1161 21.1531 18.0508 21.202 17.9979 21.2625C17.9449 21.323 17.9054 21.394 17.8819 21.4706C17.8583 21.5473 17.8514 21.628 17.8613 21.7075C17.8619 22.0319 17.9881 22.3436 18.2138 22.5784C18.4396 22.8132 18.7477 22.9532 19.0745 22.9694C19.0745 23.4333 18.9584 24.1681 19.6362 24.1866C20.3139 24.2052 20.1978 23.4444 20.1978 22.9694C20.5247 22.9532 20.8328 22.8132 21.0585 22.5784C21.2843 22.3436 21.4105 22.0319 21.411 21.7075V20.7203C21.411 20.3837 21.2761 20.0609 21.0359 19.8228C20.7958 19.5848 20.4701 19.4511 20.1304 19.4511H19.1419C19.0999 19.4501 19.0599 19.4329 19.0305 19.403C19.0011 19.3732 18.9846 19.3332 18.9847 19.2915V18.308C18.9836 18.2869 18.987 18.2659 18.9944 18.2461C19.0019 18.2263 19.0133 18.2082 19.028 18.193C19.0427 18.1777 19.0604 18.1655 19.08 18.1572C19.0995 18.149 19.1206 18.1447 19.1419 18.1447Z" fill="#16191E"/>
<path d="M19.6362 13.4574C13.8587 13.3831 10.8707 20.6238 14.9895 24.6245C16.2223 25.8452 17.8937 26.5308 19.6362 26.5308C21.3788 26.5308 23.0502 25.8452 24.283 24.6245C28.4018 20.6238 25.4138 13.3831 19.6362 13.4574ZM23.4855 23.8489C22.464 24.8597 21.0796 25.4274 19.6362 25.4274C18.1929 25.4274 16.8085 24.8597 15.787 23.8489C12.3684 20.531 14.8397 14.5151 19.6362 14.5707C24.4328 14.5114 26.9041 20.5236 23.4855 23.8415V23.8489Z" fill="#16191E"/>
</svg>
