<svg width="37" height="40" viewBox="0 0 37 40" fill="none" xmlns="http://www.w3.org/2000/svg">
<path d="M29.3367 16.7923C29.3367 10.861 24.475 6.04175 18.5109 6.04175C12.5467 6.04175 7.68506 10.861 7.68506 16.7923C7.68506 22.715 12.538 27.5428 18.5109 27.5428C24.4837 27.5428 29.3367 22.715 29.3367 16.7923ZM18.5109 26.1548C13.3107 26.1548 9.07409 21.9563 9.07409 16.7837C9.07409 11.611 13.3107 7.42113 18.5109 7.42113C23.7111 7.42113 27.9476 11.6196 27.9476 16.7923C27.9476 21.965 23.7111 26.1548 18.5109 26.1548Z" fill="#16191E"/>
<path d="M31.7761 27.9132C32.1668 27.7149 32.514 27.4563 32.7832 27.0942C33.4864 26.1372 33.3214 24.8872 33.1651 23.6716C33.061 22.8871 32.9568 22.0681 33.1391 21.5163C33.304 20.999 33.8597 20.4214 34.3892 19.8697C35.214 19.0076 36.1429 18.0334 36.1429 16.8006C36.1429 15.5677 35.2226 14.5763 34.3979 13.7142C33.8683 13.1538 33.3127 12.5848 33.1478 12.0676C32.9655 11.5158 33.0696 10.6968 33.1738 9.91227C33.3301 8.69669 33.4864 7.44663 32.7918 6.48968C32.0886 5.52412 30.8298 5.29135 29.6144 5.05858C28.8331 4.91202 28.0257 4.76546 27.5656 4.42924C27.1055 4.10163 26.7235 3.3947 26.3502 2.70501C25.7859 1.67048 25.1348 0.498003 23.9801 0.118673C22.8689 -0.243414 21.7316 0.291096 20.6291 0.808363C19.8912 1.15321 19.1359 1.50667 18.5282 1.50667C17.9205 1.50667 17.1652 1.15321 16.4273 0.808363C15.3247 0.291096 14.1874 -0.243414 13.0762 0.118673C11.9129 0.489382 11.3052 1.61875 10.7062 2.70501C10.3329 3.38608 9.9422 4.10163 9.49076 4.42924C9.02196 4.76546 8.22327 4.92064 7.44193 5.05858C6.22653 5.28273 4.96771 5.52412 4.26452 6.48968C3.56132 7.44663 3.72626 8.69669 3.88253 9.91227C3.98671 10.6968 4.09089 11.5158 3.90858 12.0676C3.74363 12.5848 3.18801 13.1624 2.65844 13.7142C1.8337 14.5763 0.904785 15.5505 0.904785 16.7833C0.904785 18.0161 1.84238 18.9903 2.65844 19.8524C3.18801 20.4128 3.74363 20.9818 3.90858 21.4991C4.09089 22.0508 3.98671 22.8698 3.88253 23.6543C3.72626 24.8699 3.57 26.12 4.26452 27.0769C4.53364 27.439 4.8809 27.7063 5.27157 27.8959L1.48644 34.4049C1.34754 34.6463 1.3649 34.948 1.53853 35.1722C1.71216 35.3963 1.99865 35.4911 2.26778 35.4222L7.85865 33.9307L9.36054 39.4827C9.42999 39.75 9.66439 39.9483 9.9422 39.9914C9.97692 39.9914 10.003 40 10.029 40C10.2721 40 10.5065 39.8707 10.628 39.6552L14.1788 33.5428C14.934 33.4566 15.698 33.1031 16.4359 32.7583C17.1739 32.4134 17.9292 32.0599 18.5369 32.0599C19.1446 32.0599 19.8998 32.4134 20.6378 32.7583C21.3757 33.1031 22.1397 33.4652 22.895 33.5428L26.4457 39.6552C26.5672 39.8707 26.8016 40 27.0447 40C27.0707 40 27.1055 40 27.1315 39.9914C27.4093 39.9569 27.635 39.7586 27.7132 39.4827L29.2151 33.9307L34.8059 35.4222C35.0751 35.4911 35.3616 35.3963 35.5352 35.1722C35.7088 34.948 35.7262 34.6463 35.5873 34.4049L31.7761 27.9132ZM10.2374 37.5344L8.99592 32.9221C8.90042 32.5513 8.51844 32.3358 8.14513 32.4307L3.50055 33.6635L6.59115 28.3442C6.86028 28.4046 7.13808 28.4563 7.41589 28.508C8.19722 28.6546 9.0046 28.8012 9.46472 29.1374C9.92484 29.465 10.3068 30.1719 10.6801 30.8616C11.1837 31.7841 11.7479 32.81 12.6855 33.2928L10.2374 37.5344ZM18.5108 30.6892C17.5906 30.6892 16.6877 31.1116 15.8196 31.5168C14.9601 31.922 14.0746 32.3358 13.4929 32.1462C12.8592 31.9392 12.3817 31.0599 11.9129 30.215C11.4615 29.396 11.0013 28.5511 10.2895 28.0339C9.5689 27.5166 8.60525 27.3356 7.67633 27.1631C6.73005 26.9821 5.74905 26.8011 5.35838 26.2838C4.98508 25.7751 5.10662 24.7923 5.22816 23.8526C5.3497 22.9129 5.47124 21.9474 5.19343 21.0939C4.92431 20.2835 4.26452 19.5852 3.63077 18.9213C2.95361 18.2144 2.25041 17.4816 2.25041 16.8006C2.25041 16.1195 2.95361 15.3867 3.63077 14.6798C4.2732 14.0073 4.93299 13.3176 5.19343 12.5072C5.47124 11.6537 5.3497 10.6882 5.22816 9.74847C5.10662 8.80015 4.98508 7.82596 5.35838 7.31731C5.74037 6.79142 6.72137 6.61038 7.67633 6.43796C8.60525 6.26554 9.5689 6.08449 10.2895 5.56722C11.0013 5.05858 11.4615 4.20509 11.9129 3.38608C12.3817 2.53259 12.8592 1.66185 13.4929 1.45495C14.0833 1.26528 14.9688 1.6791 15.8196 2.08429C16.6877 2.48948 17.5906 2.91192 18.5108 2.91192C19.431 2.91192 20.3339 2.48948 21.2021 2.08429C22.0615 1.6791 22.947 1.26528 23.5287 1.45495C24.1624 1.66185 24.6399 2.54121 25.1087 3.38608C25.5602 4.20509 26.0203 5.04996 26.7322 5.56722C27.4527 6.08449 28.4164 6.26554 29.3453 6.43796C30.2916 6.619 31.2726 6.80005 31.6632 7.31731C32.0365 7.82596 31.915 8.80877 31.7935 9.74847C31.6719 10.6882 31.5504 11.6537 31.8282 12.5072C32.0973 13.3176 32.7571 14.0159 33.3909 14.6798C34.068 15.3867 34.7712 16.1195 34.7712 16.8006C34.7712 17.4816 34.068 18.2144 33.3909 18.9213C32.7484 19.5938 32.0886 20.2835 31.8282 21.0939C31.5504 21.9474 31.6719 22.9129 31.7935 23.8526C31.915 24.801 32.0365 25.7751 31.6632 26.2838C31.2813 26.8097 30.3003 26.9907 29.3453 27.1631C28.4164 27.3356 27.4527 27.5166 26.7322 28.0339C26.0203 28.5425 25.5602 29.396 25.1087 30.215C24.6399 31.0685 24.1624 31.9392 23.5287 32.1462C22.9384 32.3358 22.0529 31.922 21.2021 31.5168C20.3339 31.1116 19.431 30.6892 18.5108 30.6892ZM28.8765 32.4307C28.5032 32.3358 28.1212 32.5513 28.0257 32.9221L26.7843 37.5344L24.3274 33.31C25.2563 32.8358 25.8032 31.8444 26.3328 30.8789C26.7061 30.1978 27.0968 29.4822 27.5482 29.1546C28.017 28.8184 28.8157 28.6632 29.5971 28.5253C29.8749 28.4736 30.1527 28.4218 30.4218 28.3615L33.5124 33.6807L28.8765 32.4307Z" fill="#16191E"/>
<path d="M25.022 12.5674C24.7529 12.3001 24.3101 12.3001 24.041 12.5674L17.009 19.5505L12.9895 15.5589C12.7204 15.2917 12.2776 15.2917 12.0085 15.5589C11.7394 15.8262 11.7394 16.2658 12.0085 16.5331L16.5229 21.0161C16.6531 21.1454 16.8267 21.2144 17.0177 21.2144C17.2087 21.2144 17.3823 21.1454 17.5125 21.0161L25.022 13.5416C25.2911 13.2743 25.2911 12.8346 25.022 12.5674Z" fill="#16191E"/>
</svg>
