<svg width="53" height="52" viewBox="0 0 53 52" fill="none" xmlns="http://www.w3.org/2000/svg">
<mask id="mask0_1842_14" style="mask-type:alpha" maskUnits="userSpaceOnUse" x="0" y="0" width="53" height="52">
<rect x="0.799316" y="0.385742" width="51.3062" height="51.3062" fill="#D9D9D9"/>
</mask>
<g mask="url(#mask0_1842_14)">
<path d="M49.537 44.7267C49.5383 44.6893 49.5389 44.6521 49.5389 44.6152C49.5379 43.6771 49.1772 42.7778 48.536 42.1144C47.8948 41.4511 47.0255 41.0779 46.1187 41.0769V24.712L49.1969 22.3236C49.3038 22.2406 49.3904 22.1329 49.4498 22.009C49.5092 21.8852 49.5397 21.7487 49.5389 21.6104C49.5381 21.4722 49.5059 21.336 49.445 21.213C49.3842 21.0899 49.2962 20.9833 49.1883 20.9017L41.8434 15.3488V5.69328C42.0702 5.69328 42.2877 5.60009 42.448 5.43419C42.6084 5.2683 42.6985 5.0433 42.6985 4.80869V1.27033C42.6985 1.03572 42.6084 0.810725 42.448 0.644833C42.2877 0.47894 42.0702 0.385742 41.8434 0.385742H33.2929C33.0661 0.385742 32.8486 0.47894 32.6883 0.644833C32.5279 0.810725 32.4378 1.03572 32.4378 1.27033V4.80869C32.4378 5.0433 32.5279 5.2683 32.6883 5.43419C32.8486 5.60009 33.0661 5.69328 33.2929 5.69328V8.88455L26.9569 4.0945C26.8105 3.98379 26.6338 3.92413 26.4524 3.92413C26.2711 3.92413 26.0944 3.98379 25.9479 4.0945L3.71651 20.9017C3.60862 20.9833 3.5207 21.0899 3.45983 21.213C3.39895 21.336 3.36681 21.4722 3.36597 21.6104C3.36514 21.7487 3.39565 21.8852 3.45504 22.009C3.51443 22.1329 3.60105 22.2406 3.70796 22.3236L6.78616 24.712V41.0769C5.87938 41.0779 5.01002 41.4511 4.36883 42.1144C3.72763 42.7778 3.36696 43.6771 3.36594 44.6152C3.36594 44.6521 3.36658 44.6893 3.36787 44.7267C2.56122 44.9413 1.85797 45.453 1.39006 46.1658C0.922158 46.8786 0.721756 47.7436 0.826457 48.5984C0.931158 49.4532 1.33377 50.2392 1.95874 50.8087C2.58372 51.3783 3.38811 51.6923 4.221 51.692H48.6839C49.5167 51.6923 50.3211 51.3783 50.9461 50.8087C51.5711 50.2392 51.9737 49.4532 52.0784 48.5984C52.1831 47.7436 51.9827 46.8786 51.5148 46.1658C51.0469 45.453 50.3436 44.9413 49.537 44.7267ZM34.1479 2.15492H40.9884V3.9241H34.1479V2.15492ZM35.003 10.1162V5.69328H40.1333V14.056L34.9221 10.1162H35.003ZM26.4524 5.90426L47.2468 21.6252L45.2558 23.17L26.9554 9.40082C26.8093 9.29083 26.6332 9.23158 26.4524 9.23158C26.2717 9.23158 26.0956 9.29083 25.9494 9.40082L7.64902 23.17L5.65802 21.6252L26.4524 5.90426ZM2.51089 48.1536C2.51136 47.6891 2.68818 47.2434 3.00325 46.9125C3.31832 46.5816 3.74642 46.3919 4.19534 46.3844H4.19738C4.24109 46.3907 4.28481 46.3962 4.32937 46.3991C4.47107 46.4084 4.61276 46.381 4.74166 46.3194C4.87056 46.2579 4.98262 46.164 5.06771 46.0465C5.1528 45.9289 5.20825 45.7912 5.22906 45.6459C5.24986 45.5006 5.23537 45.3523 5.18689 45.2142C5.11613 45.0229 5.0786 44.8201 5.07605 44.6152C5.07659 44.1462 5.25693 43.6965 5.57753 43.3649C5.89812 43.0332 6.33278 42.8466 6.78616 42.8461V49.9228H4.221C3.76761 49.9222 3.33295 49.7357 3.01236 49.404C2.69177 49.0723 2.51142 48.6227 2.51089 48.1536ZM39.2783 49.9228H29.0176V30.4618H39.2783V49.9228ZM40.9884 49.9228V29.5772C40.9884 29.3426 40.8983 29.1176 40.7379 28.9517C40.5776 28.7858 40.3601 28.6926 40.1333 28.6926H28.1625C27.9358 28.6926 27.7183 28.7858 27.5579 28.9517C27.3976 29.1176 27.3075 29.3426 27.3075 29.5772V49.9228H8.49627V24.7202L26.4524 11.21L44.4086 24.7202V49.9228H40.9884ZM48.6839 49.9228H46.1187V42.8461C46.5721 42.8466 47.0067 43.0332 47.3273 43.3649C47.6479 43.6965 47.8283 44.1462 47.8288 44.6152C47.8263 44.8203 47.7888 45.0232 47.718 45.2147C47.6695 45.3527 47.655 45.5011 47.6758 45.6464C47.6966 45.7917 47.7521 45.9293 47.8372 46.0469C47.9222 46.1645 48.0343 46.2583 48.1632 46.3199C48.2921 46.3814 48.4338 46.4088 48.5755 46.3996C48.6201 46.3966 48.6638 46.3912 48.7075 46.3849H48.7095C49.1631 46.3884 49.5967 46.5782 49.915 46.9124C50.2333 47.2467 50.4102 47.6981 50.4068 48.1673C50.4034 48.6365 50.22 49.0851 49.8968 49.4144C49.5737 49.7437 49.1374 49.9268 48.6839 49.9232V49.9228Z" fill="white"/>
<path d="M23.0312 28.6943H12.7706C12.5438 28.6943 12.3263 28.7875 12.166 28.9534C12.0056 29.1193 11.9155 29.3443 11.9155 29.5789V41.9632C11.9155 42.1978 12.0056 42.4228 12.166 42.5887C12.3263 42.7546 12.5438 42.8478 12.7706 42.8478H23.0312C23.258 42.8478 23.4755 42.7546 23.6359 42.5887C23.7962 42.4228 23.8863 42.1978 23.8863 41.9632V29.5789C23.8863 29.3443 23.7962 29.1193 23.6359 28.9534C23.4755 28.7875 23.258 28.6943 23.0312 28.6943ZM22.1762 34.8865H18.756V30.4635H22.1762V34.8865ZM17.0459 30.4635V34.8865H13.6256V30.4635H17.0459ZM13.6256 36.6556H17.0459V41.0786H13.6256V36.6556ZM18.756 41.0786V36.6556H22.1762V41.0786H18.756Z" fill="white"/>
<path d="M32.3744 39.6469C32.5552 39.1955 32.348 38.6781 31.9117 38.4911C31.4754 38.3042 30.9752 38.5185 30.7945 38.9699C30.6138 39.4212 30.821 39.9387 31.2573 40.1256C31.6935 40.3126 32.1937 40.0982 32.3744 39.6469Z" fill="white"/>
</g>
</svg>
