<svg width="40" height="37" viewBox="0 0 40 37" fill="none" xmlns="http://www.w3.org/2000/svg">
<path d="M4.36184 8.46904C3.98666 8.46904 3.73654 8.21891 3.73654 7.84373V2.71627C3.73654 2.34108 3.98666 2.09096 4.36184 2.09096H9.23919C9.61437 2.09096 9.86449 2.34108 9.86449 2.71627V4.84229C9.86449 5.21747 9.61437 5.46759 9.23919 5.46759C8.86401 5.46759 8.61389 5.21747 8.61389 4.84229V3.34157H4.98714V7.84373C4.98714 8.21891 4.67449 8.46904 4.36184 8.46904ZM35.1892 36.545H4.79955C4.42437 36.545 4.17425 36.2949 4.17425 35.9197V17.8486C4.17425 17.4734 4.42437 17.2232 4.79955 17.2232C5.17473 17.2232 5.42485 17.4734 5.42485 17.8486V35.2944H34.6264V17.8486C34.6264 17.4734 34.8765 17.2232 35.2517 17.2232C35.6269 17.2232 35.877 17.4734 35.877 17.8486V35.9197C35.8145 36.2949 35.5644 36.545 35.1892 36.545ZM2.54847 16.723C1.67305 16.723 0.860155 16.2853 0.359914 15.5349C-0.327917 14.2843 -0.0152667 12.7211 1.17281 11.9707L3.98666 10.1573L8.86401 7.1559L18.6812 1.15301C19.4941 0.652772 20.5571 0.652772 21.37 1.15301L38.7534 11.8457C39.3162 12.2208 39.7539 12.7836 39.9415 13.4714C40.0665 14.1593 40.004 14.8471 39.6288 15.4099C39.1911 16.1602 38.3782 16.6605 37.4403 16.6605C36.94 16.6605 36.5023 16.5354 36.0646 16.2853L34.8765 15.5349L19.9944 6.46807L3.92413 16.2853C3.48642 16.5354 3.04871 16.723 2.54847 16.723ZM20.0569 2.02843C19.8068 2.02843 19.5567 2.09096 19.3691 2.21602L4.67449 11.2204L1.86064 12.9712C1.23534 13.3464 1.04774 14.1593 1.42293 14.7846C1.79811 15.3473 2.67353 15.5349 3.2363 15.2223L4.42437 14.4719L19.6192 5.15494C19.8068 5.02988 20.0569 5.02988 20.2445 5.15494L35.4393 14.4094L36.6274 15.1598C36.815 15.2848 37.1276 15.3473 37.3777 15.3473C37.8154 15.3473 38.2532 15.0972 38.5033 14.722C38.6909 14.4094 38.7534 14.0342 38.6909 13.7216C38.6283 13.4089 38.3782 13.0963 38.1281 12.9087L20.7447 2.27855C20.5571 2.15349 20.307 2.02843 20.0569 2.02843Z" fill="#16191E"/>
<path d="M10.1764 3.3413H3.42315C3.04797 3.3413 2.79785 3.09118 2.79785 2.716C2.79785 2.34082 3.04797 2.0907 3.42315 2.0907H10.1764C10.5516 2.0907 10.8017 2.34082 10.8017 2.716C10.8017 3.09118 10.4891 3.3413 10.1764 3.3413ZM24.6834 36.5448H15.3039C14.9287 36.5448 14.6786 36.2947 14.6786 35.9195V25.8521C14.6786 22.9132 17.0547 20.5371 19.9936 20.5371C22.9325 20.5371 25.3087 22.9132 25.3087 25.8521V35.9195C25.3087 36.2947 25.0586 36.5448 24.6834 36.5448ZM15.9292 35.2942H24.0581V25.8521C24.0581 23.6011 22.2447 21.7877 19.9936 21.7877C17.8051 21.7877 15.9292 23.6636 15.9292 25.8521V35.2942ZM32.4371 29.9791H26.9345C26.5593 29.9791 26.3092 29.729 26.3092 29.3538V22.9758C26.3092 21.0999 27.8099 19.5991 29.6858 19.5991C31.5617 19.5991 33.0624 21.0999 33.0624 22.9758V29.3538C33.0624 29.729 32.8123 29.9791 32.4371 29.9791ZM27.5598 28.7285H31.8118V22.9758C31.8118 21.7877 30.8739 20.8497 29.6858 20.8497C28.5602 20.8497 27.5598 21.8502 27.5598 22.9758V28.7285ZM12.9903 29.9791H7.48761C7.11243 29.9791 6.86231 29.729 6.86231 29.3538V22.9758C6.86231 21.0999 8.36303 19.5991 10.2389 19.5991C12.1148 19.5991 13.6156 21.0999 13.6156 22.9758V29.3538C13.6156 29.729 13.3029 29.9791 12.9903 29.9791ZM8.11291 28.7285H12.365V22.9758C12.365 21.7877 11.427 20.8497 10.2389 20.8497C9.11339 20.8497 8.11291 21.8502 8.11291 22.9758V28.7285ZM19.9936 18.9113C18.8825 18.9113 17.8169 18.4699 17.0312 17.6842C16.2455 16.8985 15.8041 15.8329 15.8041 14.7218C15.8041 13.6107 16.2455 12.545 17.0312 11.7593C17.8169 10.9737 18.8825 10.5323 19.9936 10.5323C22.3072 10.5948 24.1831 12.4707 24.1831 14.7218C24.1831 17.0354 22.3072 18.9113 19.9936 18.9113ZM19.9936 11.7829C18.3678 11.7829 17.0547 13.096 17.0547 14.7218C17.0547 16.3476 18.3678 17.6607 19.9936 17.6607C21.6194 17.6607 22.9325 16.3476 22.9325 14.7218C22.9325 13.1585 21.6194 11.8454 19.9936 11.7829Z" fill="#16191E"/>
<path d="M37.3779 36.5452H2.61114C2.23596 36.5452 1.98584 36.295 1.98584 35.9199C1.98584 35.5447 2.23596 35.2946 2.61114 35.2946H37.4404C37.8156 35.2946 38.0657 35.5447 38.0657 35.9199C38.0657 36.295 37.7531 36.5452 37.3779 36.5452Z" fill="#16191E"/>
</svg>
