<svg width="40" height="40" viewBox="0 0 40 40" fill="none" xmlns="http://www.w3.org/2000/svg">
<mask id="mask0_139_228" style="mask-type:alpha" maskUnits="userSpaceOnUse" x="0" y="0" width="40" height="40">
<rect width="40" height="40" fill="#D9D9D9"/>
</mask>
<g mask="url(#mask0_139_228)">
<path d="M37.9975 34.5697C37.9985 34.5405 37.999 34.5115 37.999 34.4828C37.9982 33.7514 37.717 33.0502 37.2171 32.533C36.7172 32.0159 36.0394 31.725 35.3325 31.7241V18.9655L37.7323 17.1034C37.8157 17.0388 37.8832 16.9548 37.9295 16.8582C37.9758 16.7617 37.9996 16.6552 37.9989 16.5474C37.9983 16.4397 37.9732 16.3335 37.9258 16.2376C37.8783 16.1416 37.8098 16.0585 37.7257 15.9949L31.9993 11.6657V4.13793C32.1761 4.13793 32.3457 4.06527 32.4707 3.93594C32.5957 3.8066 32.6659 3.63118 32.6659 3.44828V0.689655C32.6659 0.506747 32.5957 0.331331 32.4707 0.201995C32.3457 0.0726599 32.1761 0 31.9993 0H25.333C25.1562 0 24.9867 0.0726599 24.8617 0.201995C24.7366 0.331331 24.6664 0.506747 24.6664 0.689655V3.44828C24.6664 3.63118 24.7366 3.8066 24.8617 3.93594C24.9867 4.06527 25.1562 4.13793 25.333 4.13793V6.62595L20.3933 2.89147C20.2791 2.80516 20.1414 2.75864 20 2.75864C19.8586 2.75864 19.7209 2.80516 19.6067 2.89147L2.27434 15.9949C2.19022 16.0585 2.12168 16.1416 2.07422 16.2376C2.02676 16.3335 2.0017 16.4397 2.00105 16.5474C2.0004 16.6552 2.02418 16.7617 2.07049 16.8582C2.11679 16.9548 2.18433 17.0388 2.26768 17.1034L4.66754 18.9655V31.7241C3.96058 31.725 3.2828 32.0159 2.78291 32.533C2.28301 33.0502 2.00182 33.7514 2.00102 34.4828C2.00102 34.5115 2.00152 34.5405 2.00252 34.5697C1.37363 34.7369 0.825358 35.1359 0.460565 35.6916C0.0957709 36.2474 -0.0604689 36.9217 0.0211596 37.5882C0.102788 38.2546 0.416675 38.8673 0.903927 39.3114C1.39118 39.7554 2.01831 40.0003 2.66765 40H37.3323C37.9817 40.0003 38.6088 39.7554 39.0961 39.3114C39.5833 38.8673 39.8972 38.2546 39.9788 37.5882C40.0605 36.9217 39.9042 36.2474 39.5394 35.6916C39.1746 35.1359 38.6264 34.7369 37.9975 34.5697ZM25.9997 1.37931H31.3327V2.75862H25.9997V1.37931ZM26.6663 7.58621V4.13793H30.6661V10.6578L26.6032 7.58621H26.6663ZM20 4.30241L36.212 16.559L34.6597 17.7634L20.3921 7.02845C20.2782 6.9427 20.1409 6.8965 20 6.8965C19.8591 6.8965 19.7218 6.9427 19.6079 7.02845L5.34025 17.7634L3.78801 16.559L20 4.30241ZM1.3344 37.2414C1.33476 36.8792 1.47262 36.5318 1.71825 36.2738C1.96389 36.0158 2.29766 35.8679 2.64765 35.8621H2.64924C2.68332 35.867 2.7174 35.8712 2.75215 35.8735C2.86262 35.8807 2.97309 35.8594 3.07358 35.8114C3.17408 35.7634 3.26144 35.6903 3.32778 35.5986C3.39411 35.5069 3.43735 35.3996 3.45357 35.2863C3.46979 35.173 3.45849 35.0574 3.42069 34.9497C3.36552 34.8006 3.33627 34.6425 3.33428 34.4828C3.3347 34.1171 3.4753 33.7665 3.72525 33.5079C3.97519 33.2493 4.31407 33.1039 4.66754 33.1034V38.6207H2.66765C2.31418 38.6203 1.9753 38.4748 1.72536 38.2162C1.47542 37.9576 1.33481 37.6071 1.3344 37.2414ZM29.9994 38.6207H21.9999V23.4483H29.9994V38.6207ZM31.3327 38.6207V22.7586C31.3327 22.5757 31.2625 22.4003 31.1374 22.271C31.0124 22.1416 30.8429 22.069 30.6661 22.069H21.3333C21.1565 22.069 20.9869 22.1416 20.8619 22.271C20.7369 22.4003 20.6666 22.5757 20.6666 22.7586V38.6207H6.0008V18.9719L20 8.43897L33.9992 18.9719V38.6207H31.3327ZM37.3323 38.6207H35.3325V33.1034C35.6859 33.1039 36.0248 33.2493 36.2748 33.5079C36.5247 33.7665 36.6653 34.1171 36.6657 34.4828C36.6638 34.6426 36.6345 34.8008 36.5793 34.9501C36.5415 35.0577 36.5302 35.1734 36.5464 35.2867C36.5627 35.3999 36.6059 35.5073 36.6722 35.5989C36.7386 35.6906 36.8259 35.7637 36.9264 35.8117C37.0269 35.8597 37.1374 35.8811 37.2478 35.8739C37.2826 35.8716 37.3167 35.8673 37.3508 35.8624H37.3523C37.7059 35.8652 38.044 36.0131 38.2922 36.2737C38.5403 36.5343 38.6783 36.8863 38.6756 37.2521C38.673 37.6179 38.5299 37.9676 38.278 38.2244C38.0261 38.4811 37.6859 38.6238 37.3323 38.621V38.6207Z" fill="#16191E"/>
<path d="M17.3317 22.0703H9.33216C9.15536 22.0703 8.9858 22.143 8.86078 22.2723C8.73576 22.4016 8.66553 22.5771 8.66553 22.76V32.4151C8.66553 32.598 8.73576 32.7735 8.86078 32.9028C8.9858 33.0321 9.15536 33.1048 9.33216 33.1048H17.3317C17.5085 33.1048 17.6781 33.0321 17.8031 32.9028C17.9281 32.7735 17.9983 32.598 17.9983 32.4151V22.76C17.9983 22.5771 17.9281 22.4016 17.8031 22.2723C17.6781 22.143 17.5085 22.0703 17.3317 22.0703ZM16.6651 26.8979H13.9986V23.4496H16.6651V26.8979ZM12.6653 23.4496V26.8979H9.99878V23.4496H12.6653ZM9.99878 28.2772H12.6653V31.7255H9.99878V28.2772ZM13.9986 31.7255V28.2772H16.6651V31.7255H13.9986Z" fill="#16191E"/>
<path d="M24.6182 30.6087C24.7591 30.2568 24.5976 29.8534 24.2574 29.7076C23.9173 29.5619 23.5273 29.729 23.3865 30.0809C23.2456 30.4328 23.4071 30.8362 23.7472 30.9819C24.0874 31.1277 24.4773 30.9606 24.6182 30.6087Z" fill="#16191E"/>
</g>
</svg>
