<svg width="36" height="36" viewBox="0 0 36 36" fill="none" xmlns="http://www.w3.org/2000/svg">
<g clip-path="url(#clip0_1774_16)">
<path d="M34.4695 0.901367H9.3234C8.4786 0.902352 7.79401 1.58694 7.79303 2.43174V9.36767L6.64314 7.64283C6.11679 6.84888 5.05825 6.61067 4.24257 7.1027L1.87681 8.52505C1.10207 8.97964 0.533727 9.71686 0.291228 10.5818C-0.571789 13.7242 0.0685645 19.1381 8.01513 27.0859C14.3346 33.3988 19.0464 35.099 22.2938 35.099C23.0456 35.1025 23.7945 35.0048 24.5203 34.8086C25.3849 34.5661 26.1221 33.9986 26.5776 33.2248L27.9981 30.8566C28.4882 30.0415 28.2502 28.9852 27.458 28.459L21.7932 24.6828C21.0162 24.1689 19.9746 24.3379 19.3998 25.0711L17.7506 27.1914C17.6672 27.3012 17.5471 27.3773 17.4122 27.4058C17.2774 27.4343 17.1367 27.4134 17.016 27.3469L16.7021 27.174C15.6693 26.6111 14.3838 25.9101 11.7875 23.3139C11.526 23.0522 11.268 22.7871 11.0134 22.5186H34.4695C35.3122 22.5193 35.9966 21.8381 35.9999 20.9954V2.43174C35.9989 1.58694 35.3144 0.902352 34.4695 0.901367ZM16.1278 28.2279L16.4327 28.3954C17.1991 28.8239 18.1638 28.6251 18.6982 27.9285L20.3475 25.8082C20.4379 25.693 20.5683 25.616 20.7128 25.5926C20.8574 25.5691 21.0054 25.6009 21.1276 25.6815L26.7924 29.4577C26.9163 29.5402 27.0037 29.6673 27.0364 29.8126C27.0691 29.9578 27.0447 30.1101 26.9682 30.2378L25.5477 32.606C25.2511 33.1147 24.7691 33.4889 24.2028 33.6503C21.3659 34.4305 16.4009 33.7704 8.86542 26.2343C1.32993 18.6983 0.672275 13.7337 1.45061 10.8992C1.61186 10.333 1.98581 9.85112 2.49424 9.55432L4.86245 8.13317C4.99023 8.05683 5.14246 8.0325 5.28766 8.06523C5.43287 8.09795 5.55995 8.18522 5.64262 8.30899L9.42053 13.9738C9.50134 14.0959 9.53317 14.2441 9.5097 14.3886C9.48623 14.5332 9.40917 14.6636 9.29387 14.7539L7.17293 16.4037C6.47645 16.938 6.27756 17.9025 6.70601 18.6687L6.87403 18.9736C7.47415 20.0743 8.22014 21.4438 10.9394 24.1625C13.6588 26.8812 15.0278 27.6278 16.1278 28.2279ZM34.7997 20.9955C34.7987 21.0822 34.7635 21.165 34.7016 21.2257C34.6397 21.2865 34.5563 21.3202 34.4696 21.3196H9.9307C9.15124 20.4282 8.47908 19.4485 7.92799 18.4005L7.75512 18.0854C7.68844 17.965 7.66739 17.8245 7.69584 17.6898C7.72428 17.5551 7.80031 17.4352 7.90999 17.352L10.0309 15.7022C10.7645 15.1276 10.9335 14.0859 10.4192 13.3088L8.99328 11.1687V2.43174C8.9928 2.38827 9.001 2.34513 9.01742 2.30487C9.03384 2.26461 9.05813 2.22803 9.08888 2.19729C9.11962 2.16654 9.1562 2.14225 9.19646 2.12583C9.23672 2.10941 9.27986 2.10121 9.32333 2.10169H34.4695C34.513 2.10121 34.5562 2.10941 34.5964 2.12583C34.6367 2.14225 34.6733 2.16654 34.704 2.19729C34.7347 2.22803 34.759 2.26461 34.7755 2.30487C34.7919 2.34513 34.8001 2.38827 34.7996 2.43174V20.9955H34.7997Z" fill="#16191E"/>
<path d="M32.4025 3.68013L22.3722 11.287C22.2338 11.3875 22.0672 11.4416 21.8962 11.4416C21.7253 11.4416 21.5587 11.3875 21.4203 11.287L11.3938 3.68013C11.331 3.63248 11.2594 3.59768 11.1831 3.5777C11.1068 3.55772 11.0274 3.55296 10.9493 3.56369C10.8712 3.57442 10.796 3.60043 10.7279 3.64024C10.6599 3.68004 10.6003 3.73286 10.5527 3.79568C10.505 3.85849 10.4702 3.93007 10.4503 4.00633C10.4303 4.0826 10.4255 4.16205 10.4363 4.24015C10.447 4.31825 10.473 4.39348 10.5128 4.46153C10.5526 4.52958 10.6054 4.58912 10.6682 4.63675L20.6961 12.243C21.0436 12.4997 21.4643 12.6383 21.8964 12.6383C22.3284 12.6383 22.7491 12.4997 23.0966 12.243L33.1275 4.63675C33.1904 4.58912 33.2432 4.52956 33.2831 4.46147C33.3229 4.39339 33.3489 4.31812 33.3596 4.23997C33.3703 4.16182 33.3655 4.08233 33.3454 4.00604C33.3254 3.92976 33.2904 3.85818 33.2427 3.7954C33.1465 3.66877 33.004 3.58551 32.8464 3.56389C32.6889 3.54228 32.5292 3.58409 32.4025 3.68013ZM16.7746 12.2934L10.6267 18.8771C10.5205 18.9939 10.4646 19.1479 10.4711 19.3056C10.4776 19.4634 10.546 19.6123 10.6615 19.72C10.777 19.8276 10.9302 19.8855 11.0881 19.8809C11.2459 19.8764 11.3956 19.8098 11.5047 19.6957L17.6527 13.1091C17.7502 12.991 17.7988 12.8401 17.7887 12.6873C17.7786 12.5346 17.7105 12.3914 17.5983 12.2872C17.4861 12.183 17.3384 12.1256 17.1852 12.1267C17.0321 12.1279 16.8852 12.1875 16.7746 12.2934ZM27.0576 12.2934C27.0039 12.2358 26.9393 12.1893 26.8676 12.1566C26.7958 12.1239 26.7184 12.1056 26.6396 12.1029C26.5608 12.1001 26.4823 12.1129 26.4084 12.1405C26.3346 12.1681 26.2669 12.21 26.2093 12.2637C26.1516 12.3175 26.1051 12.3821 26.0724 12.4538C26.0398 12.5255 26.0215 12.603 26.0188 12.6818C26.016 12.7605 26.0288 12.8391 26.0564 12.9129C26.084 12.9867 26.1259 13.0544 26.1796 13.1121L32.3257 19.6957C32.3795 19.7534 32.4441 19.7999 32.5158 19.8326C32.5875 19.8652 32.665 19.8835 32.7437 19.8862C32.8225 19.889 32.9011 19.8762 32.9749 19.8486C33.0487 19.821 33.1164 19.7791 33.1741 19.7254C33.2317 19.6716 33.2782 19.607 33.3109 19.5353C33.3436 19.4636 33.3618 19.3861 33.3646 19.3074C33.3674 19.2286 33.3546 19.1501 33.327 19.0762C33.2994 19.0024 33.2575 18.9347 33.2037 18.8771L27.0576 12.2934Z" fill="#16191E"/>
</g>
<defs>
<clipPath id="clip0_1774_16">
<rect width="36" height="36" fill="white"/>
</clipPath>
</defs>
</svg>
