<svg width="36" height="36" viewBox="0 0 36 36" fill="none" xmlns="http://www.w3.org/2000/svg">
<mask id="mask0_920_67" style="mask-type:alpha" maskUnits="userSpaceOnUse" x="0" y="0" width="36" height="36">
<rect width="36" height="36" fill="#D9D9D9"/>
</mask>
<g mask="url(#mask0_920_67)">
<path d="M22.8009 0.598587V2.383L19.5465 0.11564C19.4458 0.0451046 19.3258 0.00726672 19.2029 0.00726672C19.0799 0.00726672 18.96 0.0451046 18.8593 0.11564L7.20453 8.22825C7.07496 8.31926 6.98655 8.45772 6.95852 8.61354C6.9305 8.76935 6.96511 8.92993 7.05484 9.06037L8.5063 11.1509C8.69681 11.423 9.07328 11.491 9.34543 11.3005L10.8014 10.2847V17.4043C10.8014 18.2046 12.0034 18.2046 12.0034 17.4043V9.45036L19.1995 4.43949L26.4023 9.45036V17.4043C26.4023 18.2046 27.6021 18.2046 27.6021 17.4043V10.2825L29.0603 11.2983C29.3325 11.4864 29.7044 11.4207 29.8926 11.1486L31.3509 9.0581C31.4404 8.92739 31.4747 8.76662 31.4462 8.61078C31.4177 8.45494 31.3289 8.31665 31.1989 8.22598L27.6021 5.72509V0.598587C27.6018 0.519682 27.5859 0.441608 27.5554 0.368824C27.525 0.296039 27.4804 0.229968 27.4244 0.174385C27.3684 0.118801 27.302 0.0747927 27.229 0.0448725C27.1559 0.0149522 27.0777 -0.000294022 26.9988 4.29452e-06H23.3724C23.2188 0.00809741 23.074 0.074579 22.9678 0.185849C22.8615 0.297118 22.8018 0.444766 22.8009 0.598587ZM24.0029 1.1949H26.4023V4.8907L24.0006 3.21739L24.0029 1.1949ZM19.204 1.34228L30.0219 8.86991L29.2554 9.97185L19.5465 3.21512C19.4458 3.14458 19.3258 3.10675 19.2029 3.10675C19.0799 3.10675 18.96 3.14458 18.8593 3.21512L9.15039 9.97185L8.38384 8.86991L19.204 1.34228ZM16.2013 10.804C16.0423 10.8046 15.89 10.8681 15.7778 10.9808C15.6656 11.0934 15.6026 11.2459 15.6026 11.4048V17.402C15.5255 18.2726 16.8771 18.2726 16.7978 17.402V12.0057H21.6012V17.402C21.6012 18.2046 22.8032 18.2046 22.8032 17.402V11.4094C22.8032 11.3305 22.7876 11.2523 22.7574 11.1794C22.7272 11.1065 22.6829 11.0403 22.6271 10.9845C22.5713 10.9287 22.5051 10.8844 22.4322 10.8542C22.3592 10.824 22.2811 10.8085 22.2022 10.8085L16.2013 10.804ZM33.2151 15.1233C32.4871 15.1233 31.7591 15.3999 31.2058 15.9509L27.6882 19.4698C27.0986 20.0367 27.9695 20.9073 28.5364 20.3178L32.0539 16.8011C32.2053 16.6467 32.386 16.5241 32.5854 16.4404C32.7848 16.3566 32.9989 16.3135 33.2151 16.3135C33.4314 16.3135 33.6455 16.3566 33.8448 16.4404C34.0442 16.5241 34.2249 16.6467 34.3763 16.8011C34.5226 16.9402 34.6363 17.1099 34.7092 17.298C34.7821 17.4862 34.8125 17.6882 34.7981 17.8895C34.7822 18.2999 34.6121 18.7737 34.3105 19.2C33.163 20.8257 30.5934 24.5419 29.2191 26.5326C28.1645 28.0586 26.8877 28.8 25.2026 28.8H15.0016C13.9085 28.8 13.1714 29.2739 12.6135 29.7659L4.62138 21.778C4.56595 21.7223 4.50005 21.678 4.42746 21.6478C4.35487 21.6177 4.27703 21.6021 4.19842 21.6021C4.1198 21.6021 4.04196 21.6177 3.96938 21.6478C3.89679 21.678 3.83089 21.7223 3.77546 21.778L0.176292 25.3786C0.120405 25.4344 0.0760693 25.5006 0.0458197 25.5736C0.01557 25.6465 0 25.7247 0 25.8037C0 25.8827 0.01557 25.9608 0.0458197 26.0338C0.0760693 26.1067 0.120405 26.173 0.176292 26.2288L9.7786 35.8265C10.0122 36.0578 10.3909 36.0578 10.6245 35.8265L14.226 32.226C14.3374 32.1135 14.4 31.9615 14.4 31.8031C14.4 31.6447 14.3374 31.4928 14.226 31.3803L13.4549 30.6094C13.6558 30.4057 13.8974 30.2465 14.1638 30.1422C14.4303 30.038 14.7157 29.9908 15.0016 30.004H25.2026C27.2641 30.004 28.9855 28.9837 30.2056 27.2151C31.58 25.2266 34.1518 21.5059 35.2902 19.8915C35.703 19.3066 35.9706 18.6309 35.9978 17.9325C36.0126 17.5671 35.9516 17.2026 35.8185 16.8619C35.6854 16.5212 35.4831 16.2118 35.2245 15.9531C34.9605 15.6898 34.6471 15.4812 34.3023 15.3392C33.9575 15.1972 33.588 15.1223 33.2151 15.1233ZM11.4001 19.2045C9.15946 19.2045 7.7715 20.2294 6.68291 21.2769C6.10006 21.8301 6.93918 22.7031 7.5175 22.1408C8.53805 21.159 9.50418 20.404 11.4001 20.404H24.0006C25.0098 20.404 25.8013 21.1975 25.8013 22.202C25.8013 23.2064 25.0076 24.0023 24.0006 24.0023H17.401C16.5891 23.9909 16.5891 25.213 17.401 25.204H24.0006C25.6539 25.204 27.0011 23.8549 27.0011 22.202C27.0011 20.5491 25.6539 19.2023 24.0006 19.2023L11.4001 19.2045ZM4.20182 23.0522L12.9559 31.8043L10.205 34.5523L1.45085 25.8003L4.20182 23.0522Z" fill="#16191E"/>
</g>
</svg>
