<svg width="36" height="36" viewBox="0 0 36 36" fill="none" xmlns="http://www.w3.org/2000/svg">
<g clip-path="url(#clip0_835_2366)">
<path d="M16.0961 33.5341H5.18187C5.11118 33.5341 5.04118 33.5202 4.97586 33.4931C4.91055 33.4661 4.85121 33.4264 4.80122 33.3764C4.75124 33.3264 4.71158 33.2671 4.68453 33.2018C4.65748 33.1365 4.64355 33.0665 4.64355 32.9958V16.1888C4.64355 16.0461 4.70027 15.9092 4.80122 15.8082C4.90218 15.7072 5.0391 15.6505 5.18187 15.6505C5.32464 15.6505 5.46156 15.7072 5.56251 15.8082C5.66346 15.9092 5.72018 16.0461 5.72018 16.1888V32.4575H16.0961C16.2388 32.4575 16.3757 32.5142 16.4767 32.6151C16.5777 32.7161 16.6344 32.853 16.6344 32.9958C16.6344 33.1386 16.5777 33.2755 16.4767 33.3764C16.3757 33.4774 16.2388 33.5341 16.0961 33.5341ZM30.8201 33.5341H19.9059C19.7631 33.5341 19.6262 33.4774 19.5252 33.3764C19.4243 33.2755 19.3676 33.1386 19.3676 32.9958C19.3676 32.853 19.4243 32.7161 19.5252 32.6151C19.6262 32.5142 19.7631 32.4575 19.9059 32.4575H30.2823V16.0915C30.2823 15.9488 30.339 15.8118 30.44 15.7109C30.5409 15.6099 30.6778 15.5532 30.8206 15.5532C30.9634 15.5532 31.1003 15.6099 31.2013 15.7109C31.3022 15.8118 31.3589 15.9488 31.3589 16.0915V32.9958C31.3588 33.1386 31.3019 33.2755 31.2009 33.3765C31.0999 33.4774 30.9629 33.5341 30.8201 33.5341Z" fill="#16191E"/>
<path d="M33.9359 19.2106C33.6963 19.2113 33.4589 19.1645 33.2376 19.0728C33.0162 18.9812 32.8151 18.8466 32.6461 18.6768L18.3271 4.35778L3.32466 18.7049C2.62041 19.3782 1.41947 19.3512 0.746161 18.647C0.412337 18.2971 0.230908 17.8291 0.241663 17.3456C0.252419 16.8621 0.454482 16.4026 0.803536 16.0679L17.0952 0.488903C17.7888 -0.174284 18.9689 -0.160222 19.6456 0.517591L35.2252 16.0972C35.57 16.4414 35.7595 16.8993 35.7595 17.387C35.7602 17.6266 35.7133 17.864 35.6216 18.0854C35.5299 18.3068 35.3951 18.5078 35.2252 18.6768C35.0561 18.8464 34.8552 18.9809 34.6339 19.0726C34.4126 19.1642 34.1754 19.2111 33.9359 19.2106ZM18.3355 3.0674C18.4062 3.06722 18.4762 3.08104 18.5414 3.10808C18.6067 3.13511 18.666 3.17482 18.7158 3.2249L33.4072 17.9152C33.6895 18.197 34.1806 18.197 34.4641 17.9152C34.6053 17.774 34.6835 17.5861 34.6835 17.3864C34.6835 17.1867 34.6059 16.9988 34.4641 16.8577L18.8845 1.27809C18.6061 0.999653 18.1235 0.994028 17.84 1.26628L1.54716 16.8458C1.40414 16.983 1.32135 17.1713 1.31692 17.3694C1.31249 17.5675 1.38679 17.7593 1.52354 17.9028C1.79972 18.1925 2.29191 18.2032 2.58047 17.927L17.9637 3.21647C18.0636 3.12035 18.1969 3.06688 18.3355 3.0674Z" fill="#16191E"/>
<path d="M5.18284 13.162C5.04007 13.162 4.90315 13.1053 4.8022 13.0044C4.70125 12.9034 4.64453 12.7665 4.64453 12.6237V4.4973C4.64453 4.19973 4.88528 3.95898 5.18284 3.95898H8.89647C9.19347 3.95898 9.43478 4.19973 9.43478 4.4973V9.07042C9.43478 9.36798 9.19403 9.61042 8.89647 9.61042C8.82593 9.61072 8.75603 9.59709 8.69077 9.57032C8.6255 9.54355 8.56617 9.50416 8.51616 9.45441C8.46615 9.40466 8.42645 9.34553 8.39934 9.28041C8.37222 9.21529 8.35823 9.14546 8.35816 9.07492V5.03561H5.72116V12.6243C5.72101 12.767 5.66423 12.9037 5.56329 13.0046C5.46235 13.1054 5.32552 13.162 5.18284 13.162ZM5.18284 16.7244C5.11231 16.7247 5.0424 16.711 4.97714 16.6843C4.91188 16.6575 4.85254 16.6181 4.80253 16.5683C4.75253 16.5186 4.71283 16.4595 4.68571 16.3944C4.6586 16.3292 4.6446 16.2594 4.64453 16.1889V16.1838C4.64453 16.1131 4.65846 16.0431 4.68551 15.9778C4.71256 15.9125 4.75221 15.8531 4.8022 15.8032C4.85219 15.7532 4.91153 15.7135 4.97684 15.6865C5.04215 15.6594 5.11215 15.6455 5.18284 15.6455C5.25354 15.6455 5.32354 15.6594 5.38885 15.6865C5.45416 15.7135 5.5135 15.7532 5.56349 15.8032C5.61348 15.8531 5.65313 15.9125 5.68018 15.9778C5.70723 16.0431 5.72116 16.1131 5.72116 16.1838C5.72131 16.3268 5.66471 16.4641 5.56379 16.5654C5.46287 16.6667 5.32587 16.7239 5.18284 16.7244ZM18 28.898C16.0712 28.898 14.5023 27.3286 14.5023 25.3998C14.5023 23.471 16.0712 21.9016 18 21.9016C19.9288 21.9016 21.4982 23.471 21.4982 25.3998C21.4982 27.3286 19.9288 28.898 18 28.898ZM18 22.9782C16.6646 22.9782 15.5784 24.0644 15.5784 25.3998C15.5784 26.7352 16.6646 27.8214 18 27.8214C19.3353 27.8214 20.4215 26.7352 20.4215 25.3998C20.4209 24.7577 20.1656 24.1422 19.7116 23.6882C19.2576 23.2341 18.642 22.9788 18 22.9782Z" fill="#16191E"/>
<path d="M17.9995 36C17.9208 36.0001 17.843 35.9829 17.7718 35.9495C17.7005 35.9162 17.6375 35.8675 17.5871 35.807C17.347 35.5202 11.7051 28.7359 11.7051 25.3997C11.7051 21.929 14.5288 19.1047 18 19.1047C21.4712 19.1047 24.295 21.9285 24.295 25.3997C24.295 28.7359 18.6531 35.5202 18.4129 35.807C18.3622 35.8674 18.299 35.916 18.2275 35.9493C18.1561 35.9827 18.0783 35.9999 17.9995 36ZM17.9995 20.1814C15.1223 20.1814 12.7811 22.5225 12.7811 25.3997C12.7811 27.653 16.2315 32.4124 17.9995 34.6117C19.7674 32.4124 23.2178 27.653 23.2178 25.3997C23.2178 22.5225 20.8772 20.1814 17.9995 20.1814Z" fill="#16191E"/>
</g>
<defs>
<clipPath id="clip0_835_2366">
<rect width="36" height="36" fill="white"/>
</clipPath>
</defs>
</svg>
