<svg width="14" height="14" viewBox="0 0 14 14" fill="none" xmlns="http://www.w3.org/2000/svg">
<mask id="mask0_899_220" style="mask-type:alpha" maskUnits="userSpaceOnUse" x="0" y="0" width="14" height="14">
<rect width="14" height="14" fill="#D9D9D9"/>
</mask>
<g mask="url(#mask0_899_220)">
<path d="M14 2.54815C13.4794 2.78238 12.9246 2.93763 12.3462 3.01302C12.9412 2.64866 13.3954 2.07609 13.6089 1.38597C13.0541 1.7252 12.4416 1.96481 11.7889 2.09853C11.2621 1.52327 10.5114 1.16699 9.69238 1.16699C8.10337 1.16699 6.82412 2.48981 6.82412 4.11148C6.82412 4.34481 6.84338 4.56917 6.89062 4.78276C4.5045 4.6634 2.39313 3.49045 0.97475 1.70366C0.727125 2.1443 0.581875 2.64866 0.581875 3.19161C0.581875 4.21109 1.09375 5.11481 1.85675 5.63802C1.39562 5.62904 0.94325 5.49174 0.56 5.27545C0.56 5.28443 0.56 5.29609 0.56 5.30776C0.56 6.73827 1.55487 7.92648 2.8595 8.2002C2.62587 8.26571 2.37125 8.29712 2.107 8.29712C1.92325 8.29712 1.73775 8.28635 1.56362 8.24686C1.9355 9.41263 2.99075 10.2697 4.2455 10.2975C3.269 11.081 2.02912 11.553 0.686875 11.553C0.4515 11.553 0.22575 11.5422 0 11.5126C1.27137 12.3535 2.77813 12.8337 4.403 12.8337C9.6845 12.8337 12.572 8.34648 12.572 4.45699C12.572 4.32686 12.5676 4.20122 12.5615 4.07648C13.1311 3.66186 13.6097 3.14404 14 2.54815Z" fill="#03A9F4"/>
</g>
</svg>
