<svg width="36" height="36" viewBox="0 0 36 36" fill="none" xmlns="http://www.w3.org/2000/svg">
<mask id="mask0_920_35" style="mask-type:alpha" maskUnits="userSpaceOnUse" x="0" y="0" width="36" height="36">
<rect width="36" height="36" fill="#D9D9D9"/>
</mask>
<g mask="url(#mask0_920_35)">
<path d="M7.06991 35H28.9317C29.784 34.999 30.6012 34.6648 31.2039 34.0707C31.8066 33.4766 32.1456 32.6711 32.1466 31.8309V13.724L34.9662 15.9214C35.0794 16.0098 35.2197 16.0578 35.3642 16.0577C35.4966 16.0554 35.6251 16.013 35.7324 15.9364C35.8397 15.8598 35.9205 15.7526 35.9641 15.6293C36.0076 15.506 36.0117 15.3724 35.9758 15.2468C35.9399 15.1211 35.8658 15.0092 35.7635 14.9264L20.1053 2.72346C19.508 2.25503 18.7673 2 18.004 2C17.2407 2 16.5 2.25503 15.9027 2.72346L0.244541 14.9264C0.110673 15.0306 0.0242888 15.1829 0.0043923 15.35C-0.0155042 15.517 0.0327167 15.6849 0.138447 15.8169C0.244177 15.9488 0.398755 16.034 0.568177 16.0536C0.737598 16.0732 0.907984 16.0257 1.04185 15.9214L3.85495 13.7284V31.8309C3.85597 32.6711 4.19501 33.4766 4.79772 34.0707C5.40042 34.6648 6.21756 34.999 7.06991 35ZM16.7007 3.71792C17.0712 3.42751 17.5306 3.26941 18.004 3.26941C18.4774 3.26941 18.9368 3.42751 19.3074 3.71792L30.8607 12.7219V31.8315C30.8601 32.3357 30.6567 32.819 30.2951 33.1755C29.9335 33.532 29.4431 33.7325 28.9317 33.733H7.06991C6.55847 33.7325 6.06812 33.532 5.70648 33.1755C5.34484 32.819 5.14144 32.3357 5.14093 31.8315V12.7257L16.7007 3.71792Z" fill="#16191E"/>
<path d="M14.6572 31.019H21.3507C25.6639 30.9487 27.4707 25.1879 25.6716 21.7272C24.5712 19.4693 23.2213 17.3379 21.6465 15.3719L22.4888 12.4773C22.5394 12.2939 22.5394 12.1005 22.4888 11.9171C22.4382 11.7336 22.3389 11.5668 22.2011 11.4339C22.0633 11.301 21.8919 11.2067 21.7048 11.1608C21.5177 11.1149 21.3215 11.1191 21.1366 11.1729C19.6783 11.6622 17.9776 12.1997 16.4614 11.6565L14.8713 11.1723C14.686 11.1158 14.4887 11.1098 14.3003 11.1548C14.1118 11.1999 13.9392 11.2943 13.8007 11.428C13.6622 11.5618 13.563 11.73 13.5135 11.9148C13.4641 12.0997 13.4662 12.2942 13.5197 12.4779L14.362 15.3719C12.7868 17.3379 11.4364 19.4692 10.3356 21.7272C8.53715 25.1853 10.344 30.9512 14.6572 31.019ZM16.082 12.8677C17.7461 13.4331 19.5349 13.0693 21.145 12.4969L20.4518 14.8801H15.5561L14.8629 12.4969L16.082 12.8677ZM11.5013 22.2634C12.5658 20.0926 13.866 18.0421 15.3792 16.1477H20.6286C22.1418 18.0421 23.4421 20.0926 24.5065 22.2634C25.8928 24.9236 24.7123 29.6189 21.3507 29.7514H14.6572C11.2949 29.6176 10.1157 24.9248 11.5013 22.2634Z" fill="#16191E"/>
<path d="M18.0033 25.4859C17.7476 25.4856 17.5024 25.3853 17.3216 25.2071C17.1408 25.0289 17.0391 24.7872 17.0388 24.5352C17.0388 24.3671 16.971 24.2059 16.8504 24.087C16.7299 23.9682 16.5663 23.9014 16.3958 23.9014C16.2252 23.9014 16.0617 23.9682 15.9411 24.087C15.8205 24.2059 15.7528 24.3671 15.7528 24.5352C15.7547 25.0111 15.912 25.4738 16.2016 25.8546C16.4911 26.2355 16.8974 26.5142 17.3603 26.6496C17.2047 27.8418 18.7999 27.8475 18.6462 26.6496C19.1637 26.4984 19.6086 26.1683 19.8992 25.72C20.1899 25.2717 20.3069 24.7351 20.2287 24.2087C20.1506 23.6822 19.8826 23.2012 19.4739 22.8537C19.0651 22.5062 18.543 22.3156 18.0033 22.3168C17.8125 22.3168 17.626 22.2611 17.4674 22.1566C17.3088 22.0521 17.1852 21.9037 17.1122 21.7299C17.0392 21.5562 17.0201 21.365 17.0573 21.1806C17.0945 20.9962 17.1864 20.8268 17.3213 20.6938C17.4561 20.5609 17.628 20.4703 17.8151 20.4336C18.0022 20.397 18.1961 20.4158 18.3723 20.4877C18.5486 20.5597 18.6992 20.6816 18.8052 20.8379C18.9112 20.9943 18.9677 21.1781 18.9677 21.3661C18.9677 21.5342 19.0355 21.6954 19.1561 21.8143C19.2767 21.9331 19.4402 21.9999 19.6107 21.9999C19.7813 21.9999 19.9448 21.9331 20.0654 21.8143C20.186 21.6954 20.2537 21.5342 20.2537 21.3661C20.252 20.8901 20.0947 20.4273 19.8051 20.0463C19.5156 19.6653 19.1092 19.3865 18.6462 19.2511V18.9893C18.6462 18.8212 18.5785 18.66 18.4579 18.5411C18.3373 18.4222 18.1738 18.3555 18.0033 18.3555C17.8327 18.3555 17.6692 18.4222 17.5486 18.5411C17.428 18.66 17.3603 18.8212 17.3603 18.9893V19.2511C16.8423 19.4019 16.3968 19.7318 16.1057 20.1803C15.8146 20.6288 15.6974 21.1658 15.7756 21.6926C15.8538 22.2194 16.1221 22.7008 16.5313 23.0483C16.9405 23.3958 17.4631 23.5862 18.0033 23.5845C18.2591 23.5845 18.5044 23.6846 18.6853 23.8629C18.8661 24.0412 18.9677 24.283 18.9677 24.5352C18.9677 24.7873 18.8661 25.0292 18.6853 25.2075C18.5044 25.3858 18.2591 25.4859 18.0033 25.4859Z" fill="#16191E"/>
</g>
</svg>
