<svg width="14" height="14" viewBox="0 0 14 14" fill="none" xmlns="http://www.w3.org/2000/svg">
<mask id="mask0_896_211" style="mask-type:alpha" maskUnits="userSpaceOnUse" x="0" y="0" width="14" height="14">
<rect width="14" height="14" fill="#D9D9D9"/>
</mask>
<g mask="url(#mask0_896_211)">
<path d="M5.45231 7.90415C5.40149 7.90415 4.33542 7.9045 3.84374 7.90398C3.59062 7.9038 3.50031 7.80545 3.50031 7.53C3.49998 6.82248 3.49982 6.11495 3.50031 5.40743C3.50047 5.13548 3.59596 5.0317 3.84584 5.03153C4.33753 5.03118 5.39777 5.03135 5.45231 5.03135C5.45231 4.98288 5.45215 3.96141 5.45231 3.49101C5.45264 2.79556 5.56738 2.12986 5.89415 1.52033C6.22868 0.896457 6.71551 0.469108 7.33942 0.222008C7.73901 0.0636329 8.15382 0.000457983 8.57785 0.000107983C9.10838 -0.000242016 9.63891 0.000282978 10.1696 0.00133298C10.3976 0.00168298 10.4988 0.110708 10.4993 0.359033C10.5002 1.02456 10.5002 1.69008 10.4993 2.35543C10.4989 2.60638 10.402 2.70718 10.1688 2.70998C9.73391 2.71506 9.29871 2.71191 8.86432 2.73081C8.42556 2.73081 8.19477 2.96251 8.19477 3.45356C8.18425 3.97295 8.1904 4.49288 8.1904 5.03118C8.23151 5.03118 9.48014 5.031 10.0637 5.03118C10.3288 5.03118 10.4195 5.1297 10.4195 5.41793C10.4195 6.1216 10.4193 6.82545 10.4188 7.52913C10.4187 7.81315 10.3335 7.9038 10.0668 7.90398C9.48321 7.90433 8.23944 7.90415 8.18506 7.90415V13.5995C8.18506 13.9031 8.09669 13.9999 7.81961 13.9999C7.14407 13.9999 6.46837 14.0001 5.79283 13.9999C5.54796 13.9999 5.45247 13.897 5.45247 13.6322C5.45231 11.7774 5.45231 7.96925 5.45231 7.90415Z" fill="#3D6AD6"/>
</g>
</svg>
