<svg width="21" height="21" viewBox="0 0 21 21" fill="none" xmlns="http://www.w3.org/2000/svg">
<path d="M10.4997 9.16382C12.6837 6.96801 18.145 10.8097 10.4997 15.7499C2.85435 10.8097 8.31566 6.96801 10.4997 9.16382Z" fill="#16191E"/>
<path d="M11.4283 1.96875C11.1822 1.7227 10.8484 1.58447 10.5004 1.58447C10.1523 1.58447 9.81856 1.7227 9.57243 1.96875L0.84824 10.6916C0.725188 10.8149 0.656127 10.9819 0.65625 11.1561C0.656373 11.3302 0.72567 11.4972 0.848896 11.6202C0.972123 11.7433 1.13918 11.8123 1.31333 11.8122C1.48747 11.8121 1.65444 11.7428 1.77749 11.6196L2.62537 10.7717V17.7188C2.62537 18.2409 2.83279 18.7417 3.202 19.1109C3.57121 19.4801 4.07197 19.6875 4.59412 19.6875H16.4066C16.9288 19.6875 17.4295 19.4801 17.7987 19.1109C18.1679 18.7417 18.3754 18.2409 18.3754 17.7188V10.7717L19.2232 11.6196C19.3463 11.7428 19.5133 11.8121 19.6874 11.8122C19.8615 11.8123 20.0286 11.7433 20.1518 11.6202C20.2751 11.4972 20.3444 11.3302 20.3445 11.1561C20.3446 10.9819 20.2755 10.8149 20.1525 10.6916L17.0629 7.60332V3.28125C17.0629 3.10721 16.9937 2.94029 16.8707 2.81722C16.7476 2.69415 16.5807 2.625 16.4066 2.625H15.0941C14.9201 2.625 14.7531 2.69415 14.6301 2.81722C14.507 2.94029 14.4379 3.10721 14.4379 3.28125V4.97832L11.4283 1.96875ZM17.0629 9.45919V17.7188C17.0629 17.8928 16.9937 18.0597 16.8707 18.1828C16.7476 18.3059 16.5807 18.375 16.4066 18.375H4.59412C4.42007 18.375 4.25315 18.3059 4.13008 18.1828C4.00701 18.0597 3.93787 17.8928 3.93787 17.7188V9.45919L10.5004 2.89669L17.0629 9.45919Z" fill="#16191E"/>
</svg>
