<svg width="36" height="36" viewBox="0 0 36 36" fill="none" xmlns="http://www.w3.org/2000/svg">
<mask id="mask0_920_52" style="mask-type:alpha" maskUnits="userSpaceOnUse" x="0" y="0" width="36" height="36">
<rect width="36" height="36" fill="#D9D9D9"/>
</mask>
<g mask="url(#mask0_920_52)">
<path d="M35.4865 11.8458L18.7003 0.217767C18.495 0.0759561 18.2514 0 18.0019 0C17.7524 0 17.5088 0.0759561 17.3035 0.217767L12.0007 3.88977V3.59817C12.0007 3.12078 11.8111 2.66294 11.4735 2.32538C11.136 1.98781 10.6781 1.79817 10.2007 1.79817H8.40073C7.92334 1.79817 7.4655 1.98781 7.12794 2.32538C6.79037 2.66294 6.60073 3.12078 6.60073 3.59817V7.63077L0.514929 11.8464C0.3856 11.9357 0.275203 12.0498 0.190081 12.182C0.104959 12.3141 0.0467892 12.4618 0.0189125 12.6165C-0.00896409 12.7712 -0.00599791 12.9299 0.0276407 13.0835C0.0612793 13.2371 0.124927 13.3825 0.214929 13.5114L0.979929 14.6088C1.16796 14.8774 1.4546 15.0608 1.7773 15.1189C2.10001 15.177 2.4326 15.1051 2.70253 14.919L3.00253 14.7132V32.9982C3.00348 33.7935 3.31986 34.556 3.88226 35.1184C4.44466 35.6808 5.20717 35.9972 6.00253 35.9982H30.0007C30.7961 35.9972 31.5586 35.6808 32.121 35.1184C32.6834 34.556 32.9998 33.7935 33.0007 32.9982V14.7132L33.3007 14.919C33.5706 15.1053 33.9032 15.1772 34.226 15.1191C34.5487 15.061 34.8354 14.8775 35.0233 14.6088L35.7889 13.5108C35.8788 13.3818 35.9423 13.2364 35.9758 13.0829C36.0094 12.9293 36.0123 12.7707 35.9845 12.616C35.9566 12.4613 35.8985 12.3137 35.8134 12.1815C35.7284 12.0493 35.6181 11.9352 35.4889 11.8458H35.4865ZM7.80073 3.59817C7.80073 3.43904 7.86394 3.28643 7.97646 3.1739C8.08899 3.06138 8.2416 2.99817 8.40073 2.99817H10.2007C10.3599 2.99817 10.5125 3.06138 10.625 3.1739C10.7375 3.28643 10.8007 3.43904 10.8007 3.59817V4.72137L7.80073 6.79917V3.59817ZM31.8007 32.9982C31.8007 33.4756 31.6111 33.9334 31.2735 34.271C30.936 34.6085 30.4781 34.7982 30.0007 34.7982H6.00073C5.52334 34.7982 5.0655 34.6085 4.72794 34.271C4.39037 33.9334 4.20073 33.4756 4.20073 32.9982V13.884L18.0151 4.33857L31.8007 13.8822V32.9982ZM33.9817 13.9326L18.7003 3.35277C18.4951 3.2108 18.2515 3.13474 18.0019 3.13474C17.7524 3.13474 17.5088 3.2108 17.3035 3.35277L2.01973 13.9326C2.01109 13.9385 2.00049 13.9408 1.99018 13.939C1.97987 13.9372 1.97067 13.9314 1.96453 13.923L1.20073 12.8328L18.0151 1.20357L34.8007 12.825L33.9817 13.9326Z" fill="#16191E"/>
<path d="M18.0003 25.7981C17.5256 25.7981 17.0616 25.9389 16.6669 26.2026C16.2722 26.4663 15.9646 26.8412 15.7829 27.2797C15.6013 27.7182 15.5538 28.2008 15.6464 28.6664C15.739 29.1319 15.9676 29.5596 16.3032 29.8952C16.6388 30.2308 17.0665 30.4594 17.532 30.552C17.9976 30.6446 18.4802 30.5971 18.9187 30.4155C19.3572 30.2338 19.7321 29.9262 19.9958 29.5315C20.2595 29.1368 20.4003 28.6728 20.4003 28.1981C20.4003 27.5616 20.1474 26.9512 19.6973 26.5011C19.2472 26.051 18.6368 25.7981 18.0003 25.7981ZM18.0003 29.3981C17.7629 29.3981 17.5309 29.3278 17.3336 29.1959C17.1362 29.0641 16.9824 28.8766 16.8916 28.6574C16.8008 28.4381 16.777 28.1968 16.8233 27.964C16.8696 27.7313 16.9839 27.5174 17.1517 27.3496C17.3195 27.1818 17.5334 27.0675 17.7661 27.0212C17.9989 26.9749 18.2402 26.9987 18.4595 27.0895C18.6787 27.1803 18.8662 27.3341 18.998 27.5315C19.1299 27.7288 19.2003 27.9608 19.2003 28.1981C19.2003 28.5164 19.0738 28.8216 18.8488 29.0467C18.6237 29.2717 18.3185 29.3981 18.0003 29.3981ZM18.0003 22.1981C16.7379 22.2001 15.5149 22.638 14.5383 23.4377C14.4152 23.5388 14.3373 23.6846 14.3217 23.8431C14.3061 24.0016 14.3541 24.1598 14.4552 24.2828C14.5562 24.4059 14.702 24.4838 14.8605 24.4994C15.019 24.515 15.1772 24.467 15.3003 24.3659C16.0612 23.7408 17.0155 23.3991 18.0003 23.3991C18.985 23.3991 19.9393 23.7408 20.7003 24.3659C20.8233 24.4668 20.9815 24.5147 21.1398 24.499C21.2982 24.4833 21.4439 24.4053 21.5448 24.2822C21.6456 24.1592 21.6935 24.001 21.6778 23.8427C21.6621 23.6843 21.5841 23.5386 21.4611 23.4377C20.4847 22.6381 19.2622 22.2002 18.0003 22.1981ZM18.0003 18.5981C15.9899 18.5978 14.0413 19.2933 12.4857 20.5667C12.4231 20.6158 12.3709 20.6768 12.3322 20.7461C12.2934 20.8155 12.2688 20.8919 12.2597 20.9708C12.2507 21.0498 12.2575 21.1298 12.2796 21.2061C12.3018 21.2824 12.3388 21.3536 12.3887 21.4155C12.4386 21.4773 12.5003 21.5287 12.5701 21.5665C12.64 21.6044 12.7167 21.628 12.7958 21.6359C12.8749 21.6439 12.9548 21.636 13.0308 21.6129C13.1068 21.5897 13.1775 21.5516 13.2387 21.5009C14.5812 20.3999 16.2639 19.7982 18.0003 19.7982C19.7366 19.7982 21.4193 20.3999 22.7619 21.5009C22.8231 21.5516 22.8937 21.5897 22.9697 21.6129C23.0458 21.636 23.1256 21.6439 23.2047 21.6359C23.2838 21.628 23.3605 21.6044 23.4304 21.5665C23.5002 21.5287 23.5619 21.4773 23.6118 21.4155C23.6617 21.3536 23.6987 21.2824 23.7209 21.2061C23.743 21.1298 23.7498 21.0498 23.7408 20.9708C23.7318 20.8919 23.7071 20.8155 23.6684 20.7461C23.6296 20.6768 23.5774 20.6158 23.5149 20.5667C21.9593 19.2931 20.0107 18.5975 18.0003 18.5981Z" fill="#16191E"/>
<path d="M10.4235 17.6982C10.2996 17.7981 10.2205 17.9432 10.2036 18.1014C10.1867 18.2597 10.2333 18.4182 10.3332 18.5421C10.4332 18.666 10.5782 18.7451 10.7365 18.762C10.8947 18.7789 11.0532 18.7323 11.1771 18.6324C13.1025 17.0578 15.5131 16.1975 18.0003 16.1975C20.4875 16.1975 22.8982 17.0578 24.8235 18.6324C24.9474 18.7323 25.1059 18.7789 25.2642 18.762C25.4224 18.7451 25.5675 18.666 25.6674 18.5421C25.7674 18.4182 25.814 18.2597 25.7971 18.1014C25.7801 17.9432 25.701 17.7981 25.5771 17.6982C23.4383 15.9516 20.7617 14.9976 18.0003 14.9976C15.239 14.9976 12.5624 15.9516 10.4235 17.6982Z" fill="#16191E"/>
</g>
</svg>
