<svg width="206" height="44" viewBox="0 0 206 44" fill="none" xmlns="http://www.w3.org/2000/svg">
<path d="M73.08 26V1.5H78.4L91.245 19L90.09 18.825C89.9733 18.055 89.88 17.32 89.81 16.62C89.74 15.92 89.67 15.2317 89.6 14.555C89.5533 13.8783 89.5067 13.19 89.46 12.49C89.4367 11.79 89.4133 11.0317 89.39 10.215C89.39 9.39833 89.39 8.51167 89.39 7.555V1.5H95.165V26H89.775L76.37 7.94L78.155 8.185C78.2717 9.305 78.365 10.2617 78.435 11.055C78.5283 11.825 78.5983 12.5133 78.645 13.12C78.715 13.7267 78.7617 14.275 78.785 14.765C78.8083 15.255 78.82 15.745 78.82 16.235C78.8433 16.7017 78.855 17.2267 78.855 17.81V26H73.08ZM109.572 26.35C107.519 26.35 105.734 25.9417 104.217 25.125C102.701 24.285 101.522 23.1533 100.682 21.73C99.8424 20.2833 99.4224 18.6383 99.4224 16.795C99.4224 15.3717 99.6558 14.065 100.122 12.875C100.589 11.685 101.242 10.6583 102.082 9.795C102.922 8.90833 103.914 8.23167 105.057 7.765C106.224 7.275 107.496 7.03 108.872 7.03C110.179 7.03 111.369 7.26333 112.442 7.73C113.539 8.19667 114.484 8.85 115.277 9.69C116.071 10.53 116.677 11.5217 117.097 12.665C117.517 13.8083 117.704 15.0567 117.657 16.41L117.622 17.915H102.817L102.012 14.765H113.072L112.477 15.43V14.73C112.431 14.1467 112.244 13.6333 111.917 13.19C111.614 12.7233 111.206 12.3617 110.692 12.105C110.179 11.8483 109.596 11.72 108.942 11.72C108.032 11.72 107.251 11.9067 106.597 12.28C105.967 12.63 105.489 13.155 105.162 13.855C104.836 14.5317 104.672 15.3717 104.672 16.375C104.672 17.4017 104.882 18.3 105.302 19.07C105.746 19.8167 106.376 20.4 107.192 20.82C108.032 21.24 109.024 21.45 110.167 21.45C110.961 21.45 111.661 21.3333 112.267 21.1C112.897 20.8667 113.574 20.47 114.297 19.91L116.922 23.62C116.199 24.25 115.429 24.7633 114.612 25.16C113.796 25.5567 112.956 25.8483 112.092 26.035C111.252 26.245 110.412 26.35 109.572 26.35ZM129.38 26.35C127.584 26.35 125.974 25.93 124.55 25.09C123.127 24.25 121.995 23.1067 121.155 21.66C120.339 20.19 119.93 18.5333 119.93 16.69C119.93 14.8467 120.339 13.2017 121.155 11.755C121.995 10.285 123.127 9.13 124.55 8.29C125.974 7.45 127.584 7.03 129.38 7.03C131.037 7.03 132.554 7.32167 133.93 7.905C135.33 8.48833 136.439 9.305 137.255 10.355L134.21 13.995C133.884 13.6217 133.499 13.2717 133.055 12.945C132.612 12.6183 132.122 12.3617 131.585 12.175C131.049 11.9883 130.489 11.895 129.905 11.895C129.019 11.895 128.237 12.105 127.56 12.525C126.884 12.9217 126.359 13.4817 125.985 14.205C125.612 14.9283 125.425 15.7567 125.425 16.69C125.425 17.5767 125.612 18.3817 125.985 19.105C126.382 19.8283 126.919 20.4 127.595 20.82C128.272 21.24 129.042 21.45 129.905 21.45C130.512 21.45 131.072 21.38 131.585 21.24C132.099 21.0767 132.565 20.8433 132.985 20.54C133.429 20.2367 133.837 19.8633 134.21 19.42L137.22 23.095C136.427 24.0983 135.319 24.8917 133.895 25.475C132.495 26.0583 130.99 26.35 129.38 26.35ZM145.688 20.54L143.623 16.34L152.303 7.415H159.688L145.688 20.54ZM140.298 26V0.0999997H145.898V26H140.298ZM152.898 26L146.353 17.53L150.308 14.45L159.513 26H152.898ZM162.071 26V0.0999997H167.671V26H162.071ZM181.179 26.35C179.126 26.35 177.341 25.9417 175.824 25.125C174.307 24.285 173.129 23.1533 172.289 21.73C171.449 20.2833 171.029 18.6383 171.029 16.795C171.029 15.3717 171.262 14.065 171.729 12.875C172.196 11.685 172.849 10.6583 173.689 9.795C174.529 8.90833 175.521 8.23167 176.664 7.765C177.831 7.275 179.102 7.03 180.479 7.03C181.786 7.03 182.976 7.26333 184.049 7.73C185.146 8.19667 186.091 8.85 186.884 9.69C187.677 10.53 188.284 11.5217 188.704 12.665C189.124 13.8083 189.311 15.0567 189.264 16.41L189.229 17.915H174.424L173.619 14.765H184.679L184.084 15.43V14.73C184.037 14.1467 183.851 13.6333 183.524 13.19C183.221 12.7233 182.812 12.3617 182.299 12.105C181.786 11.8483 181.202 11.72 180.549 11.72C179.639 11.72 178.857 11.9067 178.204 12.28C177.574 12.63 177.096 13.155 176.769 13.855C176.442 14.5317 176.279 15.3717 176.279 16.375C176.279 17.4017 176.489 18.3 176.909 19.07C177.352 19.8167 177.982 20.4 178.799 20.82C179.639 21.24 180.631 21.45 181.774 21.45C182.567 21.45 183.267 21.3333 183.874 21.1C184.504 20.8667 185.181 20.47 185.904 19.91L188.529 23.62C187.806 24.25 187.036 24.7633 186.219 25.16C185.402 25.5567 184.562 25.8483 183.699 26.035C182.859 26.245 182.019 26.35 181.179 26.35Z" fill="#16191E"/>
<path d="M70.216 43C70.312 42.6 70.44 42.156 70.6 41.668C70.768 41.172 70.956 40.656 71.164 40.12C71.38 39.584 71.6 39.052 71.824 38.524C72.048 37.996 72.264 37.492 72.472 37.012C72.68 36.524 72.92 36.032 73.192 35.536C73.248 35.44 73.296 35.352 73.336 35.272C73.384 35.192 73.436 35.124 73.492 35.068C73.18 35.076 72.844 35.116 72.484 35.188C72.132 35.252 71.792 35.344 71.464 35.464C71.144 35.584 70.868 35.724 70.636 35.884C70.412 36.044 70.268 36.22 70.204 36.412C70.196 36.436 70.18 36.448 70.156 36.448C70.084 36.448 70.048 36.392 70.048 36.28C70.048 36.256 70.056 36.22 70.072 36.172C70.144 35.964 70.232 35.78 70.336 35.62C70.448 35.46 70.56 35.324 70.672 35.212C70.936 34.94 71.232 34.776 71.56 34.72C71.888 34.656 72.236 34.624 72.604 34.624H75.52C75.856 34.624 76.156 34.66 76.42 34.732C76.684 34.796 76.904 34.888 77.08 35.008C77.312 35.16 77.48 35.348 77.584 35.572C77.688 35.788 77.74 36.016 77.74 36.256C77.74 36.624 77.66 36.952 77.5 37.24C77.34 37.528 77.128 37.776 76.864 37.984C76.608 38.192 76.32 38.36 76 38.488C75.68 38.616 75.356 38.712 75.028 38.776L74.644 38.848C74.836 39.496 75.08 40.08 75.376 40.6C75.672 41.12 75.98 41.576 76.3 41.968C76.62 42.36 76.908 42.696 77.164 42.976C77.044 43 76.86 43.012 76.612 43.012C76.396 43.012 76.188 43.008 75.988 43C75.788 42.984 75.688 42.976 75.688 42.976C75.488 42.976 75.292 42.868 75.1 42.652C74.908 42.436 74.724 42.16 74.548 41.824C74.372 41.48 74.212 41.124 74.068 40.756C73.932 40.38 73.816 40.032 73.72 39.712C73.632 39.392 73.572 39.144 73.54 38.968C73.54 38.944 73.536 38.92 73.528 38.896C73.528 38.872 73.528 38.844 73.528 38.812C73.528 38.764 73.536 38.724 73.552 38.692C73.576 38.652 73.62 38.628 73.684 38.62C74.084 38.572 74.448 38.5 74.776 38.404C75.104 38.3 75.404 38.16 75.676 37.984C75.948 37.8 76.168 37.576 76.336 37.312C76.504 37.04 76.588 36.72 76.588 36.352C76.588 36.056 76.504 35.788 76.336 35.548C76.176 35.3 75.916 35.136 75.556 35.056C75.46 35.032 75.356 35.016 75.244 35.008C75.14 35 75.032 34.992 74.92 34.984C74.744 35.224 74.56 35.512 74.368 35.848C74.176 36.184 73.988 36.54 73.804 36.916C73.62 37.284 73.444 37.652 73.276 38.02C73.116 38.38 72.972 38.712 72.844 39.016C72.78 39.184 72.684 39.428 72.556 39.748C72.436 40.068 72.312 40.416 72.184 40.792C72.056 41.168 71.944 41.532 71.848 41.884C71.76 42.228 71.716 42.512 71.716 42.736C71.716 42.856 71.732 42.944 71.764 43H70.216ZM78.8852 43C78.7572 43 78.6612 42.948 78.5972 42.844C78.5412 42.74 78.5132 42.604 78.5132 42.436C78.5132 42.204 78.5492 41.932 78.6212 41.62C78.7012 41.308 78.7972 40.984 78.9092 40.648C79.0292 40.312 79.1492 39.992 79.2692 39.688C79.3892 39.376 79.4932 39.112 79.5812 38.896H78.9212C78.8572 38.896 78.8252 38.872 78.8252 38.824C78.8252 38.776 78.8612 38.712 78.9332 38.632C79.0052 38.544 79.0892 38.468 79.1852 38.404C79.2812 38.34 79.3612 38.308 79.4252 38.308H79.8332C80.0332 37.836 80.2212 37.396 80.3972 36.988C80.5732 36.572 80.7932 36.132 81.0572 35.668C81.1212 35.556 81.1812 35.452 81.2372 35.356C81.2932 35.252 81.3572 35.16 81.4292 35.08C80.9972 35.136 80.5532 35.22 80.0972 35.332C79.6492 35.444 79.2492 35.588 78.8972 35.764C78.5452 35.94 78.2972 36.148 78.1532 36.388C78.1452 36.412 78.1292 36.424 78.1052 36.424C78.0892 36.424 78.0772 36.408 78.0692 36.376C78.0532 36.344 78.0492 36.308 78.0572 36.268C78.1372 36.06 78.2372 35.86 78.3572 35.668C78.4772 35.476 78.5932 35.324 78.7052 35.212C78.8812 35.028 79.1212 34.896 79.4252 34.816C79.7292 34.736 80.0412 34.684 80.3612 34.66C80.6892 34.636 80.9692 34.624 81.2012 34.624H83.5772C83.8572 34.624 84.1052 34.616 84.3212 34.6C84.5452 34.576 84.7332 34.564 84.8852 34.564C85.1332 34.564 85.2772 34.624 85.3172 34.744C85.3252 34.776 85.3292 34.808 85.3292 34.84C85.3372 34.864 85.3412 34.896 85.3412 34.936C85.3412 35.096 85.3052 35.28 85.2332 35.488C85.1612 35.688 85.0812 35.884 84.9932 36.076C84.9132 36.26 84.8492 36.412 84.8012 36.532C84.7932 36.572 84.7692 36.6 84.7292 36.616C84.6972 36.632 84.6652 36.64 84.6332 36.64C84.5932 36.64 84.5572 36.632 84.5252 36.616C84.5012 36.6 84.4932 36.548 84.5012 36.46C84.5172 36.364 84.5372 36.256 84.5612 36.136C84.5852 36.016 84.5972 35.912 84.5972 35.824C84.5972 35.568 84.4932 35.372 84.2852 35.236C84.0852 35.092 83.8332 35.02 83.5292 35.02C83.3052 35.02 83.1212 35.04 82.9772 35.08C82.8332 35.112 82.7172 35.196 82.6292 35.332C82.3092 35.804 82.0172 36.288 81.7532 36.784C81.4972 37.28 81.2572 37.788 81.0332 38.308H84.1652C84.1892 38.308 84.1732 38.356 84.1172 38.452C84.0692 38.548 84.0052 38.648 83.9252 38.752C83.8532 38.848 83.7892 38.896 83.7332 38.896H80.7692C80.6812 39.12 80.5772 39.392 80.4572 39.712C80.3372 40.032 80.2252 40.348 80.1212 40.66C80.0252 40.972 79.9492 41.24 79.8932 41.464C79.8452 41.656 79.8212 41.828 79.8212 41.98C79.8212 42.18 79.8812 42.332 80.0012 42.436C80.1292 42.54 80.3492 42.592 80.6612 42.592C81.0932 42.592 81.5252 42.576 81.9572 42.544C82.3892 42.504 82.8132 42.424 83.2292 42.304C83.5892 42.2 83.9092 42.06 84.1892 41.884C84.4772 41.708 84.6852 41.488 84.8132 41.224C84.8292 41.192 84.8532 41.176 84.8852 41.176C84.9412 41.176 84.9692 41.22 84.9692 41.308C84.9692 41.324 84.9652 41.344 84.9572 41.368C84.9572 41.392 84.9532 41.42 84.9452 41.452C84.8812 41.66 84.8052 41.844 84.7172 42.004C84.6292 42.164 84.5372 42.3 84.4412 42.412C84.2172 42.684 83.9292 42.852 83.5772 42.916C83.2252 42.972 82.8732 43 82.5212 43H78.8852ZM92.04 43.096C91.736 43.096 91.504 43.016 91.344 42.856C91.184 42.696 91.076 42.492 91.02 42.244C90.964 41.996 90.928 41.74 90.912 41.476C90.912 41.324 90.92 41.144 90.936 40.936C90.952 40.728 90.972 40.528 90.996 40.336C91.028 40.136 91.052 39.988 91.068 39.892H88.32C87.808 40.428 87.32 40.952 86.856 41.464C86.4 41.968 85.952 42.48 85.512 43H84.312C84.52 42.808 84.792 42.552 85.128 42.232C85.472 41.904 85.86 41.532 86.292 41.116C86.724 40.7 87.172 40.26 87.636 39.796C88.108 39.324 88.58 38.852 89.052 38.38C89.524 37.9 89.968 37.44 90.384 37C90.808 36.552 91.184 36.148 91.512 35.788C91.672 35.612 91.82 35.436 91.956 35.26C92.1 35.076 92.26 34.924 92.436 34.804C92.612 34.684 92.828 34.624 93.084 34.624H93.948C93.812 34.752 93.676 34.968 93.54 35.272C93.404 35.576 93.28 35.904 93.168 36.256C93.064 36.608 92.976 36.928 92.904 37.216C92.8 37.648 92.692 38.116 92.58 38.62C92.476 39.124 92.392 39.624 92.328 40.12C92.264 40.616 92.244 41.076 92.268 41.5C92.276 41.652 92.304 41.812 92.352 41.98C92.408 42.14 92.484 42.28 92.58 42.4C92.684 42.512 92.812 42.568 92.964 42.568C93.1 42.568 93.248 42.516 93.408 42.412L93.48 42.52C93.376 42.68 93.176 42.816 92.88 42.928C92.592 43.04 92.312 43.096 92.04 43.096ZM87.24 37.012C87.112 36.876 87.016 36.736 86.952 36.592C86.896 36.448 86.868 36.312 86.868 36.184C86.868 36.024 86.9 35.872 86.964 35.728C87.036 35.576 87.12 35.448 87.216 35.344C87.408 35.128 87.648 34.968 87.936 34.864C88.224 34.76 88.528 34.696 88.848 34.672C89.176 34.64 89.488 34.624 89.784 34.624H92.472C92.304 34.792 92.048 34.924 91.704 35.02C91.368 35.108 91 35.176 90.6 35.224C90.2 35.264 89.812 35.304 89.436 35.344C89.068 35.376 88.764 35.42 88.524 35.476C88.1 35.572 87.776 35.756 87.552 36.028C87.336 36.3 87.232 36.628 87.24 37.012ZM88.848 39.292H91.152C91.248 38.764 91.36 38.236 91.488 37.708C91.624 37.18 91.744 36.716 91.848 36.316C91.36 36.78 90.86 37.264 90.348 37.768C89.844 38.264 89.344 38.772 88.848 39.292ZM94.8369 43C94.6689 43 94.5449 42.94 94.4649 42.82C94.3929 42.7 94.3569 42.536 94.3569 42.328C94.3569 42.208 94.3689 42.076 94.3929 41.932C94.4169 41.788 94.4449 41.636 94.4769 41.476C94.5729 41.052 94.7209 40.584 94.9209 40.072C95.1289 39.552 95.3649 39.02 95.6289 38.476C95.9009 37.924 96.1729 37.388 96.4449 36.868C96.7249 36.348 96.9849 35.872 97.2249 35.44C97.2409 35.408 97.2729 35.348 97.3209 35.26C97.3769 35.172 97.4209 35.108 97.4529 35.068C97.1409 35.076 96.8049 35.116 96.4449 35.188C96.0929 35.252 95.7529 35.344 95.4249 35.464C95.1049 35.584 94.8289 35.724 94.5969 35.884C94.3729 36.044 94.2289 36.22 94.1649 36.412C94.1569 36.436 94.1409 36.448 94.1169 36.448C94.0449 36.448 94.0089 36.392 94.0089 36.28C94.0089 36.256 94.0169 36.22 94.0329 36.172C94.1129 35.964 94.2049 35.78 94.3089 35.62C94.4129 35.46 94.5209 35.324 94.6329 35.212C94.8969 34.94 95.1929 34.776 95.5209 34.72C95.8489 34.656 96.1969 34.624 96.5649 34.624H99.2889C99.1129 34.76 98.9049 35.008 98.6649 35.368C98.4249 35.72 98.1769 36.12 97.9209 36.568C97.8089 36.768 97.6689 37.028 97.5009 37.348C97.3329 37.668 97.1569 38.024 96.9729 38.416C96.7889 38.8 96.6129 39.188 96.4449 39.58C96.2769 39.972 96.1329 40.344 96.0129 40.696C95.8929 41.04 95.8169 41.336 95.7849 41.584C95.7769 41.624 95.7729 41.664 95.7729 41.704C95.7729 41.736 95.7729 41.772 95.7729 41.812C95.7729 42.036 95.8329 42.224 95.9529 42.376C96.0729 42.52 96.2969 42.592 96.6249 42.592C97.0489 42.592 97.4769 42.576 97.9089 42.544C98.3489 42.504 98.7769 42.424 99.1929 42.304C99.5449 42.2 99.8649 42.06 100.153 41.884C100.441 41.708 100.649 41.488 100.777 41.224C100.793 41.192 100.813 41.176 100.837 41.176C100.893 41.176 100.921 41.22 100.921 41.308C100.921 41.324 100.917 41.344 100.909 41.368C100.909 41.392 100.905 41.42 100.897 41.452C100.833 41.66 100.757 41.844 100.669 42.004C100.581 42.164 100.493 42.3 100.405 42.412C100.181 42.684 99.8889 42.852 99.5289 42.916C99.1769 42.972 98.8249 43 98.4729 43H94.8369ZM105.17 43C105.042 43 104.946 42.948 104.882 42.844C104.826 42.74 104.798 42.604 104.798 42.436C104.798 42.204 104.834 41.932 104.906 41.62C104.986 41.308 105.082 40.984 105.194 40.648C105.314 40.312 105.434 39.992 105.554 39.688C105.674 39.376 105.778 39.112 105.866 38.896H105.206C105.142 38.896 105.11 38.872 105.11 38.824C105.11 38.776 105.146 38.712 105.218 38.632C105.29 38.544 105.374 38.468 105.47 38.404C105.566 38.34 105.646 38.308 105.71 38.308H106.118C106.318 37.836 106.506 37.396 106.682 36.988C106.858 36.572 107.078 36.132 107.342 35.668C107.406 35.556 107.466 35.452 107.522 35.356C107.578 35.252 107.642 35.16 107.714 35.08C107.282 35.136 106.838 35.22 106.382 35.332C105.934 35.444 105.534 35.588 105.182 35.764C104.83 35.94 104.582 36.148 104.438 36.388C104.43 36.412 104.414 36.424 104.39 36.424C104.374 36.424 104.362 36.408 104.354 36.376C104.338 36.344 104.334 36.308 104.342 36.268C104.422 36.06 104.522 35.86 104.642 35.668C104.762 35.476 104.878 35.324 104.99 35.212C105.166 35.028 105.406 34.896 105.71 34.816C106.014 34.736 106.326 34.684 106.646 34.66C106.974 34.636 107.254 34.624 107.486 34.624H109.862C110.142 34.624 110.39 34.616 110.606 34.6C110.83 34.576 111.018 34.564 111.17 34.564C111.418 34.564 111.562 34.624 111.602 34.744C111.61 34.776 111.614 34.808 111.614 34.84C111.622 34.864 111.626 34.896 111.626 34.936C111.626 35.096 111.59 35.28 111.518 35.488C111.446 35.688 111.366 35.884 111.278 36.076C111.198 36.26 111.134 36.412 111.086 36.532C111.078 36.572 111.054 36.6 111.014 36.616C110.982 36.632 110.95 36.64 110.918 36.64C110.878 36.64 110.842 36.632 110.81 36.616C110.786 36.6 110.778 36.548 110.786 36.46C110.802 36.364 110.822 36.256 110.846 36.136C110.87 36.016 110.882 35.912 110.882 35.824C110.882 35.568 110.778 35.372 110.57 35.236C110.37 35.092 110.118 35.02 109.814 35.02C109.59 35.02 109.406 35.04 109.262 35.08C109.118 35.112 109.002 35.196 108.914 35.332C108.594 35.804 108.302 36.288 108.038 36.784C107.782 37.28 107.542 37.788 107.318 38.308H110.45C110.474 38.308 110.458 38.356 110.402 38.452C110.354 38.548 110.29 38.648 110.21 38.752C110.138 38.848 110.074 38.896 110.018 38.896H107.054C106.966 39.12 106.862 39.392 106.742 39.712C106.622 40.032 106.51 40.348 106.406 40.66C106.31 40.972 106.234 41.24 106.178 41.464C106.13 41.656 106.106 41.828 106.106 41.98C106.106 42.18 106.166 42.332 106.286 42.436C106.414 42.54 106.634 42.592 106.946 42.592C107.378 42.592 107.81 42.576 108.242 42.544C108.674 42.504 109.098 42.424 109.514 42.304C109.874 42.2 110.194 42.06 110.474 41.884C110.762 41.708 110.97 41.488 111.098 41.224C111.114 41.192 111.138 41.176 111.17 41.176C111.226 41.176 111.254 41.22 111.254 41.308C111.254 41.324 111.25 41.344 111.242 41.368C111.242 41.392 111.238 41.42 111.23 41.452C111.166 41.66 111.09 41.844 111.002 42.004C110.914 42.164 110.822 42.3 110.726 42.412C110.502 42.684 110.214 42.852 109.862 42.916C109.51 42.972 109.158 43 108.806 43H105.17ZM113.912 43.24C113.512 43.24 113.14 43.204 112.796 43.132C112.452 43.06 112.164 42.94 111.932 42.772C111.772 42.652 111.648 42.5 111.56 42.316C111.48 42.132 111.44 41.944 111.44 41.752C111.44 41.512 111.508 41.288 111.644 41.08C111.78 40.872 111.996 40.732 112.292 40.66C112.332 40.652 112.368 40.648 112.4 40.648C112.44 40.64 112.476 40.636 112.508 40.636C112.668 40.636 112.808 40.672 112.928 40.744C113.056 40.816 113.144 40.9 113.192 40.996C113.16 41.02 113.116 41.064 113.06 41.128C113.004 41.184 112.968 41.232 112.952 41.272C112.832 41.472 112.772 41.672 112.772 41.872C112.772 42.144 112.876 42.368 113.084 42.544C113.3 42.712 113.58 42.796 113.924 42.796C114.236 42.796 114.528 42.72 114.8 42.568C115.08 42.408 115.304 42.196 115.472 41.932C115.648 41.668 115.736 41.364 115.736 41.02C115.736 40.764 115.676 40.492 115.556 40.204C115.452 39.956 115.308 39.736 115.124 39.544C114.948 39.352 114.78 39.172 114.62 39.004C114.404 38.772 114.196 38.548 113.996 38.332C113.804 38.108 113.644 37.868 113.516 37.612C113.396 37.348 113.336 37.052 113.336 36.724C113.336 36.412 113.4 36.108 113.528 35.812C113.664 35.516 113.856 35.264 114.104 35.056C114.384 34.816 114.704 34.648 115.064 34.552C115.424 34.456 115.8 34.408 116.192 34.408C116.68 34.408 117.064 34.472 117.344 34.6C117.632 34.72 117.836 34.876 117.956 35.068C118.084 35.26 118.148 35.464 118.148 35.68C118.148 35.888 118.1 36.088 118.004 36.28C117.916 36.472 117.792 36.636 117.632 36.772C117.472 36.9 117.296 36.98 117.104 37.012C117.072 37.02 117.04 37.024 117.008 37.024C116.976 37.024 116.94 37.024 116.9 37.024C116.724 37.024 116.568 36.984 116.432 36.904C116.304 36.824 116.24 36.688 116.24 36.496C116.24 36.472 116.24 36.444 116.24 36.412C116.248 36.38 116.256 36.348 116.264 36.316C116.408 36.316 116.556 36.264 116.708 36.16C116.86 36.056 116.96 35.94 117.008 35.812C117.048 35.708 117.068 35.612 117.068 35.524C117.068 35.308 116.968 35.14 116.768 35.02C116.576 34.892 116.348 34.828 116.084 34.828C115.772 34.828 115.492 34.896 115.244 35.032C115.004 35.16 114.816 35.332 114.68 35.548C114.544 35.756 114.476 35.984 114.476 36.232C114.476 36.48 114.552 36.72 114.704 36.952C114.832 37.136 114.992 37.328 115.184 37.528C115.376 37.72 115.572 37.908 115.772 38.092C115.972 38.268 116.144 38.432 116.288 38.584C116.616 38.904 116.852 39.232 116.996 39.568C117.14 39.896 117.212 40.22 117.212 40.54C117.212 40.908 117.124 41.256 116.948 41.584C116.78 41.904 116.544 42.188 116.24 42.436C115.936 42.684 115.584 42.88 115.184 43.024C114.784 43.168 114.36 43.24 113.912 43.24ZM121.023 43.264C120.759 43.264 120.583 43.172 120.495 42.988C120.407 42.796 120.363 42.584 120.363 42.352C120.363 42.192 120.375 42.036 120.399 41.884C120.423 41.724 120.447 41.592 120.471 41.488C120.535 41.184 120.639 40.824 120.783 40.408C120.927 39.984 121.091 39.54 121.275 39.076C121.467 38.604 121.667 38.14 121.875 37.684C122.083 37.22 122.283 36.788 122.475 36.388C122.675 35.98 122.851 35.632 123.003 35.344C122.819 35.352 122.607 35.352 122.367 35.344C122.127 35.328 121.879 35.32 121.623 35.32C121.183 35.32 120.747 35.356 120.315 35.428C119.891 35.492 119.543 35.648 119.271 35.896C119.143 36.016 119.051 36.144 118.995 36.28C118.939 36.416 118.911 36.552 118.911 36.688C118.911 36.84 118.935 36.988 118.983 37.132C118.991 37.148 118.995 37.168 118.995 37.192C118.995 37.272 118.955 37.312 118.875 37.312C118.827 37.312 118.791 37.292 118.767 37.252C118.687 37.124 118.627 36.996 118.587 36.868C118.555 36.732 118.539 36.6 118.539 36.472C118.539 36.248 118.579 36.036 118.659 35.836C118.739 35.636 118.835 35.472 118.947 35.344C119.227 35.016 119.607 34.8 120.087 34.696C120.567 34.584 121.067 34.528 121.587 34.528C121.987 34.528 122.375 34.544 122.751 34.576C123.135 34.608 123.475 34.632 123.771 34.648C124.051 34.664 124.399 34.692 124.815 34.732C125.231 34.764 125.635 34.78 126.027 34.78C126.379 34.78 126.695 34.756 126.975 34.708C127.255 34.66 127.459 34.572 127.587 34.444C127.611 34.492 127.623 34.548 127.623 34.612C127.623 34.78 127.527 34.944 127.335 35.104C127.143 35.264 126.883 35.372 126.555 35.428C126.451 35.444 126.331 35.456 126.195 35.464C126.067 35.472 125.931 35.476 125.787 35.476C125.547 35.476 125.307 35.472 125.067 35.464C124.827 35.448 124.615 35.432 124.431 35.416C124.247 35.4 124.123 35.396 124.059 35.404C124.011 35.476 123.935 35.608 123.831 35.8C123.735 35.992 123.631 36.2 123.519 36.424C123.407 36.648 123.307 36.852 123.219 37.036C123.067 37.356 122.907 37.716 122.739 38.116C122.571 38.516 122.411 38.92 122.259 39.328C122.107 39.736 121.975 40.124 121.863 40.492C121.759 40.86 121.691 41.176 121.659 41.44C121.651 41.464 121.647 41.492 121.647 41.524C121.647 41.548 121.647 41.572 121.647 41.596C121.647 41.748 121.675 41.88 121.731 41.992C121.795 42.096 121.891 42.148 122.019 42.148C122.131 42.148 122.267 42.088 122.427 41.968C122.587 41.848 122.771 41.648 122.979 41.368C123.019 41.32 123.055 41.296 123.087 41.296C123.135 41.296 123.159 41.336 123.159 41.416C123.159 41.472 123.139 41.548 123.099 41.644C123.067 41.74 123.007 41.852 122.919 41.98C122.847 42.084 122.731 42.224 122.571 42.4C122.411 42.568 122.255 42.712 122.103 42.832C121.967 42.944 121.799 43.044 121.599 43.132C121.399 43.22 121.207 43.264 121.023 43.264ZM132.399 43.096C132.095 43.096 131.863 43.016 131.703 42.856C131.543 42.696 131.435 42.492 131.379 42.244C131.323 41.996 131.287 41.74 131.271 41.476C131.271 41.324 131.279 41.144 131.295 40.936C131.311 40.728 131.331 40.528 131.355 40.336C131.387 40.136 131.411 39.988 131.427 39.892H128.679C128.167 40.428 127.679 40.952 127.215 41.464C126.759 41.968 126.311 42.48 125.871 43H124.671C124.879 42.808 125.151 42.552 125.487 42.232C125.831 41.904 126.219 41.532 126.651 41.116C127.083 40.7 127.531 40.26 127.995 39.796C128.467 39.324 128.939 38.852 129.411 38.38C129.883 37.9 130.327 37.44 130.743 37C131.167 36.552 131.543 36.148 131.871 35.788C132.031 35.612 132.179 35.436 132.315 35.26C132.459 35.076 132.619 34.924 132.795 34.804C132.971 34.684 133.187 34.624 133.443 34.624H134.307C134.171 34.752 134.035 34.968 133.899 35.272C133.763 35.576 133.639 35.904 133.527 36.256C133.423 36.608 133.335 36.928 133.263 37.216C133.159 37.648 133.051 38.116 132.939 38.62C132.835 39.124 132.751 39.624 132.687 40.12C132.623 40.616 132.603 41.076 132.627 41.5C132.635 41.652 132.663 41.812 132.711 41.98C132.767 42.14 132.843 42.28 132.939 42.4C133.043 42.512 133.171 42.568 133.323 42.568C133.459 42.568 133.607 42.516 133.767 42.412L133.839 42.52C133.735 42.68 133.535 42.816 133.239 42.928C132.951 43.04 132.671 43.096 132.399 43.096ZM127.599 37.012C127.471 36.876 127.375 36.736 127.311 36.592C127.255 36.448 127.227 36.312 127.227 36.184C127.227 36.024 127.259 35.872 127.323 35.728C127.395 35.576 127.479 35.448 127.575 35.344C127.767 35.128 128.007 34.968 128.295 34.864C128.583 34.76 128.887 34.696 129.207 34.672C129.535 34.64 129.847 34.624 130.143 34.624H132.831C132.663 34.792 132.407 34.924 132.063 35.02C131.727 35.108 131.359 35.176 130.959 35.224C130.559 35.264 130.171 35.304 129.795 35.344C129.427 35.376 129.123 35.42 128.883 35.476C128.459 35.572 128.135 35.756 127.911 36.028C127.695 36.3 127.591 36.628 127.599 37.012ZM129.207 39.292H131.511C131.607 38.764 131.719 38.236 131.847 37.708C131.983 37.18 132.103 36.716 132.207 36.316C131.719 36.78 131.219 37.264 130.707 37.768C130.203 38.264 129.703 38.772 129.207 39.292ZM136.855 43.264C136.591 43.264 136.415 43.172 136.327 42.988C136.239 42.796 136.195 42.584 136.195 42.352C136.195 42.192 136.207 42.036 136.231 41.884C136.255 41.724 136.279 41.592 136.303 41.488C136.367 41.184 136.471 40.824 136.615 40.408C136.759 39.984 136.923 39.54 137.107 39.076C137.299 38.604 137.499 38.14 137.707 37.684C137.915 37.22 138.115 36.788 138.307 36.388C138.507 35.98 138.683 35.632 138.835 35.344C138.651 35.352 138.439 35.352 138.199 35.344C137.959 35.328 137.711 35.32 137.455 35.32C137.015 35.32 136.579 35.356 136.147 35.428C135.723 35.492 135.375 35.648 135.103 35.896C134.975 36.016 134.883 36.144 134.827 36.28C134.771 36.416 134.743 36.552 134.743 36.688C134.743 36.84 134.767 36.988 134.815 37.132C134.823 37.148 134.827 37.168 134.827 37.192C134.827 37.272 134.787 37.312 134.707 37.312C134.659 37.312 134.623 37.292 134.599 37.252C134.519 37.124 134.459 36.996 134.419 36.868C134.387 36.732 134.371 36.6 134.371 36.472C134.371 36.248 134.411 36.036 134.491 35.836C134.571 35.636 134.667 35.472 134.779 35.344C135.059 35.016 135.439 34.8 135.919 34.696C136.399 34.584 136.899 34.528 137.419 34.528C137.819 34.528 138.207 34.544 138.583 34.576C138.967 34.608 139.307 34.632 139.603 34.648C139.883 34.664 140.231 34.692 140.647 34.732C141.063 34.764 141.467 34.78 141.859 34.78C142.211 34.78 142.527 34.756 142.807 34.708C143.087 34.66 143.291 34.572 143.419 34.444C143.443 34.492 143.455 34.548 143.455 34.612C143.455 34.78 143.359 34.944 143.167 35.104C142.975 35.264 142.715 35.372 142.387 35.428C142.283 35.444 142.163 35.456 142.027 35.464C141.899 35.472 141.763 35.476 141.619 35.476C141.379 35.476 141.139 35.472 140.899 35.464C140.659 35.448 140.447 35.432 140.263 35.416C140.079 35.4 139.955 35.396 139.891 35.404C139.843 35.476 139.767 35.608 139.663 35.8C139.567 35.992 139.463 36.2 139.351 36.424C139.239 36.648 139.139 36.852 139.051 37.036C138.899 37.356 138.739 37.716 138.571 38.116C138.403 38.516 138.243 38.92 138.091 39.328C137.939 39.736 137.807 40.124 137.695 40.492C137.591 40.86 137.523 41.176 137.491 41.44C137.483 41.464 137.479 41.492 137.479 41.524C137.479 41.548 137.479 41.572 137.479 41.596C137.479 41.748 137.507 41.88 137.563 41.992C137.627 42.096 137.723 42.148 137.851 42.148C137.963 42.148 138.099 42.088 138.259 41.968C138.419 41.848 138.603 41.648 138.811 41.368C138.851 41.32 138.887 41.296 138.919 41.296C138.967 41.296 138.991 41.336 138.991 41.416C138.991 41.472 138.971 41.548 138.931 41.644C138.899 41.74 138.839 41.852 138.751 41.98C138.679 42.084 138.563 42.224 138.403 42.4C138.243 42.568 138.087 42.712 137.935 42.832C137.799 42.944 137.631 43.044 137.431 43.132C137.231 43.22 137.039 43.264 136.855 43.264ZM143.725 43C143.597 43 143.501 42.948 143.437 42.844C143.381 42.74 143.353 42.604 143.353 42.436C143.353 42.204 143.389 41.932 143.461 41.62C143.541 41.308 143.637 40.984 143.749 40.648C143.869 40.312 143.989 39.992 144.109 39.688C144.229 39.376 144.333 39.112 144.421 38.896H143.761C143.697 38.896 143.665 38.872 143.665 38.824C143.665 38.776 143.701 38.712 143.773 38.632C143.845 38.544 143.929 38.468 144.025 38.404C144.121 38.34 144.201 38.308 144.265 38.308H144.673C144.873 37.836 145.061 37.396 145.237 36.988C145.413 36.572 145.633 36.132 145.897 35.668C145.961 35.556 146.021 35.452 146.077 35.356C146.133 35.252 146.197 35.16 146.269 35.08C145.837 35.136 145.393 35.22 144.937 35.332C144.489 35.444 144.089 35.588 143.737 35.764C143.385 35.94 143.137 36.148 142.993 36.388C142.985 36.412 142.969 36.424 142.945 36.424C142.929 36.424 142.917 36.408 142.909 36.376C142.893 36.344 142.889 36.308 142.897 36.268C142.977 36.06 143.077 35.86 143.197 35.668C143.317 35.476 143.433 35.324 143.545 35.212C143.721 35.028 143.961 34.896 144.265 34.816C144.569 34.736 144.881 34.684 145.201 34.66C145.529 34.636 145.809 34.624 146.041 34.624H148.417C148.697 34.624 148.945 34.616 149.161 34.6C149.385 34.576 149.573 34.564 149.725 34.564C149.973 34.564 150.117 34.624 150.157 34.744C150.165 34.776 150.169 34.808 150.169 34.84C150.177 34.864 150.181 34.896 150.181 34.936C150.181 35.096 150.145 35.28 150.073 35.488C150.001 35.688 149.921 35.884 149.833 36.076C149.753 36.26 149.689 36.412 149.641 36.532C149.633 36.572 149.609 36.6 149.569 36.616C149.537 36.632 149.505 36.64 149.473 36.64C149.433 36.64 149.397 36.632 149.365 36.616C149.341 36.6 149.333 36.548 149.341 36.46C149.357 36.364 149.377 36.256 149.401 36.136C149.425 36.016 149.437 35.912 149.437 35.824C149.437 35.568 149.333 35.372 149.125 35.236C148.925 35.092 148.673 35.02 148.369 35.02C148.145 35.02 147.961 35.04 147.817 35.08C147.673 35.112 147.557 35.196 147.469 35.332C147.149 35.804 146.857 36.288 146.593 36.784C146.337 37.28 146.097 37.788 145.873 38.308H149.005C149.029 38.308 149.013 38.356 148.957 38.452C148.909 38.548 148.845 38.648 148.765 38.752C148.693 38.848 148.629 38.896 148.573 38.896H145.609C145.521 39.12 145.417 39.392 145.297 39.712C145.177 40.032 145.065 40.348 144.961 40.66C144.865 40.972 144.789 41.24 144.733 41.464C144.685 41.656 144.661 41.828 144.661 41.98C144.661 42.18 144.721 42.332 144.841 42.436C144.969 42.54 145.189 42.592 145.501 42.592C145.933 42.592 146.365 42.576 146.797 42.544C147.229 42.504 147.653 42.424 148.069 42.304C148.429 42.2 148.749 42.06 149.029 41.884C149.317 41.708 149.525 41.488 149.653 41.224C149.669 41.192 149.693 41.176 149.725 41.176C149.781 41.176 149.809 41.22 149.809 41.308C149.809 41.324 149.805 41.344 149.797 41.368C149.797 41.392 149.793 41.42 149.785 41.452C149.721 41.66 149.645 41.844 149.557 42.004C149.469 42.164 149.377 42.3 149.281 42.412C149.057 42.684 148.769 42.852 148.417 42.916C148.065 42.972 147.713 43 147.361 43H143.725ZM161.438 43.096C161.134 43.096 160.902 43.016 160.742 42.856C160.582 42.696 160.474 42.492 160.418 42.244C160.362 41.996 160.326 41.74 160.31 41.476C160.31 41.324 160.318 41.144 160.334 40.936C160.35 40.728 160.37 40.528 160.394 40.336C160.426 40.136 160.45 39.988 160.466 39.892H157.718C157.206 40.428 156.718 40.952 156.254 41.464C155.798 41.968 155.35 42.48 154.91 43H153.71C153.918 42.808 154.19 42.552 154.526 42.232C154.87 41.904 155.258 41.532 155.69 41.116C156.122 40.7 156.57 40.26 157.034 39.796C157.506 39.324 157.978 38.852 158.45 38.38C158.922 37.9 159.366 37.44 159.782 37C160.206 36.552 160.582 36.148 160.91 35.788C161.07 35.612 161.218 35.436 161.354 35.26C161.498 35.076 161.658 34.924 161.834 34.804C162.01 34.684 162.226 34.624 162.482 34.624H163.346C163.21 34.752 163.074 34.968 162.938 35.272C162.802 35.576 162.678 35.904 162.566 36.256C162.462 36.608 162.374 36.928 162.302 37.216C162.198 37.648 162.09 38.116 161.978 38.62C161.874 39.124 161.79 39.624 161.726 40.12C161.662 40.616 161.642 41.076 161.666 41.5C161.674 41.652 161.702 41.812 161.75 41.98C161.806 42.14 161.882 42.28 161.978 42.4C162.082 42.512 162.21 42.568 162.362 42.568C162.498 42.568 162.646 42.516 162.806 42.412L162.878 42.52C162.774 42.68 162.574 42.816 162.278 42.928C161.99 43.04 161.71 43.096 161.438 43.096ZM156.638 37.012C156.51 36.876 156.414 36.736 156.35 36.592C156.294 36.448 156.266 36.312 156.266 36.184C156.266 36.024 156.298 35.872 156.362 35.728C156.434 35.576 156.518 35.448 156.614 35.344C156.806 35.128 157.046 34.968 157.334 34.864C157.622 34.76 157.926 34.696 158.246 34.672C158.574 34.64 158.886 34.624 159.182 34.624H161.87C161.702 34.792 161.446 34.924 161.102 35.02C160.766 35.108 160.398 35.176 159.998 35.224C159.598 35.264 159.21 35.304 158.834 35.344C158.466 35.376 158.162 35.42 157.922 35.476C157.498 35.572 157.174 35.756 156.95 36.028C156.734 36.3 156.63 36.628 156.638 37.012ZM158.246 39.292H160.55C160.646 38.764 160.758 38.236 160.886 37.708C161.022 37.18 161.142 36.716 161.246 36.316C160.758 36.78 160.258 37.264 159.746 37.768C159.242 38.264 158.742 38.772 158.246 39.292ZM166.267 43.456C165.899 43.456 165.511 43.412 165.103 43.324C164.703 43.244 164.367 43.116 164.095 42.94C163.719 42.684 163.443 42.356 163.267 41.956C163.091 41.556 163.003 41.12 163.003 40.648C163.003 40.176 163.079 39.684 163.231 39.172C163.391 38.66 163.619 38.16 163.915 37.672C164.211 37.176 164.559 36.72 164.959 36.304C165.367 35.88 165.823 35.52 166.327 35.224C166.831 34.928 167.367 34.724 167.935 34.612C168.295 34.54 168.639 34.504 168.967 34.504C169.607 34.504 170.119 34.632 170.503 34.888C170.887 35.136 171.079 35.456 171.079 35.848C171.079 35.928 171.071 36.008 171.055 36.088C171.047 36.16 171.023 36.24 170.983 36.328C170.895 36.56 170.747 36.768 170.539 36.952C170.339 37.128 170.107 37.264 169.843 37.36C169.587 37.456 169.323 37.496 169.051 37.48C168.923 37.464 168.811 37.42 168.715 37.348C168.627 37.268 168.583 37.172 168.583 37.06C168.583 36.948 168.631 36.828 168.727 36.7C168.815 36.732 168.915 36.748 169.027 36.748C169.227 36.748 169.423 36.7 169.615 36.604C169.807 36.508 169.967 36.376 170.095 36.208C170.223 36.04 170.287 35.852 170.287 35.644C170.287 35.364 170.191 35.18 169.999 35.092C169.807 34.996 169.591 34.948 169.351 34.948C169.191 34.948 169.031 34.964 168.871 34.996C168.719 35.02 168.595 35.044 168.499 35.068C168.043 35.188 167.599 35.42 167.167 35.764C166.735 36.1 166.339 36.5 165.979 36.964C165.627 37.428 165.331 37.908 165.091 38.404C164.939 38.724 164.799 39.112 164.671 39.568C164.543 40.024 164.479 40.472 164.479 40.912C164.479 41.144 164.499 41.368 164.539 41.584C164.587 41.792 164.663 41.984 164.767 42.16C164.935 42.448 165.167 42.648 165.463 42.76C165.767 42.872 166.083 42.928 166.411 42.928C166.659 42.928 166.903 42.908 167.143 42.868C167.391 42.82 167.615 42.76 167.815 42.688C168.071 42.6 168.319 42.48 168.559 42.328C168.799 42.168 169.019 41.988 169.219 41.788C169.443 41.556 169.631 41.304 169.783 41.032C169.943 40.76 170.047 40.476 170.095 40.18H169.459C169.107 40.18 168.743 40.184 168.367 40.192C167.991 40.192 167.707 40.208 167.515 40.24C167.515 40.24 167.543 40.192 167.599 40.096C167.655 39.992 167.727 39.876 167.815 39.748C167.903 39.612 167.995 39.496 168.091 39.4C168.195 39.296 168.291 39.244 168.379 39.244H171.895C171.839 39.548 171.739 39.764 171.595 39.892C171.451 40.02 171.271 40.104 171.055 40.144C171.015 40.256 170.975 40.368 170.935 40.48C170.895 40.584 170.855 40.668 170.815 40.732C170.367 41.652 169.755 42.336 168.979 42.784C168.203 43.232 167.299 43.456 166.267 43.456ZM172.354 43C172.226 43 172.13 42.948 172.066 42.844C172.01 42.74 171.982 42.604 171.982 42.436C171.982 42.204 172.018 41.932 172.09 41.62C172.17 41.308 172.266 40.984 172.378 40.648C172.498 40.312 172.618 39.992 172.738 39.688C172.858 39.376 172.962 39.112 173.05 38.896H172.39C172.326 38.896 172.294 38.872 172.294 38.824C172.294 38.776 172.33 38.712 172.402 38.632C172.474 38.544 172.558 38.468 172.654 38.404C172.75 38.34 172.83 38.308 172.894 38.308H173.302C173.502 37.836 173.69 37.396 173.866 36.988C174.042 36.572 174.262 36.132 174.526 35.668C174.59 35.556 174.65 35.452 174.706 35.356C174.762 35.252 174.826 35.16 174.898 35.08C174.466 35.136 174.022 35.22 173.566 35.332C173.118 35.444 172.718 35.588 172.366 35.764C172.014 35.94 171.766 36.148 171.622 36.388C171.614 36.412 171.598 36.424 171.574 36.424C171.558 36.424 171.546 36.408 171.538 36.376C171.522 36.344 171.518 36.308 171.526 36.268C171.606 36.06 171.706 35.86 171.826 35.668C171.946 35.476 172.062 35.324 172.174 35.212C172.35 35.028 172.59 34.896 172.894 34.816C173.198 34.736 173.51 34.684 173.83 34.66C174.158 34.636 174.438 34.624 174.67 34.624H177.046C177.326 34.624 177.574 34.616 177.79 34.6C178.014 34.576 178.202 34.564 178.354 34.564C178.602 34.564 178.746 34.624 178.786 34.744C178.794 34.776 178.798 34.808 178.798 34.84C178.806 34.864 178.81 34.896 178.81 34.936C178.81 35.096 178.774 35.28 178.702 35.488C178.63 35.688 178.55 35.884 178.462 36.076C178.382 36.26 178.318 36.412 178.27 36.532C178.262 36.572 178.238 36.6 178.198 36.616C178.166 36.632 178.134 36.64 178.102 36.64C178.062 36.64 178.026 36.632 177.994 36.616C177.97 36.6 177.962 36.548 177.97 36.46C177.986 36.364 178.006 36.256 178.03 36.136C178.054 36.016 178.066 35.912 178.066 35.824C178.066 35.568 177.962 35.372 177.754 35.236C177.554 35.092 177.302 35.02 176.998 35.02C176.774 35.02 176.59 35.04 176.446 35.08C176.302 35.112 176.186 35.196 176.098 35.332C175.778 35.804 175.486 36.288 175.222 36.784C174.966 37.28 174.726 37.788 174.502 38.308H177.634C177.658 38.308 177.642 38.356 177.586 38.452C177.538 38.548 177.474 38.648 177.394 38.752C177.322 38.848 177.258 38.896 177.202 38.896H174.238C174.15 39.12 174.046 39.392 173.926 39.712C173.806 40.032 173.694 40.348 173.59 40.66C173.494 40.972 173.418 41.24 173.362 41.464C173.314 41.656 173.29 41.828 173.29 41.98C173.29 42.18 173.35 42.332 173.47 42.436C173.598 42.54 173.818 42.592 174.13 42.592C174.562 42.592 174.994 42.576 175.426 42.544C175.858 42.504 176.282 42.424 176.698 42.304C177.058 42.2 177.378 42.06 177.658 41.884C177.946 41.708 178.154 41.488 178.282 41.224C178.298 41.192 178.322 41.176 178.354 41.176C178.41 41.176 178.438 41.22 178.438 41.308C178.438 41.324 178.434 41.344 178.426 41.368C178.426 41.392 178.422 41.42 178.414 41.452C178.35 41.66 178.274 41.844 178.186 42.004C178.098 42.164 178.006 42.3 177.91 42.412C177.686 42.684 177.398 42.852 177.046 42.916C176.694 42.972 176.342 43 175.99 43H172.354ZM178.936 43C179.112 42.552 179.312 42.056 179.536 41.512C179.768 40.96 180.008 40.396 180.256 39.82C180.504 39.244 180.748 38.684 180.988 38.14C181.236 37.596 181.46 37.1 181.66 36.652C181.868 36.196 182.04 35.82 182.176 35.524C182.312 35.228 182.4 35.044 182.44 34.972C182.088 34.964 181.728 35 181.36 35.08C180.992 35.152 180.648 35.256 180.328 35.392C180.008 35.528 179.736 35.684 179.512 35.86C179.296 36.036 179.156 36.22 179.092 36.412C179.084 36.436 179.068 36.448 179.044 36.448C178.98 36.448 178.948 36.396 178.948 36.292C178.948 36.276 178.948 36.26 178.948 36.244C178.956 36.22 178.964 36.196 178.972 36.172C179.044 35.964 179.132 35.78 179.236 35.62C179.348 35.46 179.456 35.324 179.56 35.212C179.824 34.94 180.12 34.776 180.448 34.72C180.776 34.656 181.124 34.624 181.492 34.624H183.52C183.504 34.656 183.472 34.72 183.424 34.816C183.376 34.912 183.352 35.072 183.352 35.296C183.352 35.528 183.396 35.844 183.484 36.244C183.58 36.644 183.764 37.16 184.036 37.792C184.14 38.04 184.236 38.272 184.324 38.488C184.412 38.696 184.488 38.892 184.552 39.076C184.672 39.396 184.76 39.652 184.816 39.844C184.872 40.028 184.908 40.172 184.924 40.276C184.948 40.38 184.96 40.472 184.96 40.552C184.968 40.624 184.976 40.704 184.984 40.792C185.08 40.552 185.212 40.236 185.38 39.844C185.548 39.452 185.732 39.02 185.932 38.548C186.14 38.076 186.352 37.596 186.568 37.108C186.784 36.62 186.988 36.16 187.18 35.728C187.372 35.296 187.532 34.928 187.66 34.624C187.684 34.584 187.768 34.564 187.912 34.564C188.056 34.564 188.22 34.576 188.404 34.6C188.588 34.624 188.712 34.636 188.776 34.636C188.552 34.788 188.312 35.08 188.056 35.512C187.808 35.944 187.536 36.464 187.24 37.072C186.992 37.584 186.744 38.124 186.496 38.692C186.256 39.252 186.036 39.8 185.836 40.336C185.644 40.864 185.488 41.344 185.368 41.776C185.256 42.208 185.2 42.544 185.2 42.784C185.2 42.824 185.2 42.864 185.2 42.904C185.208 42.936 185.216 42.968 185.224 43H184.468C184.46 42.76 184.432 42.536 184.384 42.328C184.336 42.12 184.26 41.884 184.156 41.62C184.052 41.348 183.908 41.012 183.724 40.612C183.548 40.204 183.328 39.688 183.064 39.064C182.832 38.52 182.66 38.044 182.548 37.636C182.444 37.228 182.38 36.88 182.356 36.592C182.228 36.88 182.076 37.224 181.9 37.624C181.732 38.016 181.556 38.432 181.372 38.872C181.188 39.312 181.012 39.752 180.844 40.192C180.676 40.632 180.524 41.044 180.388 41.428C180.26 41.812 180.164 42.144 180.1 42.424C180.036 42.696 180.016 42.888 180.04 43H178.936ZM188.841 43.288C188.169 43.176 187.677 42.884 187.365 42.412C187.061 41.94 186.909 41.38 186.909 40.732C186.909 40.26 186.985 39.768 187.137 39.256C187.289 38.736 187.505 38.228 187.785 37.732C188.073 37.236 188.417 36.776 188.817 36.352C189.217 35.92 189.669 35.552 190.173 35.248C190.677 34.944 191.225 34.732 191.817 34.612C192.177 34.54 192.521 34.504 192.849 34.504C193.489 34.504 194.001 34.632 194.385 34.888C194.769 35.136 194.961 35.456 194.961 35.848C194.961 35.928 194.953 36.008 194.937 36.088C194.929 36.16 194.905 36.24 194.865 36.328C194.777 36.56 194.629 36.768 194.421 36.952C194.221 37.128 193.989 37.264 193.725 37.36C193.469 37.456 193.205 37.496 192.933 37.48C192.805 37.464 192.693 37.42 192.597 37.348C192.509 37.268 192.465 37.172 192.465 37.06C192.465 36.948 192.513 36.828 192.609 36.7C192.697 36.732 192.797 36.748 192.909 36.748C193.109 36.748 193.305 36.7 193.497 36.604C193.689 36.508 193.849 36.376 193.977 36.208C194.105 36.04 194.169 35.852 194.169 35.644C194.169 35.364 194.073 35.18 193.881 35.092C193.689 34.996 193.473 34.948 193.233 34.948C193.073 34.948 192.913 34.964 192.753 34.996C192.601 35.02 192.477 35.044 192.381 35.068C191.925 35.188 191.457 35.408 190.977 35.728C190.505 36.04 190.073 36.424 189.681 36.88C189.289 37.328 188.985 37.82 188.769 38.356C188.609 38.748 188.485 39.144 188.397 39.544C188.309 39.944 188.265 40.324 188.265 40.684C188.265 41.148 188.341 41.556 188.493 41.908C188.653 42.26 188.905 42.504 189.249 42.64C189.561 42.76 189.881 42.82 190.209 42.82C190.737 42.82 191.269 42.692 191.805 42.436C192.349 42.18 192.849 41.856 193.305 41.464C193.585 41.216 193.837 40.96 194.061 40.696C194.285 40.432 194.457 40.152 194.577 39.856C194.729 39.952 194.805 40.092 194.805 40.276C194.805 40.42 194.761 40.576 194.673 40.744C194.593 40.912 194.497 41.068 194.385 41.212C194.281 41.356 194.189 41.468 194.109 41.548C193.549 42.132 192.877 42.58 192.093 42.892C191.317 43.204 190.529 43.36 189.729 43.36C189.425 43.36 189.129 43.336 188.841 43.288ZM197.661 43C197.725 42.712 197.813 42.4 197.925 42.064C198.037 41.72 198.157 41.364 198.285 40.996C198.469 40.516 198.561 40.08 198.561 39.688C198.561 39.648 198.561 39.608 198.561 39.568C198.561 39.52 198.557 39.476 198.549 39.436C198.501 39.092 198.413 38.708 198.285 38.284C198.157 37.86 198.017 37.444 197.865 37.036C197.713 36.636 197.541 36.292 197.349 36.004C197.157 35.716 196.925 35.572 196.653 35.572C196.485 35.572 196.297 35.644 196.089 35.788C195.889 35.932 195.661 36.172 195.405 36.508C195.397 36.516 195.389 36.52 195.381 36.52C195.357 36.52 195.341 36.492 195.333 36.436C195.325 36.38 195.325 36.34 195.333 36.316C195.509 35.964 195.693 35.66 195.885 35.404C196.085 35.148 196.321 34.956 196.593 34.828C196.873 34.692 197.221 34.636 197.637 34.66C198.037 34.676 198.333 34.828 198.525 35.116C198.717 35.404 198.889 35.796 199.041 36.292C199.161 36.708 199.285 37.156 199.413 37.636C199.541 38.108 199.657 38.548 199.761 38.956C200.065 38.54 200.389 38.084 200.733 37.588C201.077 37.092 201.417 36.604 201.753 36.124C202.097 35.644 202.405 35.224 202.677 34.864C202.765 34.752 202.901 34.684 203.085 34.66C203.269 34.628 203.461 34.612 203.661 34.612C203.789 34.612 203.913 34.616 204.033 34.624C204.153 34.624 204.257 34.624 204.345 34.624C203.993 34.872 203.613 35.184 203.205 35.56C202.797 35.936 202.393 36.356 201.993 36.82C201.641 37.228 201.281 37.712 200.913 38.272C200.545 38.832 200.213 39.436 199.917 40.084C199.621 40.724 199.401 41.376 199.257 42.04C199.225 42.176 199.201 42.304 199.185 42.424C199.169 42.536 199.161 42.636 199.161 42.724C199.161 42.852 199.177 42.944 199.209 43H197.661Z" fill="#16191E"/>
<path d="M5.43942 41H0L35.4952 2H40.9247L5.43942 41Z" fill="#EFB93F"/>
<path d="M24.5048 41H12.1172L47.6025 2H60L24.5048 41Z" fill="#EFB93F"/>
<path d="M50.3979 26.3735H45.0479V31.7129H50.3979V26.3735Z" fill="#16191E"/>
<path d="M59.2817 26.3735H53.9316V31.7129H59.2817V26.3735Z" fill="#16191E"/>
<path d="M50.3979 34.7529H45.0479V40.0923H50.3979V34.7529Z" fill="#16191E"/>
<path d="M59.2817 34.7529H53.9316V40.0923H59.2817V34.7529Z" fill="#16191E"/>
</svg>
