<svg width="36" height="36" viewBox="0 0 36 36" fill="none" xmlns="http://www.w3.org/2000/svg">
<mask id="mask0_366_1412" style="mask-type:alpha" maskUnits="userSpaceOnUse" x="0" y="0" width="36" height="36">
<rect width="36" height="36" fill="#D9D9D9"/>
</mask>
<g mask="url(#mask0_366_1412)">
<path d="M34.1977 31.1127C34.1986 31.0864 34.1991 31.0603 34.1991 31.0345C34.1984 30.3762 33.9453 29.7452 33.4954 29.2797C33.0455 28.8143 32.4355 28.5525 31.7992 28.5517V17.069L33.9591 15.3931C34.0341 15.3349 34.0949 15.2593 34.1366 15.1724C34.1782 15.0855 34.1996 14.9897 34.1991 14.8927C34.1985 14.7957 34.1759 14.7002 34.1332 14.6138C34.0905 14.5275 34.0288 14.4527 33.9531 14.3954L28.7994 10.4991V3.72414C28.9585 3.72414 29.1111 3.65874 29.2236 3.54234C29.3361 3.42594 29.3994 3.26807 29.3994 3.10345V0.62069C29.3994 0.456073 29.3361 0.298198 29.2236 0.181796C29.1111 0.0653939 28.9585 0 28.7994 0H22.7997C22.6406 0 22.488 0.0653939 22.3755 0.181796C22.263 0.298198 22.1998 0.456073 22.1998 0.62069V3.10345C22.1998 3.26807 22.263 3.42594 22.3755 3.54234C22.488 3.65874 22.6406 3.72414 22.7997 3.72414V5.96335L18.354 2.60232C18.2512 2.52464 18.1273 2.48278 18 2.48278C17.8727 2.48278 17.7488 2.52464 17.646 2.60232L2.04691 14.3954C1.9712 14.4527 1.90951 14.5275 1.8668 14.6138C1.82408 14.7002 1.80153 14.7957 1.80094 14.8927C1.80036 14.9897 1.82176 15.0855 1.86344 15.1724C1.90511 15.2593 1.96589 15.3349 2.04091 15.3931L4.20079 17.069V28.5517C3.56452 28.5525 2.95452 28.8143 2.50461 29.2797C2.05471 29.7452 1.80164 30.3762 1.80092 31.0345C1.80092 31.0603 1.80137 31.0864 1.80227 31.1127C1.23627 31.2632 0.742823 31.6223 0.414508 32.1225C0.0861939 32.6226 -0.054422 33.2295 0.0190437 33.8293C0.0925093 34.4291 0.375007 34.9806 0.813534 35.3802C1.25206 35.7799 1.81648 36.0003 2.40089 36H33.5991C34.1835 36.0003 34.7479 35.7799 35.1865 35.3802C35.625 34.9806 35.9075 34.4291 35.981 33.8293C36.0544 33.2295 35.9138 32.6226 35.5855 32.1225C35.2572 31.6223 34.7637 31.2632 34.1977 31.1127ZM23.3997 1.24138H28.1994V2.48276H23.3997V1.24138ZM23.9997 6.82759V3.72414H27.5995V9.59198L23.9429 6.82759H23.9997ZM18 3.87217L32.5908 14.9031L31.1938 15.987L18.3529 6.3256C18.2504 6.24843 18.1268 6.20685 18 6.20685C17.8732 6.20685 17.7496 6.24843 17.6471 6.3256L4.80623 15.987L3.40921 14.9031L18 3.87217ZM1.20096 33.5172C1.20129 33.1913 1.32536 32.8786 1.54643 32.6464C1.7675 32.4142 2.06789 32.2811 2.38289 32.2759H2.38431C2.41499 32.2803 2.44566 32.2841 2.47693 32.2862C2.57636 32.2927 2.67578 32.2734 2.76622 32.2302C2.85667 32.187 2.93529 32.1212 2.995 32.0387C3.0547 31.9562 3.09361 31.8596 3.10821 31.7577C3.12281 31.6557 3.11264 31.5516 3.07862 31.4548C3.02897 31.3205 3.00264 31.1782 3.00085 31.0345C3.00123 30.7054 3.12777 30.3898 3.35272 30.1571C3.57767 29.9244 3.88266 29.7935 4.20079 29.7931V34.7586H2.40089C2.08276 34.7582 1.77777 34.6273 1.55282 34.3946C1.32788 34.1619 1.20133 33.8464 1.20096 33.5172ZM26.9995 34.7586H19.7999V21.1034H26.9995V34.7586ZM28.1994 34.7586V20.4828C28.1994 20.3181 28.1362 20.1603 28.0237 20.0439C27.9112 19.9275 27.7586 19.8621 27.5995 19.8621H19.1999C19.0408 19.8621 18.8882 19.9275 18.7757 20.0439C18.6632 20.1603 18.6 20.3181 18.6 20.4828V34.7586H5.40072V17.0747L18 7.59507L30.5993 17.0747V34.7586H28.1994ZM33.5991 34.7586H31.7992V29.7931C32.1173 29.7935 32.4223 29.9244 32.6473 30.1571C32.8722 30.3898 32.9988 30.7054 32.9991 31.0345C32.9974 31.1783 32.9711 31.3207 32.9214 31.4551C32.8874 31.5519 32.8772 31.656 32.8918 31.758C32.9064 31.8599 32.9453 31.9565 33.005 32.039C33.0647 32.1215 33.1433 32.1874 33.2338 32.2306C33.3242 32.2738 33.4236 32.293 33.5231 32.2865C33.5543 32.2844 33.585 32.2806 33.6157 32.2762H33.6171C33.9354 32.2786 34.2396 32.4118 34.463 32.6463C34.6863 32.8809 34.8104 33.1976 34.808 33.5269C34.8057 33.8561 34.6769 34.1709 34.4502 34.4019C34.2235 34.633 33.9174 34.7614 33.5991 34.7589V34.7586Z" fill="#16191E"/>
<path d="M15.5994 19.8633H8.39977C8.24065 19.8633 8.08805 19.9287 7.97553 20.0451C7.86302 20.1615 7.7998 20.3194 7.7998 20.484V29.1736C7.7998 29.3382 7.86302 29.4961 7.97553 29.6125C8.08805 29.7289 8.24065 29.7943 8.39977 29.7943H15.5994C15.7585 29.7943 15.9111 29.7289 16.0236 29.6125C16.1361 29.4961 16.1993 29.3382 16.1993 29.1736V20.484C16.1993 20.3194 16.1361 20.1615 16.0236 20.0451C15.9111 19.9287 15.7585 19.8633 15.5994 19.8633ZM14.9994 24.2081H12.5995V21.1047H14.9994V24.2081ZM11.3996 21.1047V24.2081H8.99974V21.1047H11.3996ZM8.99974 25.4495H11.3996V28.5529H8.99974V25.4495ZM12.5995 28.5529V25.4495H14.9994V28.5529H12.5995Z" fill="#16191E"/>
<path d="M22.1556 27.5488C22.2824 27.2321 22.137 26.869 21.8309 26.7378C21.5247 26.6066 21.1738 26.757 21.047 27.0737C20.9202 27.3904 21.0655 27.7535 21.3717 27.8847C21.6778 28.0159 22.0288 27.8655 22.1556 27.5488Z" fill="#16191E"/>
</g>
</svg>
