<svg width="45" height="45" viewBox="0 0 45 45" fill="none" xmlns="http://www.w3.org/2000/svg">
<path d="M39.2016 26.1073V11.6394C39.2021 11.5027 39.1665 11.3683 39.0983 11.2498C39.0302 11.1313 38.9319 11.0329 38.8134 10.9645L19.9889 0.103932C19.8709 0.0358449 19.7371 0 19.6008 0C19.4645 0 19.3307 0.0358449 19.2127 0.103932L0.38814 10.9645C0.269678 11.0329 0.171392 11.1313 0.103233 11.2498C0.035074 11.3683 -0.000536933 11.5027 6.11923e-06 11.6394V33.3606C-0.000536933 33.4973 0.035074 33.6317 0.103233 33.7502C0.171392 33.8687 0.269678 33.9671 0.38814 34.0355L19.2127 44.8961C19.3307 44.9642 19.4645 45 19.6008 45C19.7371 45 19.8709 44.9642 19.9889 44.8961L27.0607 40.8156C27.9422 42.0498 29.096 43.0647 30.4329 43.7818C31.7697 44.499 33.2538 44.8991 34.7701 44.9513C36.2865 45.0035 37.7946 44.7062 39.1776 44.0826C40.5607 43.459 41.7816 42.5258 42.7459 41.3551C43.7101 40.1844 44.392 38.8077 44.7385 37.3315C45.0851 35.8553 45.0872 34.3192 44.7445 32.8421C44.4019 31.365 43.7237 29.9865 42.7625 28.8132C41.8014 27.64 40.5829 26.7035 39.2016 26.0762V26.1073ZM19.6008 1.67096L36.8728 11.6394L28.2096 16.6353L12.1719 5.96089L19.6008 1.67096ZM19.6008 21.6079L2.32881 11.6394L10.6737 6.82198L26.7036 17.5041L19.6008 21.6079ZM1.55254 12.9815L18.8245 22.9499V42.8791L1.55254 32.9106V12.9815ZM20.3771 42.8791V22.9499L27.3635 18.8927V24.9359C27.3635 25.1416 27.4453 25.3389 27.5908 25.4844C27.7364 25.6299 27.9339 25.7116 28.1397 25.7116C28.3456 25.7116 28.5431 25.6299 28.6887 25.4844C28.8342 25.3389 28.916 25.1416 28.916 24.9359V18.0006L37.6102 12.9815V25.5565C36.788 25.3319 35.9397 25.2172 35.0873 25.2151C33.4075 25.2194 31.7564 25.6516 30.2902 26.4709C28.8239 27.2901 27.5908 28.4694 26.7074 29.8973C25.824 31.3251 25.3194 32.9545 25.2414 34.6315C25.1633 36.3084 25.5143 37.9776 26.2612 39.4813L20.3771 42.8791ZM35.1262 43.4454C33.4757 43.4454 31.8623 42.9563 30.49 42.04C29.1177 41.1236 28.0481 39.8212 27.4165 38.2974C26.7849 36.7735 26.6196 35.0968 26.9416 33.4791C27.2636 31.8614 28.0584 30.3755 29.2254 29.2092C30.3925 28.0429 31.8794 27.2487 33.4982 26.9269C35.1169 26.6051 36.7948 26.7703 38.3196 27.4015C39.8444 28.0326 41.1477 29.1015 42.0647 30.4729C42.9816 31.8443 43.4711 33.4567 43.4711 35.106C43.469 37.3171 42.5891 39.4371 41.0246 41.0006C39.4601 42.5641 37.3387 43.4434 35.1262 43.4454Z" fill="white"/>
<path d="M38.8138 31.0799L34.0009 37.4255L31.4781 34.4622C31.3453 34.3027 31.1545 34.2025 30.9478 34.1836C30.7411 34.1647 30.5353 34.2286 30.3758 34.3613C30.2162 34.494 30.1159 34.6846 30.097 34.8912C30.0781 35.0978 30.1421 35.3034 30.2748 35.4629L33.3799 39.171C33.4528 39.2561 33.5433 39.3245 33.6451 39.3714C33.747 39.4182 33.8578 39.4425 33.9699 39.4425C34.0864 39.439 34.2007 39.4092 34.3042 39.3555C34.4077 39.3018 34.4977 39.2255 34.5676 39.1322L39.9627 32.0185C40.0638 31.9513 40.1477 31.8613 40.2077 31.7557C40.2677 31.6501 40.302 31.532 40.308 31.4108C40.3139 31.2895 40.2914 31.1686 40.242 31.0577C40.1927 30.9467 40.118 30.8489 40.024 30.7721C39.93 30.6953 39.8192 30.6416 39.7006 30.6153C39.582 30.589 39.4589 30.5909 39.3412 30.6209C39.2235 30.6508 39.1145 30.7079 39.0229 30.7877C38.9313 30.8674 38.8597 30.9675 38.8138 31.0799Z" fill="white"/>
</svg>
