<svg width="45" height="45" viewBox="0 0 45 45" fill="none" xmlns="http://www.w3.org/2000/svg">
<mask id="mask0_2016_969" style="mask-type:alpha" maskUnits="userSpaceOnUse" x="0" y="0" width="45" height="45">
<rect width="45" height="45" fill="#D9D9D9"/>
</mask>
<g mask="url(#mask0_2016_969)">
<path d="M18.7122 9.91992C18.5024 9.91992 18.3012 10.0026 18.1528 10.1498C18.0044 10.2969 17.921 10.4965 17.921 10.7047V18.1605C17.5155 18.2924 17.15 18.5237 16.8586 18.8331C16.5672 19.1424 16.3592 19.5197 16.254 19.93C16.1488 20.3403 16.1497 20.7703 16.2567 21.1801C16.3637 21.59 16.5732 21.9664 16.866 22.2745C17.1587 22.5826 17.5251 22.8124 17.9313 22.9426C18.3374 23.0728 18.7701 23.0992 19.1893 23.0194C19.6085 22.9395 20.0005 22.756 20.3291 22.4858C20.6578 22.2156 20.9123 21.8675 21.0691 21.4738C21.118 21.4839 21.1677 21.4891 21.2177 21.4895L26.5801 21.5418H26.5881C26.7842 21.5243 26.9667 21.4348 27.0999 21.2909C27.2331 21.147 27.3074 20.9591 27.3083 20.7637C27.3092 20.5684 27.2366 20.3797 27.1047 20.2347C26.9728 20.0896 26.7911 19.9985 26.5951 19.9793L21.2326 19.927H21.1649C21.0579 19.5177 20.8488 19.1416 20.5569 18.8334C20.2651 18.5252 19.8998 18.2947 19.4946 18.1631V10.7073C19.4953 10.5002 19.4135 10.3012 19.2669 10.1538C19.1204 10.0063 18.921 9.92222 18.7122 9.91992ZM18.7122 21.4982C18.5223 21.4982 18.3367 21.4423 18.1788 21.3377C18.0209 21.233 17.8979 21.0842 17.8252 20.9102C17.7526 20.7362 17.7337 20.5447 17.7708 20.36C17.8079 20.1753 17.8994 20.0056 18.0337 19.8725C18.1681 19.7393 18.3392 19.6487 18.5255 19.6121C18.7118 19.5755 18.9048 19.5944 19.0802 19.6666C19.2556 19.7388 19.4055 19.861 19.5108 20.0177C19.6162 20.1744 19.6724 20.3586 19.6722 20.5469C19.672 20.7995 19.5706 21.0417 19.3905 21.2202C19.2103 21.3988 18.966 21.4991 18.7114 21.4991L18.7122 21.4982Z" fill="white"/>
<path d="M20.6915 37.4596C20.2968 37.5049 19.9003 37.5346 19.4977 37.552V33.5821C19.5074 33.4737 19.4942 33.3644 19.459 33.2613C19.4238 33.1582 19.3673 33.0634 19.2932 32.9831C19.219 32.9028 19.1289 32.8387 19.0284 32.7948C18.9279 32.7509 18.8194 32.7283 18.7096 32.7283C18.5998 32.7283 18.4912 32.7509 18.3908 32.7948C18.2903 32.8387 18.2001 32.9028 18.126 32.9831C18.0519 33.0634 17.9954 33.1582 17.9602 33.2613C17.925 33.3644 17.9118 33.4737 17.9215 33.5821V37.552C9.09448 37.1501 1.98787 30.0971 1.59052 21.3421H5.59392C5.70327 21.3517 5.81343 21.3386 5.91741 21.3037C6.02139 21.2688 6.1169 21.2128 6.19787 21.1392C6.27884 21.0657 6.3435 20.9763 6.38773 20.8766C6.43197 20.777 6.45481 20.6693 6.45481 20.5604C6.45481 20.4515 6.43197 20.3438 6.38773 20.2442C6.3435 20.1445 6.27884 20.0551 6.19787 19.9816C6.1169 19.9081 6.02139 19.8521 5.91741 19.8172C5.81343 19.7822 5.70327 19.7691 5.59392 19.7787H1.59052C1.99578 11.022 9.10767 3.97339 17.9364 3.57928V7.55002C17.9268 7.65848 17.9399 7.76774 17.9752 7.87087C18.0104 7.974 18.0668 8.06873 18.141 8.14904C18.2151 8.22935 18.3052 8.29348 18.4057 8.33736C18.5062 8.38123 18.6148 8.40389 18.7245 8.40389C18.8343 8.40389 18.9429 8.38123 19.0434 8.33736C19.1438 8.29348 19.234 8.22935 19.3081 8.14904C19.3822 8.06873 19.4387 7.974 19.4739 7.87087C19.5091 7.76774 19.5223 7.65848 19.5126 7.55002V3.57928C28.3396 3.98124 35.4463 11.0351 35.8436 19.7918H31.8393C31.6423 19.8091 31.459 19.8989 31.3255 20.0436C31.1919 20.1883 31.1178 20.3773 31.1178 20.5735C31.1178 20.7696 31.1919 20.9587 31.3255 21.1034C31.459 21.2481 31.6423 21.3379 31.8393 21.3552H35.8436C35.8304 21.6403 35.8102 21.9245 35.7838 22.2062C35.7632 22.3135 35.7653 22.4239 35.7901 22.5303C35.8149 22.6368 35.8619 22.7369 35.928 22.8243C35.9941 22.9117 36.0778 22.9845 36.1739 23.0379C36.27 23.0913 36.3762 23.1243 36.4859 23.1347C36.5956 23.145 36.7062 23.1326 36.8107 23.0981C36.9152 23.0636 37.0113 23.0078 37.0929 22.9344C37.1744 22.8609 37.2396 22.7714 37.2842 22.6715C37.3289 22.5717 37.352 22.4636 37.3521 22.3544C37.4093 21.7641 37.44 21.1625 37.44 20.5661C37.4389 16.8939 36.3401 13.3044 34.2826 10.2514C32.2252 7.19838 29.3013 4.81888 25.8807 3.41362C22.4601 2.00837 18.6962 1.64044 15.0648 2.35636C11.4334 3.07228 8.09754 4.8399 5.47876 7.4358C2.86189 10.0335 1.08019 13.3424 0.358844 16.9442C-0.362503 20.5459 0.00888254 24.279 1.42606 27.6715C2.84324 31.064 5.2426 33.9636 8.32089 36.004C11.3992 38.0443 15.0182 39.1337 18.7206 39.1346C19.4403 39.1346 20.1594 39.0938 20.8744 39.0125C20.9844 39.0104 21.0929 38.9856 21.1928 38.9397C21.2926 38.8937 21.3817 38.8275 21.4543 38.7454C21.5269 38.6633 21.5815 38.5671 21.6145 38.4629C21.6474 38.3587 21.6581 38.2488 21.6458 38.1403C21.6336 38.0318 21.5986 37.927 21.5431 37.8327C21.4877 37.7383 21.413 37.6565 21.3238 37.5924C21.2346 37.5283 21.133 37.4834 21.0253 37.4606C20.9176 37.4377 20.8063 37.4374 20.6985 37.4596H20.6915Z" fill="white"/>
<path d="M12.6351 8.55188L11.8975 7.28498C11.8501 7.18773 11.783 7.10124 11.7004 7.03091C11.6177 6.96058 11.5213 6.90793 11.4172 6.87625C11.3131 6.84457 11.2035 6.83455 11.0953 6.84681C10.9872 6.85908 10.8827 6.89336 10.7885 6.94751C10.6942 7.00167 10.6123 7.07453 10.5478 7.16154C10.4833 7.24855 10.4376 7.34783 10.4135 7.45317C10.3895 7.55851 10.3876 7.66764 10.408 7.77373C10.4285 7.87982 10.4708 7.98058 10.5323 8.06971L11.2698 9.33574C11.3826 9.49909 11.5534 9.61415 11.748 9.65786C11.9427 9.70157 12.1468 9.67071 12.3194 9.57146C12.4921 9.47221 12.6206 9.3119 12.6791 9.12266C12.7377 8.93342 12.7219 8.72923 12.6351 8.55101V8.55188ZM7.39303 13.1783L6.11658 12.4485C5.9369 12.3624 5.73103 12.3468 5.54023 12.4048C5.34944 12.4629 5.18781 12.5903 5.08774 12.7616C4.98767 12.9328 4.95656 13.1353 5.00063 13.3283C5.0447 13.5214 5.16071 13.6908 5.3254 13.8026L6.60272 14.5341C6.78241 14.6203 6.98828 14.6359 7.17908 14.5778C7.36987 14.5198 7.5315 14.3923 7.63157 14.2211C7.73164 14.0498 7.76275 13.8474 7.71868 13.6543C7.6746 13.4613 7.5586 13.2919 7.39391 13.18L7.39303 13.1783ZM6.60536 26.5998L5.32804 27.3314C5.22934 27.378 5.14146 27.4443 5.06992 27.5263C4.99839 27.6083 4.94475 27.7041 4.9124 27.8076C4.88005 27.9112 4.86968 28.0203 4.88196 28.128C4.89423 28.2357 4.92887 28.3398 4.98371 28.4335C5.03854 28.5273 5.11237 28.6088 5.20055 28.6729C5.28872 28.737 5.38932 28.7822 5.49601 28.8058C5.6027 28.8294 5.71316 28.8308 5.82042 28.8099C5.92768 28.7891 6.02942 28.7464 6.11922 28.6846L7.39567 27.9539C7.56036 27.8421 7.67636 27.6727 7.72044 27.4796C7.76451 27.2866 7.73339 27.0841 7.63333 26.9129C7.53326 26.7416 7.37163 26.6142 7.18083 26.5561C6.99004 26.4981 6.78417 26.5137 6.60448 26.5998H6.60536ZM32.3972 12.7336C32.2919 12.5548 32.1196 12.4245 31.9179 12.3711C31.7162 12.3176 31.5014 12.3455 31.3203 12.4485L30.0429 13.18C29.8782 13.2919 29.7622 13.4613 29.7182 13.6543C29.6741 13.8474 29.7052 14.0498 29.8053 14.2211C29.9053 14.3923 30.067 14.5198 30.2578 14.5778C30.4486 14.6359 30.6544 14.6203 30.8341 14.5341L32.1106 13.8026C32.291 13.6981 32.4223 13.527 32.476 13.3267C32.5297 13.1264 32.5014 12.9132 32.3972 12.7336ZM12.3459 31.5122C12.1646 31.4096 11.9498 31.3822 11.7483 31.4359C11.5468 31.4897 11.3748 31.6202 11.2698 31.7991L10.5323 33.0651C10.4454 33.2433 10.4297 33.4475 10.4882 33.6368C10.5468 33.826 10.6752 33.9863 10.8479 34.0856C11.0206 34.1848 11.2247 34.2157 11.4193 34.172C11.614 34.1283 11.7848 34.0132 11.8975 33.8499L12.6351 32.5829C12.7396 32.4029 12.7679 32.189 12.7137 31.9883C12.6595 31.7875 12.5272 31.6163 12.3459 31.5122ZM25.4839 9.72462C25.6224 9.72434 25.7583 9.68803 25.8782 9.61934C25.998 9.55064 26.0976 9.45195 26.167 9.33312L26.9037 8.06709C26.966 7.97803 27.009 7.87712 27.0301 7.77073C27.0511 7.66434 27.0497 7.55479 27.0259 7.44897C27.0021 7.34315 26.9565 7.24337 26.8919 7.15591C26.8273 7.06846 26.7451 6.99523 26.6506 6.94084C26.556 6.88646 26.4511 6.8521 26.3425 6.83992C26.2339 6.82775 26.1239 6.83803 26.0195 6.87012C25.9151 6.90221 25.8185 6.9554 25.7359 7.02636C25.6532 7.09731 25.5863 7.18448 25.5393 7.28236L24.8018 8.54927C24.7335 8.66823 24.6979 8.80281 24.6983 8.93968C24.6987 9.07654 24.7352 9.21091 24.8042 9.32945C24.8731 9.448 24.9721 9.5466 25.0914 9.61546C25.2106 9.68432 25.346 9.72105 25.4839 9.722V9.72462ZM44.6553 40.1164L35.9891 25.1123C35.7639 24.7224 35.4405 24.3972 35.0505 24.1686C34.6605 23.94 34.2173 23.8158 33.7643 23.8081C33.3114 23.8005 32.8642 23.9097 32.4666 24.125C32.0689 24.3403 31.7345 24.6544 31.4961 25.0365L22.2656 39.8373C22.0217 40.2284 21.887 40.6767 21.8752 41.1363C21.8635 41.596 21.9751 42.0505 22.1988 42.4533C22.4224 42.8561 22.7499 43.1926 23.1478 43.4286C23.5458 43.6645 23.9997 43.7912 24.4633 43.7959L42.3635 43.9999H42.3942C42.8519 43.9985 43.3012 43.878 43.6972 43.6504C44.0932 43.4229 44.422 43.0962 44.6509 42.7031C44.8797 42.31 45.0006 41.8642 45.0014 41.4103C45.0021 40.9564 44.8828 40.5102 44.6553 40.1164ZM43.283 41.9282C43.1918 42.0862 43.0592 42.2167 42.8994 42.3062C42.7396 42.3957 42.5584 42.4407 42.3749 42.4366L24.4747 42.2334C24.2906 42.2312 24.1104 42.1805 23.9524 42.0866C23.7945 41.9927 23.6645 41.8588 23.5759 41.6988C23.4872 41.5387 23.4429 41.3582 23.4476 41.1756C23.4523 40.993 23.5058 40.8149 23.6027 40.6596L32.8332 25.8596C32.9243 25.7093 33.0533 25.5853 33.2074 25.4995C33.3616 25.4137 33.5355 25.3692 33.7123 25.3704H33.7316C33.9122 25.3713 34.0892 25.4199 34.2446 25.511C34.4 25.6022 34.5282 25.7327 34.616 25.8892L43.283 40.8932C43.376 41.0501 43.425 41.2288 43.425 41.4107C43.425 41.5927 43.376 41.7714 43.283 41.9282Z" fill="white"/>
<path d="M33.3958 30.0891C33.186 30.0891 32.9847 30.1718 32.8364 30.319C32.688 30.4661 32.6046 30.6657 32.6046 30.8738V35.9702C32.595 36.0787 32.6082 36.188 32.6434 36.2911C32.6786 36.3942 32.735 36.4889 32.8092 36.5693C32.8833 36.6496 32.9735 36.7137 33.0739 36.7576C33.1744 36.8014 33.283 36.8241 33.3927 36.8241C33.5025 36.8241 33.6111 36.8014 33.7116 36.7576C33.812 36.7137 33.9022 36.6496 33.9763 36.5693C34.0505 36.4889 34.1069 36.3942 34.1421 36.2911C34.1773 36.188 34.1905 36.0787 34.1809 35.9702V30.8704C34.1799 30.6639 34.097 30.4661 33.9501 30.3199C33.8031 30.1736 33.604 30.0907 33.3958 30.0891ZM33.3958 38.4622C33.186 38.4622 32.9847 38.5449 32.8364 38.692C32.688 38.8392 32.6046 39.0388 32.6046 39.2469V39.3481C32.6221 39.5435 32.7126 39.7253 32.8585 39.8577C33.0044 39.9902 33.195 40.0637 33.3927 40.0637C33.5905 40.0637 33.7811 39.9902 33.927 39.8577C34.0729 39.7253 34.1634 39.5435 34.1809 39.3481V39.2469C34.1809 39.0398 34.0984 38.8412 33.9513 38.6942C33.8043 38.5472 33.6046 38.4638 33.3958 38.4622Z" fill="white"/>
</g>
</svg>
