<svg width="45" height="45" viewBox="0 0 45 45" fill="none" xmlns="http://www.w3.org/2000/svg">
<mask id="mask0_2016_982" style="mask-type:alpha" maskUnits="userSpaceOnUse" x="0" y="0" width="45" height="45">
<rect width="45" height="45" fill="#D9D9D9"/>
</mask>
<g mask="url(#mask0_2016_982)">
<path d="M36.2546 24.6122V11.88C36.2543 11.7659 36.2243 11.654 36.1677 11.5554C36.1111 11.4568 36.0299 11.375 35.9322 11.3184L18.4461 1.08658C18.3492 1.02986 18.2392 1 18.1273 1C18.0154 1 17.9054 1.02986 17.8085 1.08658L0.330482 11.3136C0.230396 11.3693 0.146923 11.4513 0.088788 11.551C0.0306528 11.6506 -1.14448e-05 11.7642 3.20428e-09 11.88V34.12C2.8466e-06 34.2335 0.0294673 34.3449 0.0854321 34.4431C0.141397 34.5414 0.22189 34.623 0.318822 34.6797L17.8085 44.9134C17.9054 44.9701 18.0154 45 18.1273 45C18.2392 45 18.3492 44.9701 18.4461 44.9134L27.8397 39.4176C28.7302 40.7552 29.9419 41.8412 31.3608 42.5733C32.7796 43.3054 34.359 43.6595 35.9501 43.6023C37.5413 43.5451 39.0919 43.0785 40.456 42.2463C41.8202 41.4142 42.9529 40.2439 43.7476 38.8457C44.5423 37.4474 44.9729 35.8672 44.9988 34.2538C45.0246 32.6403 44.645 31.0468 43.8955 29.6231C43.146 28.1994 42.0514 26.9925 40.7147 26.1158C39.3779 25.2392 37.8431 24.7218 36.2546 24.6122ZM28.25 8.31566L12.037 17.8023L8.85505 15.9402L25.0677 6.45355L28.25 8.31566ZM11.3865 18.9032V30.7488L10.1841 29.3752C10.0934 29.2739 9.9743 29.2032 9.84274 29.1727C9.71119 29.1423 9.57357 29.1535 9.44851 29.2049L8.19828 29.7224V17.059L11.3865 18.9032ZM18.1273 2.39246L23.7924 5.70732L7.57931 15.1943L1.91466 11.8791L18.1273 2.39246ZM17.4897 43.2345L1.27529 33.747V12.9974L6.92299 16.3133V30.6885C6.92505 30.7953 6.95274 30.9001 7.00365 30.9936C7.05457 31.0872 7.12719 31.1669 7.21525 31.2257C7.30331 31.2844 7.40416 31.3206 7.5091 31.3311C7.61404 31.3416 7.71992 31.326 7.8176 31.2858L9.51683 30.5757L11.5261 32.888C11.5861 32.9569 11.6599 33.0121 11.7425 33.0499C11.8252 33.0877 11.9148 33.1073 12.0055 33.1073C12.0854 33.1073 12.1648 33.0932 12.2399 33.0656C12.3622 33.0197 12.4679 32.9374 12.5432 32.8295C12.6185 32.7216 12.6598 32.5932 12.6618 32.461V19.6494L17.4897 22.4849V43.2345ZM18.1273 21.3659L13.3123 18.5485L29.5253 9.06189L34.3398 11.8791L18.1273 21.3659ZM18.7649 43.2347V22.4849L34.9793 12.9973V24.6122C33.4425 24.7185 31.9551 25.2066 30.6485 26.0334C29.3419 26.8603 28.2562 28.0004 27.4872 29.3531C26.7183 30.7059 26.2898 32.2297 26.2395 33.79C26.1892 35.3504 26.5187 36.8993 27.1989 38.3L18.7649 43.2347ZM35.617 42.3156C34.0135 42.3156 32.4461 41.8337 31.1128 40.9309C29.7796 40.028 28.7405 38.7448 28.1269 37.2434C27.5133 35.742 27.3527 34.09 27.6656 32.4961C27.9784 30.9022 28.7505 29.4382 29.8843 28.2891C31.0181 27.14 32.4627 26.3574 34.0353 26.0404C35.608 25.7234 37.238 25.8861 38.7194 26.508C40.2008 27.1299 41.467 28.183 42.3578 29.5342C43.2487 30.8854 43.7241 32.474 43.7241 34.0991C43.7164 36.2758 42.8597 38.3611 41.341 39.9003C39.8223 41.4394 37.7647 42.3075 35.617 42.3153V42.3156Z" fill="white"/>
<path d="M2.91499 30.6118C2.74587 30.6118 2.58369 30.6799 2.46411 30.8011C2.34452 30.9223 2.27734 31.0867 2.27734 31.2581V33.651C2.27734 33.8224 2.34452 33.9868 2.46411 34.108C2.58369 34.2292 2.74587 34.2973 2.91499 34.2973C3.0841 34.2973 3.24629 34.2292 3.36587 34.108C3.48545 33.9868 3.55263 33.8224 3.55263 33.651V31.2581C3.55263 31.0867 3.48545 30.9223 3.36587 30.8011C3.24629 30.6799 3.0841 30.6118 2.91499 30.6118ZM5.46556 32.3844C5.29645 32.3844 5.13426 32.4525 5.01468 32.5737C4.8951 32.6949 4.82792 32.8592 4.82792 33.0306V35.1863C4.82792 35.3577 4.8951 35.5221 5.01468 35.6433C5.13426 35.7645 5.29645 35.8326 5.46556 35.8326C5.63468 35.8326 5.79686 35.7645 5.91644 35.6433C6.03603 35.5221 6.10321 35.3577 6.10321 35.1863V33.0306C6.10321 32.8592 6.03603 32.6949 5.91644 32.5737C5.79686 32.4525 5.63468 32.3844 5.46556 32.3844ZM8.10723 34.1569C7.93812 34.1569 7.77593 34.225 7.65635 34.3462C7.53677 34.4674 7.46959 34.6318 7.46959 34.8032V36.7013C7.46959 36.8727 7.53677 37.0371 7.65635 37.1583C7.77593 37.2794 7.93812 37.3475 8.10723 37.3475C8.27634 37.3475 8.43853 37.2794 8.55811 37.1583C8.67769 37.0371 8.74487 36.8727 8.74487 36.7013V34.8032C8.74487 34.6318 8.67769 34.4674 8.55811 34.3462C8.43853 34.225 8.27634 34.1569 8.10723 34.1569ZM10.6578 35.9295C10.4887 35.9295 10.3265 35.9976 10.2069 36.1188C10.0873 36.24 10.0202 36.4043 10.0202 36.5757V38.2163C10.0202 38.3877 10.0873 38.552 10.2069 38.6732C10.3265 38.7944 10.4887 38.8625 10.6578 38.8625C10.8269 38.8625 10.9891 38.7944 11.1087 38.6732C11.2283 38.552 11.2954 38.3877 11.2954 38.2163V36.5757C11.2954 36.4043 11.2283 36.24 11.1087 36.1188C10.9891 35.9976 10.8269 35.9295 10.6578 35.9295ZM12.6618 39.7663C12.6618 39.9377 12.729 40.1021 12.8486 40.2233C12.9682 40.3445 13.1304 40.4126 13.2995 40.4126C13.4686 40.4126 13.6308 40.3445 13.7504 40.2233C13.8699 40.1021 13.9371 39.9377 13.9371 39.7663V38.3483C13.9371 38.1769 13.8699 38.0125 13.7504 37.8913C13.6308 37.7701 13.4686 37.702 13.2995 37.702C13.1304 37.702 12.9682 37.7701 12.8486 37.8913C12.729 38.0125 12.6618 38.1769 12.6618 38.3483V39.7663ZM36.2546 33.8186V28.3518C36.2546 28.1804 36.1875 28.016 36.0679 27.8948C35.9483 27.7737 35.7861 27.7056 35.617 27.7056C35.4479 27.7056 35.2857 27.7737 35.1661 27.8948C35.0465 28.016 34.9794 28.1804 34.9794 28.3518V34.0988C34.9794 34.1872 34.9973 34.2747 35.032 34.3559C35.0667 34.437 35.1175 34.5101 35.1812 34.5705L38.0998 37.3401C38.2234 37.4563 38.3874 37.5181 38.5558 37.512C38.7243 37.5059 38.8835 37.4325 38.9987 37.3078C39.1139 37.1831 39.1757 37.0173 39.1706 36.8465C39.1655 36.6758 39.0938 36.514 38.9714 36.3966L36.2546 33.8186Z" fill="white"/>
</g>
</svg>
