<svg width="45" height="45" viewBox="0 0 45 45" fill="none" xmlns="http://www.w3.org/2000/svg">
<path d="M44.4356 17.6774L38.5652 12.6044V3.08918C38.5652 2.87391 38.4805 2.66746 38.3297 2.51524C38.179 2.36302 37.9745 2.27751 37.7613 2.27751H31.7638C31.5506 2.27751 31.3461 2.36302 31.1953 2.51524C31.0446 2.66746 30.9599 2.87391 30.9599 3.08918V6.01689L25.1626 1.00399C24.4213 0.356405 23.4738 0 22.4935 0C21.5132 0 20.5657 0.356405 19.8244 1.00399L0.549806 17.679C0.303153 17.9009 0.128507 18.1927 0.0486763 18.5164C-0.0311548 18.84 -0.0124601 19.1805 0.102319 19.4932C0.217097 19.806 0.422625 20.0765 0.692061 20.2695C0.961496 20.4625 1.28232 20.569 1.61262 20.5751H6.42102V35.9328C6.42187 37.7825 7.14945 39.5564 8.44412 40.8651C9.73879 42.1739 11.4948 42.9108 13.3269 42.914H21.7539C21.9671 42.914 22.1716 42.8285 22.3224 42.6763C22.4731 42.524 22.5578 42.3176 22.5578 42.1023C22.5578 41.8871 22.4731 41.6806 22.3224 41.5284C22.1716 41.3762 21.9671 41.2906 21.7539 41.2906H13.3269C11.9213 41.2878 10.5741 40.7223 9.58088 39.718C8.58768 38.7138 8.02955 37.3528 8.02892 35.9336V19.7626C8.02892 19.5473 7.94422 19.3409 7.79345 19.1887C7.64268 19.0364 7.43819 18.9509 7.22497 18.9509L1.59735 18.9095L20.8687 2.23692C21.3198 1.84288 21.8963 1.62601 22.4927 1.62601C23.0892 1.62601 23.6657 1.84288 24.1167 2.23692L31.2396 8.39753C31.3571 8.49596 31.4997 8.55885 31.6511 8.57895C31.8024 8.59906 31.9563 8.57555 32.095 8.51114C32.2337 8.44673 32.3515 8.34405 32.4349 8.21495C32.5182 8.08584 32.5637 7.93557 32.5662 7.78147V3.90167H36.9557V12.977C36.9557 13.0942 36.9808 13.2101 37.0294 13.3166C37.078 13.4231 37.1488 13.5177 37.2371 13.5939L43.3728 18.9509H37.7604C37.5472 18.9509 37.3427 19.0364 37.192 19.1887C37.0412 19.3409 36.9565 19.5473 36.9565 19.7626V22.7666C36.9565 22.9819 37.0412 23.1883 37.192 23.3405C37.3427 23.4928 37.5472 23.5783 37.7604 23.5783C37.9737 23.5783 38.1782 23.4928 38.3289 23.3405C38.4797 23.1883 38.5644 22.9819 38.5644 22.7666V20.5751H43.3728C43.7055 20.5738 44.0299 20.4699 44.3026 20.2774C44.5753 20.0848 44.7832 19.8128 44.8986 19.4978C45.014 19.1827 45.0313 18.8395 44.9483 18.5142C44.8653 18.1889 44.6859 17.897 44.434 17.6774H44.4356Z" fill="white"/>
<path d="M32.1416 23.8948C29.3695 23.8948 26.711 25.0066 24.7508 26.9856C22.7907 28.9645 21.6895 31.6486 21.6895 34.4474C21.6895 37.2461 22.7907 39.9302 24.7508 41.9092C26.711 43.8882 29.3695 44.9999 32.1416 44.9999C46.008 44.4204 46.004 24.4727 32.1416 23.8948ZM32.1416 43.3766C20.4088 42.8863 20.412 26.0068 32.1416 25.5181C34.4872 25.5181 36.7367 26.4589 38.3954 28.1334C40.054 29.808 40.9858 32.0792 40.9858 34.4474C40.9858 36.8155 40.054 39.0867 38.3954 40.7613C36.7367 42.4358 34.4872 43.3766 32.1416 43.3766Z" fill="white"/>
<path d="M34.4159 31.0042L32.1407 33.2996L29.8664 31.0042C29.7147 30.8564 29.5117 30.7745 29.3009 30.7764C29.0901 30.7782 28.8884 30.8636 28.7394 31.0141C28.5903 31.1646 28.5058 31.3682 28.5039 31.581C28.5021 31.7938 28.5831 31.9988 28.7296 32.1519L31.0048 34.4473L28.7296 36.7436C28.5831 36.8966 28.5021 37.1017 28.5039 37.3145C28.5058 37.5273 28.5903 37.7309 28.7394 37.8814C28.8884 38.0319 29.0901 38.1172 29.3009 38.1191C29.5117 38.1209 29.7147 38.0391 29.8664 37.8913L32.1415 35.595L34.4159 37.8913C34.5675 38.0391 34.7706 38.1209 34.9814 38.1191C35.1922 38.1172 35.3938 38.0319 35.5429 37.8814C35.6919 37.7309 35.7765 37.5273 35.7783 37.3145C35.7802 37.1017 35.6991 36.8966 35.5527 36.7436L33.2775 34.4473L35.5527 32.1519C35.6991 31.9988 35.7802 31.7938 35.7783 31.581C35.7765 31.3682 35.6919 31.1646 35.5429 31.0141C35.3938 30.8636 35.1922 30.7782 34.9814 30.7764C34.7706 30.7745 34.5675 30.8564 34.4159 31.0042Z" fill="white"/>
</svg>
