<svg width="15" height="15" viewBox="0 0 15 15" fill="none" xmlns="http://www.w3.org/2000/svg">
<mask id="mask0_788_1196" style="mask-type:alpha" maskUnits="userSpaceOnUse" x="0" y="0" width="15" height="15">
<rect width="15" height="15" fill="#D9D9D9"/>
</mask>
<g mask="url(#mask0_788_1196)">
<path d="M14.2491 12.9636C14.2494 12.9527 14.2496 12.9418 14.2496 12.931C14.2493 12.6568 14.1439 12.3938 13.9564 12.1999C13.7689 12.0059 13.5148 11.8969 13.2497 11.8966V7.11207L14.1496 6.41379C14.1809 6.38954 14.2062 6.35805 14.2236 6.32184C14.2409 6.28563 14.2498 6.24571 14.2496 6.20529C14.2494 6.16487 14.24 6.12507 14.2222 6.08909C14.2044 6.05311 14.1787 6.02194 14.1471 5.99809L11.9997 4.37463V1.55172C12.066 1.55172 12.1296 1.52448 12.1765 1.47598C12.2234 1.42747 12.2497 1.36169 12.2497 1.2931V0.258621C12.2497 0.19003 12.2234 0.124249 12.1765 0.0757482C12.1296 0.0272474 12.066 0 11.9997 0H9.49989C9.43359 0 9.37 0.0272474 9.32312 0.0757482C9.27624 0.124249 9.2499 0.19003 9.2499 0.258621V1.2931C9.2499 1.36169 9.27624 1.42747 9.32312 1.47598C9.37 1.52448 9.43359 1.55172 9.49989 1.55172V2.48473L7.64749 1.0843C7.60468 1.05193 7.55303 1.03449 7.5 1.03449C7.44697 1.03449 7.39532 1.05193 7.35251 1.0843L0.852878 5.99809C0.821333 6.02194 0.79563 6.05311 0.777832 6.08909C0.760034 6.12507 0.750637 6.16487 0.750394 6.20529C0.750151 6.24571 0.759069 6.28563 0.776432 6.32184C0.793796 6.35805 0.819122 6.38954 0.850378 6.41379L1.75033 7.11207V11.8966C1.48522 11.8969 1.23105 12.0059 1.04359 12.1999C0.856128 12.3938 0.750682 12.6568 0.750384 12.931C0.750384 12.9418 0.750572 12.9527 0.750947 12.9636C0.515113 13.0264 0.309509 13.176 0.172712 13.3844C0.0359141 13.5928 -0.0226758 13.8456 0.00793486 14.0956C0.0385456 14.3455 0.156253 14.5752 0.338973 14.7418C0.521692 14.9083 0.756866 15.0001 1.00037 15H13.9996C14.2431 15.0001 14.4783 14.9083 14.661 14.7418C14.8437 14.5752 14.9615 14.3455 14.9921 14.0956C15.0227 13.8456 14.9641 13.5928 14.8273 13.3844C14.6905 13.176 14.4849 13.0264 14.2491 12.9636ZM9.74987 0.517241H11.7498V1.03448H9.74987V0.517241ZM9.99986 2.84483V1.55172H11.4998V3.99666L9.9762 2.84483H9.99986ZM7.5 1.6134L13.5795 6.20961L12.9974 6.66126L7.64705 2.63567C7.60432 2.60351 7.55284 2.58619 7.5 2.58619C7.44716 2.58619 7.39568 2.60351 7.35295 2.63567L2.00259 6.66126L1.4205 6.20961L7.5 1.6134ZM0.500398 13.9655C0.500537 13.8297 0.552231 13.6994 0.644346 13.6027C0.73646 13.5059 0.861622 13.4505 0.99287 13.4483H0.993464C1.00624 13.4501 1.01902 13.4517 1.03206 13.4526C1.07348 13.4553 1.11491 13.4473 1.15259 13.4293C1.19028 13.4113 1.22304 13.3838 1.24792 13.3495C1.27279 13.3151 1.28901 13.2748 1.29509 13.2324C1.30117 13.1899 1.29693 13.1465 1.28276 13.1062C1.26207 13.0502 1.2511 12.9909 1.25036 12.931C1.25051 12.7939 1.30324 12.6624 1.39697 12.5655C1.4907 12.4685 1.61777 12.414 1.75033 12.4138V14.4828H1.00037C0.867817 14.4826 0.740739 14.428 0.64701 14.3311C0.553281 14.2341 0.500555 14.1026 0.500398 13.9655ZM11.2498 14.4828H8.24996V8.7931H11.2498V14.4828ZM11.7498 14.4828V8.53448C11.7498 8.46589 11.7234 8.40011 11.6765 8.35161C11.6297 8.30311 11.5661 8.27586 11.4998 8.27586H7.99997C7.93367 8.27586 7.87009 8.30311 7.8232 8.35161C7.77632 8.40011 7.74999 8.46589 7.74999 8.53448V14.4828H2.2503V7.11446L7.5 3.16461L12.7497 7.11446V14.4828H11.7498ZM13.9996 14.4828H13.2497V12.4138C13.3822 12.414 13.5093 12.4685 13.603 12.5655C13.6968 12.6624 13.7495 12.7939 13.7496 12.931C13.7489 12.991 13.7379 13.0503 13.7172 13.1063C13.7031 13.1466 13.6988 13.19 13.7049 13.2325C13.711 13.275 13.7272 13.3152 13.7521 13.3496C13.777 13.384 13.8097 13.4114 13.8474 13.4294C13.8851 13.4474 13.9265 13.4554 13.9679 13.4527C13.981 13.4518 13.9938 13.4502 14.0065 13.4484H14.0071C14.1397 13.4494 14.2665 13.5049 14.3596 13.6026C14.4526 13.7004 14.5043 13.8323 14.5034 13.9695C14.5024 14.1067 14.4487 14.2379 14.3543 14.3341C14.2598 14.4304 14.1322 14.4839 13.9996 14.4829V14.4828Z" fill="#EFB93F"/>
<path d="M6.49786 8.27637H3.49803C3.43173 8.27637 3.36815 8.30361 3.32127 8.35212C3.27438 8.40062 3.24805 8.4664 3.24805 8.53499V12.1557C3.24805 12.2243 3.27438 12.29 3.32127 12.3385C3.36815 12.3871 3.43173 12.4143 3.49803 12.4143H6.49786C6.56416 12.4143 6.62775 12.3871 6.67463 12.3385C6.72151 12.29 6.74785 12.2243 6.74785 12.1557V8.53499C6.74785 8.4664 6.72151 8.40062 6.67463 8.35212C6.62775 8.30361 6.56416 8.27637 6.49786 8.27637ZM6.24788 10.0867H5.24793V8.79361H6.24788V10.0867ZM4.74796 8.79361V10.0867H3.74802V8.79361H4.74796ZM3.74802 10.604H4.74796V11.8971H3.74802V10.604ZM5.24793 11.8971V10.604H6.24788V11.8971H5.24793Z" fill="#EFB93F"/>
<path d="M9.23336 11.4785C9.28619 11.3466 9.22562 11.1953 9.09807 11.1406C8.97051 11.086 8.82428 11.1486 8.77145 11.2806C8.71861 11.4126 8.77918 11.5638 8.90674 11.6185C9.03429 11.6732 9.18053 11.6105 9.23336 11.4785Z" fill="#EFB93F"/>
</g>
</svg>
