<svg width="44" height="44" viewBox="0 0 44 44" fill="none" xmlns="http://www.w3.org/2000/svg">
<mask id="mask0_86_135" style="mask-type:alpha" maskUnits="userSpaceOnUse" x="0" y="0" width="44" height="44">
<rect width="44" height="44" fill="#D9D9D9"/>
</mask>
<g mask="url(#mask0_86_135)">
<path d="M22 8.06667C19.2442 8.06667 16.5504 8.88384 14.2591 10.4149C11.9677 11.9459 10.1819 14.122 9.12728 16.6679C8.0727 19.2139 7.79677 22.0155 8.33439 24.7183C8.87201 27.4211 10.199 29.9037 12.1476 31.8524C14.0963 33.801 16.5789 35.128 19.2817 35.6656C21.9845 36.2032 24.7861 35.9273 27.3321 34.8727C29.878 33.8181 32.0541 32.0323 33.5851 29.7409C35.1162 27.4496 35.9333 24.7558 35.9333 22C35.9291 18.306 34.4597 14.7644 31.8476 12.1524C29.2356 9.54028 25.694 8.07094 22 8.06667ZM22 34.4667C19.5343 34.4667 17.124 33.7355 15.0739 32.3657C13.0238 30.9958 11.4259 29.0488 10.4823 26.7708C9.53873 24.4928 9.29185 21.9862 9.77288 19.5679C10.2539 17.1496 11.4412 14.9282 13.1847 13.1847C14.9282 11.4412 17.1496 10.2539 19.5679 9.77288C21.9862 9.29185 24.4928 9.53873 26.7708 10.4823C29.0488 11.4259 30.9958 13.0238 32.3657 15.0739C33.7355 17.124 34.4667 19.5343 34.4667 22C34.463 25.3052 33.1483 28.474 30.8112 30.8112C28.474 33.1483 25.3052 34.463 22 34.4667ZM42.3339 17.3441L39.5325 16.6437C39.1891 15.5181 38.7374 14.4285 38.1839 13.3899L39.6704 10.9135C39.9232 10.493 40.028 9.99997 39.968 9.51301C39.9081 9.02605 39.6869 8.57317 39.3397 8.22653L35.7735 4.6596C35.4264 4.31277 34.9734 4.09191 34.4864 4.03211C33.9994 3.97232 33.5064 4.07703 33.0858 4.3296L30.6101 5.81607C29.5716 5.2623 28.4819 4.81041 27.3563 4.46673L26.6559 1.6654C26.5373 1.18935 26.2628 0.766703 25.876 0.464866C25.4892 0.163028 25.0125 -0.000624792 24.5219 1.79259e-06H19.4773C18.9866 -0.000584143 18.5099 0.163174 18.1231 0.465155C17.7363 0.767135 17.4618 1.18994 17.3433 1.66613L16.643 4.46747C15.5179 4.81076 14.4287 5.26215 13.3907 5.81533L10.9142 4.32887C10.4937 4.07594 10.0007 3.97109 9.51372 4.03103C9.02673 4.09097 8.57383 4.31226 8.22727 4.6596L4.66033 8.2258C4.31339 8.57278 4.09245 9.02581 4.03265 9.51282C3.97285 9.99984 4.07764 10.4929 4.33034 10.9135L5.8168 13.3892C5.26303 14.4277 4.81114 15.5174 4.46747 16.643L1.66614 17.3433C1.18982 17.4618 0.766923 17.7364 0.464929 18.1234C0.162935 18.5103 -0.000747348 18.9872 2.56536e-06 19.4781V24.5219C-0.00058337 25.0126 0.163175 25.4894 0.465155 25.8762C0.767136 26.263 1.18994 26.5375 1.66614 26.6559L4.46747 27.3563C4.81072 28.4816 5.26211 29.571 5.81534 30.6093L4.32887 33.0858C4.07607 33.5063 3.97129 33.9993 4.03123 34.4863C4.09117 34.9732 4.31238 35.4261 4.6596 35.7727L8.2258 39.3397C8.57271 39.6867 9.02575 39.9077 9.5128 39.9675C9.99985 40.0273 10.4929 39.9225 10.9135 39.6697L13.3892 38.1832C14.4277 38.737 15.5174 39.1889 16.643 39.5325L17.3433 42.3339C17.4618 42.8102 17.7364 43.2331 18.1234 43.5351C18.5103 43.8371 18.9872 44.0007 19.4781 44H24.5219C25.0126 44.0006 25.4894 43.8368 25.8762 43.5348C26.263 43.2329 26.5375 42.8101 26.6559 42.3339L27.3563 39.5325C28.4819 39.1891 29.5715 38.7374 30.6101 38.1839L33.0865 39.6704C33.507 39.9233 34 40.0282 34.487 39.9682C34.974 39.9083 35.4269 39.687 35.7735 39.3397L39.3404 35.7735C39.6873 35.4265 39.9083 34.9735 39.9681 34.4864C40.0279 33.9994 39.9231 33.5064 39.6704 33.0858L38.1839 30.6101C38.7377 29.5716 39.1896 28.4819 39.5333 27.3563L42.3346 26.6559C42.8107 26.5373 43.2333 26.2628 43.5351 25.876C43.837 25.4892 44.0006 25.0125 44 24.5219V19.4773C44.0006 18.9866 43.8368 18.5099 43.5348 18.1231C43.2329 17.7363 42.8101 17.4625 42.3339 17.3441ZM42.5333 24.5212C42.5335 24.6848 42.4789 24.8438 42.3783 24.9728C42.2778 25.1018 42.1369 25.1935 41.9782 25.2333L38.7691 26.0355C38.6437 26.0669 38.5288 26.131 38.436 26.2211C38.3433 26.3113 38.2761 26.4243 38.2411 26.5489C37.8786 27.8455 37.3613 29.0939 36.7004 30.2669C36.6368 30.3797 36.6043 30.5073 36.6061 30.6368C36.6079 30.7662 36.644 30.8929 36.7107 31.0039L38.412 33.8404C38.4961 33.9807 38.531 34.145 38.5111 34.3074C38.4911 34.4697 38.4176 34.6208 38.302 34.7365L34.7365 38.3013C34.6212 38.4175 34.4702 38.4917 34.3077 38.5119C34.1452 38.5321 33.9807 38.4972 33.8404 38.4127L31.0039 36.7107C30.8928 36.6438 30.766 36.6077 30.6364 36.6059C30.5068 36.6041 30.379 36.6367 30.2661 36.7004C29.0933 37.361 27.8453 37.8781 26.5489 38.2404C26.4243 38.2754 26.3111 38.3427 26.221 38.4356C26.1308 38.5285 26.0668 38.6435 26.0355 38.7691L25.2333 41.9775C25.1937 42.1362 25.1022 42.2771 24.9733 42.3778C24.8444 42.4785 24.6855 42.5333 24.5219 42.5333H19.4773C19.3139 42.5333 19.1551 42.4787 19.0262 42.3781C18.8973 42.2775 18.8057 42.1368 18.766 41.9782L17.9637 38.7691C17.9323 38.6437 17.8683 38.5288 17.7781 38.436C17.688 38.3433 17.5749 38.2761 17.4504 38.2411C16.1537 37.8786 14.9054 37.3613 13.7324 36.7004C13.6196 36.6369 13.492 36.6044 13.3625 36.6062C13.2331 36.608 13.1064 36.6441 12.9954 36.7107L10.1589 38.412C10.0185 38.4959 9.85422 38.5306 9.69194 38.5107C9.52965 38.4907 9.37863 38.4173 9.26273 38.302L5.698 34.7365C5.58199 34.6211 5.50798 34.4701 5.48778 34.3077C5.46757 34.1453 5.50234 33.9808 5.58653 33.8404L7.2886 31.0039C7.35542 30.8928 7.39158 30.766 7.39338 30.6364C7.39519 30.5068 7.36257 30.379 7.29887 30.2661C6.63823 29.0933 6.12118 27.8453 5.75887 26.5489C5.72388 26.4243 5.65653 26.3111 5.56367 26.221C5.4708 26.1308 5.35573 26.0668 5.23013 26.0355L2.0218 25.2333C1.86334 25.1936 1.72267 25.1021 1.62211 24.9734C1.52154 24.8446 1.46684 24.686 1.46667 24.5227V19.4773C1.46667 19.3139 1.5213 19.1551 1.62188 19.0262C1.72246 18.8973 1.86322 18.8057 2.0218 18.766L5.23087 17.9637C5.35633 17.9323 5.47125 17.8683 5.56397 17.7781C5.6567 17.688 5.72394 17.5749 5.75887 17.4504C6.12136 16.1537 6.63866 14.9054 7.2996 13.7324C7.36317 13.6196 7.39571 13.492 7.3939 13.3625C7.3921 13.2331 7.35602 13.1064 7.28933 12.9954L5.588 10.1589C5.50388 10.0186 5.46901 9.85424 5.48894 9.69189C5.50887 9.52954 5.58245 9.3785 5.698 9.26273L9.26347 5.698C9.37906 5.58222 9.53001 5.50836 9.69237 5.48817C9.85472 5.46797 10.0192 5.50259 10.1596 5.58653L12.9961 7.2886C13.1073 7.35528 13.234 7.39135 13.3636 7.39315C13.4932 7.39496 13.6209 7.36243 13.7339 7.29887C14.9067 6.63823 16.1547 6.12118 17.4511 5.75887C17.5757 5.72388 17.6889 5.65653 17.779 5.56366C17.8692 5.4708 17.9332 5.35573 17.9645 5.23013L18.7667 2.0218C18.8064 1.86334 18.8979 1.72267 19.0266 1.62211C19.1554 1.52154 19.314 1.46684 19.4773 1.46667H24.5212C24.6847 1.46667 24.8435 1.5213 24.9724 1.62188C25.1012 1.72246 25.1928 1.86322 25.2325 2.0218L26.0348 5.23087C26.0662 5.35633 26.1302 5.47125 26.2204 5.56397C26.3105 5.6567 26.4236 5.72394 26.5481 5.75887C27.8448 6.12136 29.0931 6.63866 30.2661 7.2996C30.379 7.36302 30.5066 7.39548 30.636 7.39367C30.7654 7.39187 30.8921 7.35587 31.0031 7.28933L33.8397 5.588C33.98 5.50413 34.1443 5.46941 34.3066 5.48933C34.4689 5.50925 34.6199 5.58267 34.7358 5.698L38.3013 9.26347C38.417 9.3791 38.4908 9.53016 38.5107 9.69258C38.5307 9.85499 38.4956 10.0194 38.4113 10.1596L36.7099 12.9961C36.6431 13.1072 36.607 13.234 36.6051 13.3636C36.6033 13.4932 36.636 13.621 36.6997 13.7339C37.3603 14.9067 37.8774 16.1547 38.2397 17.4511C38.2747 17.5757 38.342 17.6889 38.4349 17.779C38.5277 17.8692 38.6428 17.9332 38.7684 17.9645L41.9767 18.7667C42.1354 18.8063 42.2764 18.8978 42.3771 19.0267C42.4778 19.1556 42.5326 19.3145 42.5326 19.4781L42.5333 24.5212ZM20.658 12.1895L12.0193 18.8349C11.8653 18.9537 11.7647 19.1288 11.7397 19.3217C11.7147 19.5147 11.7672 19.7096 11.8859 19.8638L13.6605 22.1665C13.7764 22.3168 13.9463 22.416 14.1342 22.4431C14.322 22.4702 14.513 22.4231 14.6667 22.3117V30.0667C14.6667 30.2612 14.7439 30.4477 14.8815 30.5852C15.019 30.7227 15.2055 30.8 15.4 30.8H28.5567C28.7512 30.8 28.9377 30.7227 29.0753 30.5852C29.2128 30.4477 29.2901 30.2612 29.2901 30.0667V22.2845L29.3121 22.3007C29.4661 22.419 29.6608 22.4714 29.8534 22.4464C30.046 22.4214 30.2208 22.321 30.3395 22.1672L32.1141 19.8638C32.2327 19.7095 32.2851 19.5145 32.26 19.3216C32.2348 19.1287 32.1341 18.9536 31.9799 18.8349L23.342 12.1902C22.9572 11.8944 22.4854 11.7341 22 11.7341C21.5146 11.7341 21.0428 11.8937 20.658 12.1895ZM23.4667 29.3333H20.4901V24.2H23.4667V29.3333ZM27.8234 29.3333H24.9333V23.4667C24.9333 23.2722 24.8561 23.0856 24.7185 22.9481C24.581 22.8106 24.3945 22.7333 24.2 22.7333H19.7567C19.5622 22.7333 19.3757 22.8106 19.2382 22.9481C19.1007 23.0856 19.0234 23.2722 19.0234 23.4667V29.3333H16.1333V21.1889L22 16.6745L27.8234 21.1552V29.3333ZM29.6245 20.691L22.4466 15.1683C22.3185 15.0699 22.1615 15.0166 22 15.0166C21.8385 15.0166 21.6815 15.0699 21.5534 15.1683L14.3755 20.6903L13.4955 19.5499L21.5527 13.3525C21.681 13.2539 21.8383 13.1998 22.0001 13.1999C22.1619 13.2001 22.3192 13.2537 22.4473 13.3525L30.5045 19.5499L29.6245 20.691Z" fill="#16191E"/>
</g>
</svg>
