<svg width="137" height="29" viewBox="0 0 137 29" fill="none" xmlns="http://www.w3.org/2000/svg">
<path d="M48.9953 17.324V0.936432H52.562L61.1737 12.6418L60.3993 12.5248C60.3211 12.0098 60.2586 11.5181 60.2116 11.0499C60.1647 10.5817 60.1178 10.1213 60.0708 9.66867C60.0395 9.21606 60.0083 8.75565 59.977 8.28743C59.9613 7.81922 59.9457 7.31198 59.93 6.76573C59.93 6.21948 59.93 5.6264 59.93 4.98651V0.936432H63.8018V17.324H60.1882L51.201 5.24403L52.3977 5.4079C52.4759 6.15705 52.5385 6.79694 52.5854 7.32759C52.648 7.84263 52.6949 8.30304 52.7262 8.70883C52.7732 9.11462 52.8044 9.48139 52.8201 9.80914C52.8357 10.1369 52.8436 10.4646 52.8436 10.7924C52.8592 11.1045 52.867 11.4557 52.867 11.8459V17.324H48.9953Z" fill="#16191E"/>
<path d="M73.461 17.5581C72.0844 17.5581 70.8877 17.285 69.8708 16.7387C68.854 16.1769 68.064 15.4199 67.5009 14.4679C66.9377 13.5002 66.6561 12.3999 66.6561 11.167C66.6561 10.2149 66.8125 9.34092 67.1254 8.54495C67.4383 7.74898 67.8763 7.06227 68.4395 6.4848C69.0026 5.89173 69.6675 5.43912 70.434 5.12697C71.2162 4.79922 72.0687 4.63534 72.9917 4.63534C73.8677 4.63534 74.6656 4.79142 75.3852 5.10356C76.1204 5.41571 76.754 5.85271 77.2858 6.41457C77.8177 6.97643 78.2244 7.63973 78.506 8.40449C78.7876 9.16924 78.9127 10.0042 78.8815 10.9094L78.858 11.9161H68.9322L68.3925 9.80914H75.8075L75.4086 10.2539V9.78573C75.3773 9.39555 75.2522 9.05219 75.0332 8.75565C74.8298 8.44351 74.556 8.20159 74.2119 8.02991C73.8677 7.85824 73.4767 7.7724 73.0386 7.7724C72.4285 7.7724 71.9045 7.89725 71.4665 8.14697C71.0441 8.38108 70.7234 8.73224 70.5044 9.20046C70.2854 9.65307 70.1759 10.2149 70.1759 10.886C70.1759 11.5728 70.3167 12.1736 70.5983 12.6887C70.8955 13.1881 71.3179 13.5783 71.8654 13.8592C72.4285 14.1401 73.0934 14.2806 73.8599 14.2806C74.3918 14.2806 74.8611 14.2026 75.2678 14.0465C75.6902 13.8904 76.1439 13.6251 76.6288 13.2505L78.3887 15.7321C77.9037 16.1535 77.3875 16.4968 76.84 16.7622C76.2925 17.0275 75.7293 17.2226 75.1505 17.3474C74.5873 17.4879 74.0242 17.5581 73.461 17.5581Z" fill="#16191E"/>
<path d="M86.7408 17.5581C85.5363 17.5581 84.4569 17.2772 83.5026 16.7153C82.5484 16.1535 81.7897 15.3887 81.2265 14.4211C80.679 13.4378 80.4052 12.3297 80.4052 11.0967C80.4052 9.86376 80.679 8.76345 81.2265 7.79581C81.7897 6.81255 82.5484 6.03999 83.5026 5.47813C84.4569 4.91627 85.5363 4.63534 86.7408 4.63534C87.8515 4.63534 88.8683 4.83043 89.7913 5.22061C90.7299 5.6108 91.473 6.15705 92.0205 6.85937L89.979 9.2941C89.76 9.04438 89.5019 8.81028 89.2047 8.59177C88.9074 8.37327 88.5789 8.20159 88.2191 8.07674C87.8593 7.95188 87.4839 7.88945 87.0928 7.88945C86.4984 7.88945 85.9743 8.02991 85.5206 8.31085C85.067 8.57617 84.715 8.95074 84.4647 9.43457C84.2144 9.91839 84.0893 10.4724 84.0893 11.0967C84.0893 11.6898 84.2144 12.2283 84.4647 12.7121C84.7306 13.1959 85.0904 13.5783 85.5441 13.8592C85.9978 14.1401 86.514 14.2806 87.0928 14.2806C87.4995 14.2806 87.875 14.2338 88.2191 14.1401C88.5633 14.0309 88.8762 13.8748 89.1577 13.6719C89.455 13.469 89.7287 13.2193 89.979 12.9228L91.997 15.3809C91.4651 16.052 90.7221 16.5827 89.7678 16.9729C88.8292 17.363 87.8202 17.5581 86.7408 17.5581Z" fill="#16191E"/>
<path d="M97.6738 13.6719L96.2893 10.8626L102.109 4.89286H107.06L97.6738 13.6719ZM94.0601 17.324V0H97.8146V17.324H94.0601ZM102.508 17.324L98.1196 11.6586L100.771 9.59844L106.943 17.324H102.508Z" fill="#16191E"/>
<path d="M108.658 17.324V0H112.412V17.324H108.658Z" fill="#16191E"/>
<path d="M121.468 17.5581C120.092 17.5581 118.895 17.285 117.878 16.7387C116.861 16.1769 116.071 15.4199 115.508 14.4679C114.945 13.5002 114.663 12.3999 114.663 11.167C114.663 10.2149 114.82 9.34092 115.133 8.54495C115.446 7.74898 115.884 7.06227 116.447 6.4848C117.01 5.89173 117.675 5.43912 118.441 5.12697C119.224 4.79922 120.076 4.63534 120.999 4.63534C121.875 4.63534 122.673 4.79142 123.393 5.10356C124.128 5.41571 124.761 5.85271 125.293 6.41457C125.825 6.97643 126.232 7.63973 126.513 8.40449C126.795 9.16924 126.92 10.0042 126.889 10.9094L126.865 11.9161H116.94L116.4 9.80914H123.815L123.416 10.2539V9.78573C123.385 9.39555 123.26 9.05219 123.041 8.75565C122.837 8.44351 122.563 8.20159 122.219 8.02991C121.875 7.85824 121.484 7.7724 121.046 7.7724C120.436 7.7724 119.912 7.89725 119.474 8.14697C119.051 8.38108 118.731 8.73224 118.512 9.20046C118.293 9.65307 118.183 10.2149 118.183 10.886C118.183 11.5728 118.324 12.1736 118.606 12.6887C118.903 13.1881 119.325 13.5783 119.873 13.8592C120.436 14.1401 121.101 14.2806 121.867 14.2806C122.399 14.2806 122.868 14.2026 123.275 14.0465C123.698 13.8904 124.151 13.6251 124.636 13.2505L126.396 15.7321C125.911 16.1535 125.395 16.4968 124.847 16.7622C124.3 17.0275 123.737 17.2226 123.158 17.3474C122.595 17.4879 122.032 17.5581 121.468 17.5581Z" fill="#16191E"/>
<path d="M47.0752 28.6953C47.1395 28.4277 47.2253 28.1307 47.3326 27.8043C47.4452 27.4726 47.5713 27.1274 47.7107 26.7689C47.8555 26.4104 48.003 26.0545 48.1532 25.7014C48.3034 25.3482 48.4482 25.0111 48.5877 24.69C48.7271 24.3636 48.888 24.0345 49.0704 23.7027C49.1079 23.6385 49.1401 23.5797 49.1669 23.5262C49.1991 23.4726 49.234 23.4272 49.2715 23.3897C49.0623 23.3951 48.8371 23.4218 48.5957 23.47C48.3597 23.5128 48.1318 23.5743 47.9119 23.6546C47.6973 23.7348 47.5123 23.8285 47.3567 23.9355C47.2066 24.0425 47.11 24.1603 47.0671 24.2887C47.0617 24.3047 47.051 24.3128 47.0349 24.3128C46.9867 24.3128 46.9625 24.2753 46.9625 24.2004C46.9625 24.1843 46.9679 24.1603 46.9786 24.1281C47.0269 23.989 47.0859 23.8659 47.1556 23.7589C47.2307 23.6519 47.3058 23.5609 47.3809 23.486C47.5579 23.3041 47.7563 23.1944 47.9762 23.1569C48.1961 23.1141 48.4294 23.0927 48.6762 23.0927H50.6311C50.8564 23.0927 51.0575 23.1168 51.2345 23.165C51.4115 23.2078 51.559 23.2693 51.677 23.3496C51.8326 23.4512 51.9452 23.577 52.0149 23.7268C52.0846 23.8713 52.1195 24.0238 52.1195 24.1843C52.1195 24.4305 52.0659 24.6499 51.9586 24.8425C51.8513 25.0352 51.7092 25.201 51.5322 25.3402C51.3606 25.4793 51.1675 25.5917 50.9529 25.6773C50.7384 25.7629 50.5212 25.8271 50.3013 25.8699L50.0438 25.9181C50.1726 26.3515 50.3361 26.7421 50.5346 27.09C50.733 27.4378 50.9395 27.7428 51.1541 28.005C51.3686 28.2672 51.5617 28.4919 51.7333 28.6792C51.6529 28.6953 51.5295 28.7033 51.3632 28.7033C51.2184 28.7033 51.079 28.7006 50.9449 28.6953C50.8108 28.6846 50.7438 28.6792 50.7438 28.6792C50.6097 28.6792 50.4783 28.607 50.3496 28.4625C50.2208 28.318 50.0975 28.1334 49.9795 27.9087C49.8615 27.6786 49.7542 27.4404 49.6577 27.1943C49.5665 26.9428 49.4887 26.71 49.4244 26.496C49.3654 26.2819 49.3251 26.1161 49.3037 25.9983C49.3037 25.9823 49.301 25.9662 49.2956 25.9502C49.2956 25.9341 49.2956 25.9154 49.2956 25.894C49.2956 25.8619 49.301 25.8351 49.3117 25.8137C49.3278 25.787 49.3573 25.7709 49.4002 25.7656C49.6684 25.7335 49.9124 25.6853 50.1323 25.6211C50.3522 25.5515 50.5534 25.4579 50.7357 25.3402C50.9181 25.2171 51.0656 25.0673 51.1782 24.8907C51.2908 24.7087 51.3472 24.4947 51.3472 24.2485C51.3472 24.0506 51.2908 23.8713 51.1782 23.7108C51.0709 23.5449 50.8966 23.4352 50.6553 23.3817C50.5909 23.3656 50.5212 23.3549 50.4461 23.3496C50.3764 23.3442 50.304 23.3389 50.2289 23.3335C50.1109 23.494 49.9875 23.6867 49.8588 23.9114C49.7301 24.1362 49.604 24.3743 49.4807 24.6258C49.3573 24.8719 49.2393 25.1181 49.1267 25.3642C49.0194 25.605 48.9229 25.8271 48.8371 26.0304C48.7941 26.1428 48.7298 26.306 48.644 26.5201C48.5635 26.7341 48.4804 26.9669 48.3946 27.2184C48.3088 27.4699 48.2337 27.7133 48.1693 27.9488C48.1103 28.1789 48.0808 28.3689 48.0808 28.5187C48.0808 28.5989 48.0915 28.6578 48.113 28.6953H47.0752Z" fill="#16191E"/>
<path d="M52.8872 28.6953C52.8014 28.6953 52.7371 28.6605 52.6942 28.5909C52.6566 28.5214 52.6378 28.4304 52.6378 28.318C52.6378 28.1628 52.662 27.9809 52.7103 27.7722C52.7639 27.5635 52.8283 27.3468 52.9033 27.1221C52.9838 26.8973 53.0642 26.6833 53.1447 26.4799C53.2251 26.2712 53.2949 26.0947 53.3539 25.9502H52.9114C52.8685 25.9502 52.847 25.9341 52.847 25.902C52.847 25.8699 52.8712 25.8271 52.9194 25.7736C52.9677 25.7147 53.024 25.6639 53.0884 25.6211C53.1527 25.5783 53.2064 25.5569 53.2493 25.5569H53.5228C53.6569 25.2412 53.7829 24.9469 53.9009 24.674C54.0189 24.3957 54.1664 24.1014 54.3434 23.791C54.3863 23.7161 54.4266 23.6466 54.4641 23.5823C54.5017 23.5128 54.5446 23.4512 54.5928 23.3977C54.3032 23.4352 54.0055 23.4914 53.6998 23.5663C53.3995 23.6412 53.1313 23.7375 52.8953 23.8552C52.6593 23.973 52.493 24.1121 52.3965 24.2726C52.3911 24.2887 52.3804 24.2967 52.3643 24.2967C52.3536 24.2967 52.3455 24.286 52.3402 24.2646C52.3294 24.2432 52.3268 24.2191 52.3321 24.1924C52.3858 24.0532 52.4528 23.9195 52.5333 23.791C52.6137 23.6626 52.6915 23.5609 52.7666 23.486C52.8846 23.3629 53.0455 23.2747 53.2493 23.2211C53.4531 23.1676 53.6623 23.1329 53.8768 23.1168C54.0967 23.1007 54.2844 23.0927 54.44 23.0927H56.0329C56.2206 23.0927 56.3869 23.0874 56.5317 23.0767C56.6819 23.0606 56.8079 23.0526 56.9098 23.0526C57.0761 23.0526 57.1727 23.0927 57.1995 23.173C57.2048 23.1944 57.2075 23.2158 57.2075 23.2372C57.2129 23.2533 57.2156 23.2747 57.2156 23.3014C57.2156 23.4084 57.1914 23.5315 57.1432 23.6706C57.0949 23.8044 57.0413 23.9355 56.9823 24.0639C56.9286 24.187 56.8857 24.2887 56.8535 24.3689C56.8482 24.3957 56.8321 24.4144 56.8053 24.4251C56.7838 24.4358 56.7624 24.4412 56.7409 24.4412C56.7141 24.4412 56.6899 24.4358 56.6685 24.4251C56.6524 24.4144 56.647 24.3796 56.6524 24.3208C56.6631 24.2566 56.6765 24.1843 56.6926 24.1041C56.7087 24.0238 56.7168 23.9542 56.7168 23.8954C56.7168 23.7241 56.647 23.593 56.5076 23.5021C56.3735 23.4058 56.2046 23.3576 56.0007 23.3576C55.8506 23.3576 55.7272 23.371 55.6307 23.3977C55.5341 23.4191 55.4563 23.4753 55.3974 23.5663C55.1828 23.882 54.987 24.2057 54.8101 24.5375C54.6384 24.8693 54.4775 25.2091 54.3273 25.5569H56.4271C56.4432 25.5569 56.4325 25.589 56.395 25.6532C56.3628 25.7174 56.3199 25.7843 56.2662 25.8539C56.218 25.9181 56.1751 25.9502 56.1375 25.9502H54.1503C54.0913 26.1 54.0216 26.2819 53.9412 26.496C53.8607 26.71 53.7856 26.9214 53.7159 27.1301C53.6515 27.3388 53.6006 27.518 53.563 27.6679C53.5309 27.7963 53.5148 27.9113 53.5148 28.013C53.5148 28.1468 53.555 28.2485 53.6355 28.318C53.7213 28.3876 53.8688 28.4224 54.0779 28.4224C54.3676 28.4224 54.6572 28.4117 54.9468 28.3903C55.2364 28.3635 55.5207 28.31 55.7996 28.2297C56.041 28.1602 56.2555 28.0665 56.4432 27.9488C56.6363 27.8311 56.7758 27.6839 56.8616 27.5073C56.8723 27.4859 56.8884 27.4752 56.9098 27.4752C56.9474 27.4752 56.9662 27.5047 56.9662 27.5635C56.9662 27.5742 56.9635 27.5876 56.9581 27.6037C56.9581 27.6197 56.9554 27.6384 56.9501 27.6598C56.9072 27.799 56.8562 27.922 56.7972 28.0291C56.7382 28.1361 56.6765 28.2271 56.6122 28.302C56.462 28.4839 56.2689 28.5963 56.0329 28.6391C55.7969 28.6765 55.5609 28.6953 55.3249 28.6953H52.8872Z" fill="#16191E"/>
<path d="M61.7067 28.7595C61.5029 28.7595 61.3473 28.706 61.2401 28.5989C61.1328 28.4919 61.0604 28.3555 61.0228 28.1896C60.9853 28.0237 60.9612 27.8525 60.9504 27.6759C60.9504 27.5742 60.9558 27.4538 60.9665 27.3147C60.9772 27.1756 60.9907 27.0418 61.0067 26.9134C61.0282 26.7796 61.0443 26.6806 61.055 26.6164H59.2127C58.8694 26.9749 58.5422 27.3254 58.2311 27.6679C57.9254 28.005 57.6251 28.3474 57.3301 28.6953H56.5256C56.665 28.5668 56.8474 28.3956 57.0726 28.1816C57.3033 27.9622 57.5634 27.7133 57.853 27.4351C58.1427 27.1568 58.443 26.8625 58.7541 26.5522C59.0705 26.2365 59.387 25.9207 59.7034 25.605C60.0199 25.284 60.3175 24.9763 60.5964 24.682C60.8807 24.3823 61.1328 24.1121 61.3527 23.8713C61.46 23.7536 61.5592 23.6359 61.6504 23.5181C61.7469 23.3951 61.8542 23.2934 61.9722 23.2131C62.0902 23.1329 62.235 23.0927 62.4066 23.0927H62.9859C62.8947 23.1783 62.8035 23.3228 62.7123 23.5262C62.6211 23.7295 62.538 23.9489 62.4629 24.1843C62.3932 24.4198 62.3342 24.6338 62.2859 24.8265C62.2162 25.1154 62.1438 25.4285 62.0687 25.7656C61.999 26.1027 61.9427 26.4371 61.8998 26.7689C61.8569 27.1007 61.8434 27.4083 61.8595 27.6919C61.8649 27.7936 61.8837 27.9006 61.9158 28.013C61.9534 28.12 62.0043 28.2137 62.0687 28.2939C62.1384 28.3689 62.2242 28.4063 62.3262 28.4063C62.4173 28.4063 62.5166 28.3715 62.6238 28.302L62.6721 28.3742C62.6024 28.4812 62.4683 28.5722 62.2698 28.6471C62.0768 28.722 61.889 28.7595 61.7067 28.7595ZM58.4886 24.69C58.4028 24.599 58.3384 24.5054 58.2955 24.4091C58.258 24.3128 58.2392 24.2218 58.2392 24.1362C58.2392 24.0292 58.2606 23.9275 58.3036 23.8312C58.3518 23.7295 58.4081 23.6439 58.4725 23.5743C58.6012 23.4298 58.7621 23.3228 58.9552 23.2533C59.1483 23.1837 59.3521 23.1409 59.5667 23.1248C59.7866 23.1034 59.9957 23.0927 60.1942 23.0927H61.9963C61.8837 23.2051 61.712 23.2934 61.4814 23.3576C61.2561 23.4165 61.0094 23.4619 60.7413 23.494C60.4731 23.5208 60.2129 23.5476 59.9609 23.5743C59.7141 23.5957 59.5103 23.6251 59.3494 23.6626C59.0652 23.7268 58.8479 23.8499 58.6978 24.0318C58.553 24.2138 58.4832 24.4332 58.4886 24.69ZM59.5667 26.2151H61.1113C61.1757 25.8619 61.2508 25.5087 61.3366 25.1555C61.4278 24.8024 61.5082 24.492 61.578 24.2245C61.2508 24.5348 60.9156 24.8586 60.5723 25.1957C60.2344 25.5274 59.8992 25.8672 59.5667 26.2151Z" fill="#16191E"/>
<path d="M63.5818 28.6953C63.4692 28.6953 63.3861 28.6551 63.3324 28.5749C63.2842 28.4946 63.26 28.3849 63.26 28.2458C63.26 28.1655 63.2681 28.0772 63.2842 27.9809C63.3003 27.8846 63.319 27.7829 63.3405 27.6759C63.4048 27.3923 63.5041 27.0792 63.6382 26.7368C63.7776 26.389 63.9358 26.0331 64.1128 25.6692C64.2952 25.3 64.4775 24.9415 64.6599 24.5937C64.8476 24.2459 65.0219 23.9275 65.1828 23.6385C65.1936 23.6171 65.215 23.577 65.2472 23.5181C65.2847 23.4593 65.3142 23.4165 65.3357 23.3897C65.1265 23.3951 64.9012 23.4218 64.6599 23.47C64.4239 23.5128 64.196 23.5743 63.976 23.6546C63.7615 23.7348 63.5765 23.8285 63.4209 23.9355C63.2708 24.0425 63.1742 24.1603 63.1313 24.2887C63.1259 24.3047 63.1152 24.3128 63.0991 24.3128C63.0509 24.3128 63.0267 24.2753 63.0267 24.2004C63.0267 24.1843 63.0321 24.1603 63.0428 24.1281C63.0964 23.989 63.1581 23.8659 63.2278 23.7589C63.2976 23.6519 63.37 23.5609 63.4451 23.486C63.6221 23.3041 63.8205 23.1944 64.0404 23.1569C64.2603 23.1141 64.4936 23.0927 64.7403 23.0927H66.5666C66.4486 23.1837 66.3092 23.3496 66.1483 23.5904C65.9873 23.8258 65.8211 24.0934 65.6495 24.393C65.5744 24.5268 65.4805 24.7007 65.3679 24.9148C65.2552 25.1288 65.1372 25.3669 65.0139 25.6291C64.8905 25.886 64.7725 26.1455 64.6599 26.4077C64.5473 26.6699 64.4507 26.9187 64.3703 27.1542C64.2898 27.3843 64.2389 27.5822 64.2174 27.7481C64.212 27.7749 64.2094 27.8016 64.2094 27.8284C64.2094 27.8498 64.2094 27.8739 64.2094 27.9006C64.2094 28.0505 64.2496 28.1762 64.33 28.2779C64.4105 28.3742 64.5607 28.4224 64.7806 28.4224C65.0648 28.4224 65.3518 28.4117 65.6414 28.3903C65.9364 28.3635 66.2233 28.31 66.5022 28.2297C66.7382 28.1602 66.9528 28.0665 67.1459 27.9488C67.3389 27.8311 67.4784 27.6839 67.5642 27.5073C67.5749 27.4859 67.5883 27.4752 67.6044 27.4752C67.642 27.4752 67.6608 27.5047 67.6608 27.5635C67.6608 27.5742 67.6581 27.5876 67.6527 27.6037C67.6527 27.6197 67.65 27.6384 67.6447 27.6598C67.6018 27.799 67.5508 27.922 67.4918 28.0291C67.4328 28.1361 67.3738 28.2271 67.3148 28.302C67.1646 28.4839 66.9689 28.5963 66.7275 28.6391C66.4915 28.6765 66.2555 28.6953 66.0195 28.6953H63.5818Z" fill="#16191E"/>
<path d="M70.5097 28.6953C70.4239 28.6953 70.3595 28.6605 70.3166 28.5909C70.2791 28.5214 70.2603 28.4304 70.2603 28.318C70.2603 28.1628 70.2844 27.9809 70.3327 27.7722C70.3863 27.5635 70.4507 27.3468 70.5258 27.1221C70.6062 26.8973 70.6867 26.6833 70.7671 26.4799C70.8476 26.2712 70.9173 26.0947 70.9763 25.9502H70.5338C70.4909 25.9502 70.4695 25.9341 70.4695 25.902C70.4695 25.8699 70.4936 25.8271 70.5419 25.7736C70.5901 25.7147 70.6465 25.6639 70.7108 25.6211C70.7752 25.5783 70.8288 25.5569 70.8717 25.5569H71.1453C71.2794 25.2412 71.4054 24.9469 71.5234 24.674C71.6414 24.3957 71.7889 24.1014 71.9659 23.791C72.0088 23.7161 72.049 23.6466 72.0866 23.5823C72.1241 23.5128 72.167 23.4512 72.2153 23.3977C71.9257 23.4352 71.628 23.4914 71.3223 23.5663C71.0219 23.6412 70.7537 23.7375 70.5177 23.8552C70.2817 23.973 70.1155 24.1121 70.0189 24.2726C70.0136 24.2887 70.0028 24.2967 69.9868 24.2967C69.976 24.2967 69.968 24.286 69.9626 24.2646C69.9519 24.2432 69.9492 24.2191 69.9546 24.1924C70.0082 24.0532 70.0753 23.9195 70.1557 23.791C70.2362 23.6626 70.3139 23.5609 70.389 23.486C70.507 23.3629 70.6679 23.2747 70.8717 23.2211C71.0755 23.1676 71.2847 23.1329 71.4993 23.1168C71.7192 23.1007 71.9069 23.0927 72.0624 23.0927H73.6554C73.8431 23.0927 74.0094 23.0874 74.1542 23.0767C74.3043 23.0606 74.4304 23.0526 74.5323 23.0526C74.6986 23.0526 74.7951 23.0927 74.8219 23.173C74.8273 23.1944 74.83 23.2158 74.83 23.2372C74.8353 23.2533 74.838 23.2747 74.838 23.3014C74.838 23.4084 74.8139 23.5315 74.7656 23.6706C74.7173 23.8044 74.6637 23.9355 74.6047 24.0639C74.5511 24.187 74.5082 24.2887 74.476 24.3689C74.4706 24.3957 74.4545 24.4144 74.4277 24.4251C74.4063 24.4358 74.3848 24.4412 74.3633 24.4412C74.3365 24.4412 74.3124 24.4358 74.2909 24.4251C74.2749 24.4144 74.2695 24.3796 74.2748 24.3208C74.2856 24.2566 74.299 24.1843 74.3151 24.1041C74.3312 24.0238 74.3392 23.9542 74.3392 23.8954C74.3392 23.7241 74.2695 23.593 74.13 23.5021C73.9959 23.4058 73.827 23.3576 73.6232 23.3576C73.473 23.3576 73.3497 23.371 73.2531 23.3977C73.1566 23.4191 73.0788 23.4753 73.0198 23.5663C72.8053 23.882 72.6095 24.2057 72.4325 24.5375C72.2609 24.8693 72.1 25.2091 71.9498 25.5569H74.0496C74.0657 25.5569 74.0549 25.589 74.0174 25.6532C73.9852 25.7174 73.9423 25.7843 73.8887 25.8539C73.8404 25.9181 73.7975 25.9502 73.76 25.9502H71.7728C71.7138 26.1 71.6441 26.2819 71.5636 26.496C71.4832 26.71 71.4081 26.9214 71.3384 27.1301C71.274 27.3388 71.223 27.518 71.1855 27.6679C71.1533 27.7963 71.1372 27.9113 71.1372 28.013C71.1372 28.1468 71.1774 28.2485 71.2579 28.318C71.3437 28.3876 71.4912 28.4224 71.7004 28.4224C71.99 28.4224 72.2796 28.4117 72.5693 28.3903C72.8589 28.3635 73.1432 28.31 73.4221 28.2297C73.6634 28.1602 73.878 28.0665 74.0657 27.9488C74.2588 27.8311 74.3982 27.6839 74.484 27.5073C74.4948 27.4859 74.5108 27.4752 74.5323 27.4752C74.5698 27.4752 74.5886 27.5047 74.5886 27.5635C74.5886 27.5742 74.5859 27.5876 74.5806 27.6037C74.5806 27.6197 74.5779 27.6384 74.5725 27.6598C74.5296 27.799 74.4787 27.922 74.4197 28.0291C74.3607 28.1361 74.299 28.2271 74.2346 28.302C74.0844 28.4839 73.8914 28.5963 73.6554 28.6391C73.4194 28.6765 73.1834 28.6953 72.9474 28.6953H70.5097Z" fill="#16191E"/>
<path d="M76.3707 28.8558C76.1025 28.8558 75.8531 28.8317 75.6225 28.7836C75.3919 28.7354 75.1988 28.6551 75.0432 28.5428C74.936 28.4625 74.8528 28.3608 74.7938 28.2378C74.7402 28.1147 74.7134 27.9889 74.7134 27.8605C74.7134 27.7 74.759 27.5501 74.8501 27.411C74.9413 27.2719 75.0861 27.1782 75.2846 27.1301C75.3114 27.1247 75.3355 27.1221 75.357 27.1221C75.3838 27.1167 75.4079 27.114 75.4294 27.114C75.5367 27.114 75.6305 27.1381 75.711 27.1863C75.7968 27.2344 75.8558 27.2906 75.888 27.3548C75.8665 27.3709 75.837 27.4003 75.7995 27.4431C75.7619 27.4806 75.7378 27.5127 75.7271 27.5394C75.6466 27.6732 75.6064 27.807 75.6064 27.9408C75.6064 28.1227 75.6761 28.2725 75.8156 28.3903C75.9604 28.5026 76.1481 28.5588 76.3787 28.5588C76.5879 28.5588 76.7837 28.508 76.966 28.4063C77.1538 28.2993 77.3039 28.1575 77.4166 27.9809C77.5346 27.8043 77.5936 27.601 77.5936 27.3709C77.5936 27.1996 77.5533 27.0177 77.4729 26.8251C77.4032 26.6592 77.3066 26.512 77.1833 26.3836C77.0653 26.2552 76.9526 26.1348 76.8454 26.0224C76.7005 25.8672 76.5611 25.7174 76.427 25.5729C76.2983 25.4231 76.191 25.2626 76.1052 25.0913C76.0247 24.9148 75.9845 24.7168 75.9845 24.4974C75.9845 24.2887 76.0274 24.0853 76.1132 23.8874C76.2044 23.6894 76.3331 23.5208 76.4994 23.3817C76.6871 23.2211 76.9017 23.1088 77.143 23.0446C77.3844 22.9803 77.6365 22.9482 77.8993 22.9482C78.2264 22.9482 78.4839 22.9911 78.6716 23.0767C78.8647 23.1569 79.0015 23.2613 79.0819 23.3897C79.1677 23.5181 79.2106 23.6546 79.2106 23.7991C79.2106 23.9382 79.1785 24.072 79.1141 24.2004C79.0551 24.3288 78.972 24.4385 78.8647 24.5295C78.7574 24.6151 78.6394 24.6686 78.5107 24.69C78.4893 24.6954 78.4678 24.698 78.4464 24.698C78.4249 24.698 78.4008 24.698 78.3739 24.698C78.2559 24.698 78.1514 24.6713 78.0602 24.6178C77.9744 24.5643 77.9315 24.4733 77.9315 24.3449C77.9315 24.3288 77.9315 24.3101 77.9315 24.2887C77.9368 24.2673 77.9422 24.2459 77.9475 24.2245C78.0441 24.2245 78.1433 24.1897 78.2452 24.1201C78.3471 24.0506 78.4142 23.973 78.4464 23.8874C78.4732 23.8178 78.4866 23.7536 78.4866 23.6947C78.4866 23.5502 78.4195 23.4379 78.2854 23.3576C78.1567 23.272 78.0039 23.2292 77.8269 23.2292C77.6177 23.2292 77.43 23.2747 77.2637 23.3656C77.1028 23.4512 76.9768 23.5663 76.8856 23.7108C76.7944 23.8499 76.7488 24.0024 76.7488 24.1683C76.7488 24.3342 76.7998 24.4947 76.9017 24.6499C76.9875 24.7729 77.0948 24.9014 77.2235 25.0352C77.3522 25.1636 77.4836 25.2893 77.6177 25.4124C77.7518 25.5301 77.8671 25.6398 77.9636 25.7415C78.1835 25.9555 78.3418 26.1749 78.4383 26.3997C78.5348 26.6191 78.5831 26.8358 78.5831 27.0498C78.5831 27.296 78.5241 27.5287 78.4061 27.7481C78.2935 27.9622 78.1353 28.1521 77.9315 28.318C77.7276 28.4839 77.4917 28.615 77.2235 28.7113C76.9553 28.8076 76.671 28.8558 76.3707 28.8558Z" fill="#16191E"/>
<path d="M81.1379 28.8719C80.9609 28.8719 80.8429 28.8103 80.7839 28.6872C80.7249 28.5588 80.6954 28.417 80.6954 28.2618C80.6954 28.1548 80.7035 28.0505 80.7196 27.9488C80.7356 27.8418 80.7517 27.7535 80.7678 27.6839C80.8107 27.4806 80.8805 27.2398 80.977 26.9615C81.0735 26.6779 81.1835 26.3809 81.3069 26.0706C81.4356 25.7549 81.5697 25.4445 81.7091 25.1395C81.8486 24.8291 81.9827 24.5402 82.1114 24.2726C82.2455 23.9997 82.3635 23.767 82.4654 23.5743C82.342 23.5797 82.1999 23.5797 82.039 23.5743C81.8781 23.5636 81.7118 23.5583 81.5402 23.5583C81.2452 23.5583 80.9529 23.5823 80.6632 23.6305C80.379 23.6733 80.1457 23.7777 79.9633 23.9435C79.8775 24.0238 79.8158 24.1094 79.7783 24.2004C79.7407 24.2914 79.722 24.3823 79.722 24.4733C79.722 24.575 79.738 24.674 79.7702 24.7703C79.7756 24.781 79.7783 24.7944 79.7783 24.8104C79.7783 24.8639 79.7515 24.8907 79.6978 24.8907C79.6656 24.8907 79.6415 24.8773 79.6254 24.8505C79.5718 24.7649 79.5316 24.6793 79.5047 24.5937C79.4833 24.5027 79.4726 24.4144 79.4726 24.3288C79.4726 24.179 79.4994 24.0372 79.553 23.9034C79.6066 23.7696 79.671 23.6599 79.7461 23.5743C79.9338 23.3549 80.1886 23.2104 80.5104 23.1409C80.8322 23.066 81.1674 23.0285 81.516 23.0285C81.7842 23.0285 82.0443 23.0392 82.2964 23.0606C82.5539 23.082 82.7818 23.0981 82.9803 23.1088C83.168 23.1195 83.4013 23.1382 83.6802 23.165C83.9591 23.1864 84.2299 23.1971 84.4928 23.1971C84.7287 23.1971 84.9406 23.181 85.1283 23.1489C85.3161 23.1168 85.4528 23.0579 85.5386 22.9723C85.5547 23.0044 85.5628 23.0419 85.5628 23.0847C85.5628 23.1971 85.4984 23.3068 85.3697 23.4138C85.241 23.5208 85.0666 23.593 84.8467 23.6305C84.777 23.6412 84.6966 23.6492 84.6054 23.6546C84.5196 23.6599 84.4284 23.6626 84.3319 23.6626C84.171 23.6626 84.01 23.6599 83.8491 23.6546C83.6882 23.6439 83.5461 23.6332 83.4227 23.6225C83.2994 23.6118 83.2163 23.6091 83.1733 23.6144C83.1412 23.6626 83.0902 23.7509 83.0205 23.8793C82.9561 24.0077 82.8864 24.1469 82.8113 24.2967C82.7362 24.4465 82.6692 24.583 82.6102 24.7061C82.5083 24.9201 82.401 25.1609 82.2884 25.4285C82.1757 25.696 82.0685 25.9662 81.9666 26.2391C81.8647 26.512 81.7762 26.7716 81.7011 27.0177C81.6313 27.2639 81.5858 27.4752 81.5643 27.6518C81.5589 27.6679 81.5563 27.6866 81.5563 27.708C81.5563 27.7241 81.5563 27.7401 81.5563 27.7562C81.5563 27.8578 81.575 27.9461 81.6126 28.021C81.6555 28.0906 81.7198 28.1254 81.8057 28.1254C81.8807 28.1254 81.9719 28.0852 82.0792 28.005C82.1865 27.9247 82.3098 27.7909 82.4493 27.6037C82.4761 27.5715 82.5002 27.5555 82.5217 27.5555C82.5539 27.5555 82.57 27.5822 82.57 27.6358C82.57 27.6732 82.5565 27.7241 82.5297 27.7883C82.5083 27.8525 82.468 27.9274 82.409 28.013C82.3608 28.0826 82.283 28.1762 82.1757 28.2939C82.0685 28.4063 81.9639 28.5026 81.862 28.5829C81.7708 28.6578 81.6582 28.7247 81.5241 28.7836C81.39 28.8424 81.2613 28.8719 81.1379 28.8719Z" fill="#16191E"/>
<path d="M88.7649 28.7595C88.5611 28.7595 88.4056 28.706 88.2983 28.5989C88.1911 28.4919 88.1187 28.3555 88.0811 28.1896C88.0436 28.0237 88.0194 27.8525 88.0087 27.6759C88.0087 27.5742 88.0141 27.4538 88.0248 27.3147C88.0355 27.1756 88.0489 27.0418 88.065 26.9134C88.0865 26.7796 88.1026 26.6806 88.1133 26.6164H86.2709C85.9277 26.9749 85.6005 27.3254 85.2894 27.6679C84.9837 28.005 84.6833 28.3474 84.3884 28.6953H83.5838C83.7233 28.5668 83.9056 28.3956 84.1309 28.1816C84.3615 27.9622 84.6217 27.7133 84.9113 27.4351C85.2009 27.1568 85.5013 26.8625 85.8124 26.5522C86.1288 26.2365 86.4452 25.9207 86.7617 25.605C87.0781 25.284 87.3758 24.9763 87.6547 24.682C87.939 24.3823 88.1911 24.1121 88.411 23.8713C88.5182 23.7536 88.6175 23.6359 88.7086 23.5181C88.8052 23.3951 88.9124 23.2934 89.0304 23.2131C89.1484 23.1329 89.2933 23.0927 89.4649 23.0927H90.0441C89.953 23.1783 89.8618 23.3228 89.7706 23.5262C89.6794 23.7295 89.5963 23.9489 89.5212 24.1843C89.4515 24.4198 89.3925 24.6338 89.3442 24.8265C89.2745 25.1154 89.2021 25.4285 89.127 25.7656C89.0573 26.1027 89.0009 26.4371 88.958 26.7689C88.9151 27.1007 88.9017 27.4083 88.9178 27.6919C88.9232 27.7936 88.9419 27.9006 88.9741 28.013C89.0117 28.12 89.0626 28.2137 89.127 28.2939C89.1967 28.3689 89.2825 28.4063 89.3844 28.4063C89.4756 28.4063 89.5748 28.3715 89.6821 28.302L89.7304 28.3742C89.6606 28.4812 89.5266 28.5722 89.3281 28.6471C89.135 28.722 88.9473 28.7595 88.7649 28.7595ZM85.5469 24.69C85.4611 24.599 85.3967 24.5054 85.3538 24.4091C85.3162 24.3128 85.2975 24.2218 85.2975 24.1362C85.2975 24.0292 85.3189 23.9275 85.3618 23.8312C85.4101 23.7295 85.4664 23.6439 85.5308 23.5743C85.6595 23.4298 85.8204 23.3228 86.0135 23.2533C86.2066 23.1837 86.4104 23.1409 86.6249 23.1248C86.8448 23.1034 87.054 23.0927 87.2524 23.0927H89.0546C88.9419 23.2051 88.7703 23.2934 88.5397 23.3576C88.3144 23.4165 88.0677 23.4619 87.7995 23.494C87.5313 23.5208 87.2712 23.5476 87.0191 23.5743C86.7724 23.5957 86.5686 23.6251 86.4077 23.6626C86.1234 23.7268 85.9062 23.8499 85.756 24.0318C85.6112 24.2138 85.5415 24.4332 85.5469 24.69ZM86.6249 26.2151H88.1696C88.234 25.8619 88.3091 25.5087 88.3949 25.1555C88.486 24.8024 88.5665 24.492 88.6362 24.2245C88.3091 24.5348 87.9738 24.8586 87.6306 25.1957C87.2927 25.5274 86.9575 25.8672 86.6249 26.2151Z" fill="#16191E"/>
<path d="M91.7522 28.8719C91.5752 28.8719 91.4572 28.8103 91.3982 28.6872C91.3392 28.5588 91.3097 28.417 91.3097 28.2618C91.3097 28.1548 91.3178 28.0505 91.3339 27.9488C91.35 27.8418 91.3661 27.7535 91.3822 27.6839C91.4251 27.4806 91.4948 27.2398 91.5913 26.9615C91.6879 26.6779 91.7978 26.3809 91.9212 26.0706C92.0499 25.7549 92.184 25.4445 92.3234 25.1395C92.4629 24.8291 92.597 24.5402 92.7257 24.2726C92.8598 23.9997 92.9778 23.767 93.0797 23.5743C92.9563 23.5797 92.8142 23.5797 92.6533 23.5743C92.4924 23.5636 92.3261 23.5583 92.1545 23.5583C91.8595 23.5583 91.5672 23.5823 91.2776 23.6305C90.9933 23.6733 90.76 23.7777 90.5776 23.9435C90.4918 24.0238 90.4301 24.1094 90.3926 24.2004C90.3551 24.2914 90.3363 24.3823 90.3363 24.4733C90.3363 24.575 90.3524 24.674 90.3845 24.7703C90.3899 24.781 90.3926 24.7944 90.3926 24.8104C90.3926 24.8639 90.3658 24.8907 90.3121 24.8907C90.28 24.8907 90.2558 24.8773 90.2397 24.8505C90.1861 24.7649 90.1459 24.6793 90.1191 24.5937C90.0976 24.5027 90.0869 24.4144 90.0869 24.3288C90.0869 24.179 90.1137 24.0372 90.1673 23.9034C90.221 23.7696 90.2853 23.6599 90.3604 23.5743C90.5481 23.3549 90.8029 23.2104 91.1247 23.1409C91.4465 23.066 91.7817 23.0285 92.1304 23.0285C92.3985 23.0285 92.6587 23.0392 92.9107 23.0606C93.1682 23.082 93.3961 23.0981 93.5946 23.1088C93.7823 23.1195 94.0156 23.1382 94.2945 23.165C94.5734 23.1864 94.8443 23.1971 95.1071 23.1971C95.3431 23.1971 95.5549 23.181 95.7427 23.1489C95.9304 23.1168 96.0671 23.0579 96.153 22.9723C96.169 23.0044 96.1771 23.0419 96.1771 23.0847C96.1771 23.1971 96.1127 23.3068 95.984 23.4138C95.8553 23.5208 95.681 23.593 95.4611 23.6305C95.3913 23.6412 95.3109 23.6492 95.2197 23.6546C95.1339 23.6599 95.0427 23.6626 94.9462 23.6626C94.7853 23.6626 94.6244 23.6599 94.4635 23.6546C94.3026 23.6439 94.1604 23.6332 94.0371 23.6225C93.9137 23.6118 93.8306 23.6091 93.7877 23.6144C93.7555 23.6626 93.7045 23.7509 93.6348 23.8793C93.5704 24.0077 93.5007 24.1469 93.4256 24.2967C93.3505 24.4465 93.2835 24.583 93.2245 24.7061C93.1226 24.9201 93.0153 25.1609 92.9027 25.4285C92.7901 25.696 92.6828 25.9662 92.5809 26.2391C92.479 26.512 92.3905 26.7716 92.3154 27.0177C92.2457 27.2639 92.2001 27.4752 92.1786 27.6518C92.1733 27.6679 92.1706 27.6866 92.1706 27.708C92.1706 27.7241 92.1706 27.7401 92.1706 27.7562C92.1706 27.8578 92.1894 27.9461 92.2269 28.021C92.2698 28.0906 92.3342 28.1254 92.42 28.1254C92.4951 28.1254 92.5863 28.0852 92.6935 28.005C92.8008 27.9247 92.9242 27.7909 93.0636 27.6037C93.0904 27.5715 93.1146 27.5555 93.136 27.5555C93.1682 27.5555 93.1843 27.5822 93.1843 27.6358C93.1843 27.6732 93.1709 27.7241 93.1441 27.7883C93.1226 27.8525 93.0824 27.9274 93.0234 28.013C92.9751 28.0826 92.8973 28.1762 92.7901 28.2939C92.6828 28.4063 92.5782 28.5026 92.4763 28.5829C92.3851 28.6578 92.2725 28.7247 92.1384 28.7836C92.0043 28.8424 91.8756 28.8719 91.7522 28.8719Z" fill="#16191E"/>
<path d="M96.358 28.6953C96.2722 28.6953 96.2079 28.6605 96.165 28.5909C96.1274 28.5214 96.1086 28.4304 96.1086 28.318C96.1086 28.1628 96.1328 27.9809 96.1811 27.7722C96.2347 27.5635 96.299 27.3468 96.3741 27.1221C96.4546 26.8973 96.535 26.6833 96.6155 26.4799C96.6959 26.2712 96.7657 26.0947 96.8247 25.9502H96.3822C96.3393 25.9502 96.3178 25.9341 96.3178 25.902C96.3178 25.8699 96.342 25.8271 96.3902 25.7736C96.4385 25.7147 96.4948 25.6639 96.5592 25.6211C96.6235 25.5783 96.6772 25.5569 96.7201 25.5569H96.9936C97.1277 25.2412 97.2537 24.9469 97.3717 24.674C97.4897 24.3957 97.6372 24.1014 97.8142 23.791C97.8571 23.7161 97.8974 23.6466 97.9349 23.5823C97.9725 23.5128 98.0154 23.4512 98.0636 23.3977C97.774 23.4352 97.4763 23.4914 97.1706 23.5663C96.8703 23.6412 96.6021 23.7375 96.3661 23.8552C96.1301 23.973 95.9638 24.1121 95.8673 24.2726C95.8619 24.2887 95.8512 24.2967 95.8351 24.2967C95.8244 24.2967 95.8163 24.286 95.811 24.2646C95.8002 24.2432 95.7976 24.2191 95.8029 24.1924C95.8566 24.0532 95.9236 23.9195 96.0041 23.791C96.0845 23.6626 96.1623 23.5609 96.2374 23.486C96.3554 23.3629 96.5163 23.2747 96.7201 23.2211C96.9239 23.1676 97.1331 23.1329 97.3476 23.1168C97.5675 23.1007 97.7552 23.0927 97.9108 23.0927H99.5037C99.6914 23.0927 99.8577 23.0874 100.003 23.0767C100.153 23.0606 100.279 23.0526 100.381 23.0526C100.547 23.0526 100.643 23.0927 100.67 23.173C100.676 23.1944 100.678 23.2158 100.678 23.2372C100.684 23.2533 100.686 23.2747 100.686 23.3014C100.686 23.4084 100.662 23.5315 100.614 23.6706C100.566 23.8044 100.512 23.9355 100.453 24.0639C100.399 24.187 100.357 24.2887 100.324 24.3689C100.319 24.3957 100.303 24.4144 100.276 24.4251C100.255 24.4358 100.233 24.4412 100.212 24.4412C100.185 24.4412 100.161 24.4358 100.139 24.4251C100.123 24.4144 100.118 24.3796 100.123 24.3208C100.134 24.2566 100.147 24.1843 100.163 24.1041C100.18 24.0238 100.188 23.9542 100.188 23.8954C100.188 23.7241 100.118 23.593 99.9784 23.5021C99.8443 23.4058 99.6754 23.3576 99.4715 23.3576C99.3214 23.3576 99.198 23.371 99.1015 23.3977C99.0049 23.4191 98.9272 23.4753 98.8682 23.5663C98.6536 23.882 98.4578 24.2057 98.2809 24.5375C98.1092 24.8693 97.9483 25.2091 97.7981 25.5569H99.8979C99.914 25.5569 99.9033 25.589 99.8658 25.6532C99.8336 25.7174 99.7907 25.7843 99.737 25.8539C99.6888 25.9181 99.6459 25.9502 99.6083 25.9502H97.6211C97.5621 26.1 97.4924 26.2819 97.412 26.496C97.3315 26.71 97.2564 26.9214 97.1867 27.1301C97.1223 27.3388 97.0714 27.518 97.0338 27.6679C97.0017 27.7963 96.9856 27.9113 96.9856 28.013C96.9856 28.1468 97.0258 28.2485 97.1063 28.318C97.1921 28.3876 97.3396 28.4224 97.5487 28.4224C97.8384 28.4224 98.128 28.4117 98.4176 28.3903C98.7072 28.3635 98.9915 28.31 99.2704 28.2297C99.5118 28.1602 99.7263 28.0665 99.914 27.9488C100.107 27.8311 100.247 27.6839 100.332 27.5073C100.343 27.4859 100.359 27.4752 100.381 27.4752C100.418 27.4752 100.437 27.5047 100.437 27.5635C100.437 27.5742 100.434 27.5876 100.429 27.6037C100.429 27.6197 100.426 27.6384 100.421 27.6598C100.378 27.799 100.327 27.922 100.268 28.0291C100.209 28.1361 100.147 28.2271 100.083 28.302C99.9328 28.4839 99.7397 28.5963 99.5037 28.6391C99.2677 28.6765 99.0317 28.6953 98.7957 28.6953H96.358Z" fill="#16191E"/>
<path d="M108.234 28.7595C108.03 28.7595 107.874 28.706 107.767 28.5989C107.66 28.4919 107.587 28.3555 107.55 28.1896C107.512 28.0237 107.488 27.8525 107.477 27.6759C107.477 27.5742 107.483 27.4538 107.494 27.3147C107.504 27.1756 107.518 27.0418 107.534 26.9134C107.555 26.7796 107.571 26.6806 107.582 26.6164H105.74C105.396 26.9749 105.069 27.3254 104.758 27.6679C104.452 28.005 104.152 28.3474 103.857 28.6953H103.053C103.192 28.5668 103.374 28.3956 103.6 28.1816C103.83 27.9622 104.09 27.7133 104.38 27.4351C104.67 27.1568 104.97 26.8625 105.281 26.5522C105.598 26.2365 105.914 25.9207 106.23 25.605C106.547 25.284 106.845 24.9763 107.123 24.682C107.408 24.3823 107.66 24.1121 107.88 23.8713C107.987 23.7536 108.086 23.6359 108.177 23.5181C108.274 23.3951 108.381 23.2934 108.499 23.2131C108.617 23.1329 108.762 23.0927 108.934 23.0927H109.513C109.422 23.1783 109.331 23.3228 109.239 23.5262C109.148 23.7295 109.065 23.9489 108.99 24.1843C108.92 24.4198 108.861 24.6338 108.813 24.8265C108.743 25.1154 108.671 25.4285 108.596 25.7656C108.526 26.1027 108.47 26.4371 108.427 26.7689C108.384 27.1007 108.37 27.4083 108.387 27.6919C108.392 27.7936 108.411 27.9006 108.443 28.013C108.48 28.12 108.531 28.2137 108.596 28.2939C108.665 28.3689 108.751 28.4063 108.853 28.4063C108.944 28.4063 109.044 28.3715 109.151 28.302L109.199 28.3742C109.129 28.4812 108.995 28.5722 108.797 28.6471C108.604 28.722 108.416 28.7595 108.234 28.7595ZM105.016 24.69C104.93 24.599 104.865 24.5054 104.823 24.4091C104.785 24.3128 104.766 24.2218 104.766 24.1362C104.766 24.0292 104.788 23.9275 104.831 23.8312C104.879 23.7295 104.935 23.6439 105 23.5743C105.128 23.4298 105.289 23.3228 105.482 23.2533C105.675 23.1837 105.879 23.1409 106.094 23.1248C106.314 23.1034 106.523 23.0927 106.721 23.0927H108.523C108.411 23.2051 108.239 23.2934 108.008 23.3576C107.783 23.4165 107.536 23.4619 107.268 23.494C107 23.5208 106.74 23.5476 106.488 23.5743C106.241 23.5957 106.037 23.6251 105.876 23.6626C105.592 23.7268 105.375 23.8499 105.225 24.0318C105.08 24.2138 105.01 24.4332 105.016 24.69ZM106.094 26.2151H107.638C107.703 25.8619 107.778 25.5087 107.864 25.1555C107.955 24.8024 108.035 24.492 108.105 24.2245C107.778 24.5348 107.443 24.8586 107.099 25.1957C106.761 25.5274 106.426 25.8672 106.094 26.2151Z" fill="#16191E"/>
<path d="M111.471 29.0003C111.224 29.0003 110.964 28.9708 110.69 28.912C110.422 28.8585 110.197 28.7729 110.015 28.6551C109.762 28.4839 109.577 28.2645 109.459 27.997C109.341 27.7294 109.282 27.4378 109.282 27.1221C109.282 26.8063 109.333 26.4773 109.435 26.1348C109.543 25.7923 109.695 25.4579 109.894 25.1315C110.092 24.7997 110.326 24.4947 110.594 24.2164C110.867 23.9328 111.173 23.692 111.511 23.494C111.849 23.2961 112.208 23.1596 112.589 23.0847C112.83 23.0365 113.061 23.0125 113.281 23.0125C113.71 23.0125 114.053 23.0981 114.311 23.2693C114.568 23.4352 114.697 23.6492 114.697 23.9114C114.697 23.9649 114.691 24.0185 114.681 24.072C114.675 24.1201 114.659 24.1736 114.632 24.2325C114.573 24.3877 114.474 24.5268 114.335 24.6499C114.201 24.7676 114.045 24.8586 113.868 24.9228C113.697 24.987 113.52 25.0137 113.337 25.003C113.251 24.9923 113.176 24.9629 113.112 24.9148C113.053 24.8612 113.023 24.797 113.023 24.7221C113.023 24.6472 113.056 24.5669 113.12 24.4813C113.179 24.5027 113.246 24.5134 113.321 24.5134C113.455 24.5134 113.587 24.4813 113.715 24.4171C113.844 24.3529 113.951 24.2646 114.037 24.1522C114.123 24.0399 114.166 23.9141 114.166 23.775C114.166 23.5877 114.101 23.4646 113.973 23.4058C113.844 23.3415 113.699 23.3094 113.538 23.3094C113.431 23.3094 113.324 23.3201 113.217 23.3415C113.115 23.3576 113.031 23.3737 112.967 23.3897C112.661 23.47 112.364 23.6251 112.074 23.8552C111.784 24.08 111.519 24.3475 111.278 24.6579C111.042 24.9683 110.843 25.2893 110.682 25.6211C110.58 25.8351 110.487 26.0947 110.401 26.3997C110.315 26.7047 110.272 27.0043 110.272 27.2986C110.272 27.4538 110.285 27.6037 110.312 27.7481C110.344 27.8873 110.395 28.0157 110.465 28.1334C110.578 28.326 110.733 28.4598 110.932 28.5347C111.135 28.6096 111.347 28.6471 111.567 28.6471C111.734 28.6471 111.897 28.6337 112.058 28.607C112.224 28.5749 112.374 28.5347 112.509 28.4866C112.68 28.4277 112.846 28.3474 113.007 28.2458C113.168 28.1388 113.316 28.0184 113.45 27.8846C113.6 27.7294 113.726 27.5608 113.828 27.3789C113.935 27.197 114.005 27.007 114.037 26.809H113.611C113.375 26.809 113.131 26.8117 112.879 26.817C112.627 26.817 112.436 26.8278 112.307 26.8492C112.307 26.8492 112.326 26.817 112.364 26.7528C112.401 26.6833 112.45 26.6057 112.509 26.5201C112.568 26.4291 112.629 26.3515 112.694 26.2873C112.763 26.2177 112.828 26.1829 112.887 26.1829H115.244C115.206 26.3863 115.139 26.5308 115.043 26.6164C114.946 26.702 114.826 26.7582 114.681 26.7849C114.654 26.8599 114.627 26.9348 114.6 27.0097C114.573 27.0793 114.547 27.1354 114.52 27.1782C114.219 27.7936 113.809 28.2511 113.289 28.5508C112.769 28.8504 112.163 29.0003 111.471 29.0003Z" fill="#16191E"/>
<path d="M115.552 28.6953C115.466 28.6953 115.402 28.6605 115.359 28.5909C115.321 28.5214 115.302 28.4304 115.302 28.318C115.302 28.1628 115.327 27.9809 115.375 27.7722C115.428 27.5635 115.493 27.3468 115.568 27.1221C115.648 26.8973 115.729 26.6833 115.809 26.4799C115.89 26.2712 115.959 26.0947 116.018 25.9502H115.576C115.533 25.9502 115.512 25.9341 115.512 25.902C115.512 25.8699 115.536 25.8271 115.584 25.7736C115.632 25.7147 115.689 25.6639 115.753 25.6211C115.817 25.5783 115.871 25.5569 115.914 25.5569H116.187C116.321 25.2412 116.448 24.9469 116.566 24.674C116.684 24.3957 116.831 24.1014 117.008 23.791C117.051 23.7161 117.091 23.6466 117.129 23.5823C117.166 23.5128 117.209 23.4512 117.257 23.3977C116.968 23.4352 116.67 23.4914 116.364 23.5663C116.064 23.6412 115.796 23.7375 115.56 23.8552C115.324 23.973 115.158 24.1121 115.061 24.2726C115.056 24.2887 115.045 24.2967 115.029 24.2967C115.018 24.2967 115.01 24.286 115.005 24.2646C114.994 24.2432 114.991 24.2191 114.997 24.1924C115.05 24.0532 115.117 23.9195 115.198 23.791C115.278 23.6626 115.356 23.5609 115.431 23.486C115.549 23.3629 115.71 23.2747 115.914 23.2211C116.118 23.1676 116.327 23.1329 116.541 23.1168C116.761 23.1007 116.949 23.0927 117.105 23.0927H118.697C118.885 23.0927 119.051 23.0874 119.196 23.0767C119.346 23.0606 119.473 23.0526 119.574 23.0526C119.741 23.0526 119.837 23.0927 119.864 23.173C119.869 23.1944 119.872 23.2158 119.872 23.2372C119.877 23.2533 119.88 23.2747 119.88 23.3014C119.88 23.4084 119.856 23.5315 119.808 23.6706C119.759 23.8044 119.706 23.9355 119.647 24.0639C119.593 24.187 119.55 24.2887 119.518 24.3689C119.513 24.3957 119.497 24.4144 119.47 24.4251C119.448 24.4358 119.427 24.4412 119.405 24.4412C119.379 24.4412 119.355 24.4358 119.333 24.4251C119.317 24.4144 119.312 24.3796 119.317 24.3208C119.328 24.2566 119.341 24.1843 119.357 24.1041C119.373 24.0238 119.381 23.9542 119.381 23.8954C119.381 23.7241 119.312 23.593 119.172 23.5021C119.038 23.4058 118.869 23.3576 118.665 23.3576C118.515 23.3576 118.392 23.371 118.295 23.3977C118.199 23.4191 118.121 23.4753 118.062 23.5663C117.847 23.882 117.652 24.2057 117.475 24.5375C117.303 24.8693 117.142 25.2091 116.992 25.5569H119.092C119.108 25.5569 119.097 25.589 119.06 25.6532C119.027 25.7174 118.984 25.7843 118.931 25.8539C118.883 25.9181 118.84 25.9502 118.802 25.9502H116.815C116.756 26.1 116.686 26.2819 116.606 26.496C116.525 26.71 116.45 26.9214 116.38 27.1301C116.316 27.3388 116.265 27.518 116.228 27.6679C116.195 27.7963 116.179 27.9113 116.179 28.013C116.179 28.1468 116.22 28.2485 116.3 28.318C116.386 28.3876 116.533 28.4224 116.743 28.4224C117.032 28.4224 117.322 28.4117 117.611 28.3903C117.901 28.3635 118.185 28.31 118.464 28.2297C118.706 28.1602 118.92 28.0665 119.108 27.9488C119.301 27.8311 119.44 27.6839 119.526 27.5073C119.537 27.4859 119.553 27.4752 119.574 27.4752C119.612 27.4752 119.631 27.5047 119.631 27.5635C119.631 27.5742 119.628 27.5876 119.623 27.6037C119.623 27.6197 119.62 27.6384 119.615 27.6598C119.572 27.799 119.521 27.922 119.462 28.0291C119.403 28.1361 119.341 28.2271 119.277 28.302C119.127 28.4839 118.933 28.5963 118.697 28.6391C118.462 28.6765 118.226 28.6953 117.99 28.6953H115.552Z" fill="#16191E"/>
<path d="M119.965 28.6953C120.083 28.3956 120.217 28.0638 120.367 27.7C120.523 27.3307 120.684 26.9535 120.85 26.5682C121.016 26.1829 121.18 25.8084 121.341 25.4445C121.507 25.0806 121.657 24.7489 121.791 24.4492C121.931 24.1442 122.046 23.8927 122.137 23.6947C122.228 23.4967 122.287 23.3737 122.314 23.3255C122.078 23.3201 121.837 23.3442 121.59 23.3977C121.343 23.4459 121.113 23.5155 120.898 23.6064C120.684 23.6974 120.501 23.8017 120.351 23.9195C120.206 24.0372 120.112 24.1603 120.07 24.2887C120.064 24.3047 120.053 24.3128 120.037 24.3128C119.994 24.3128 119.973 24.278 119.973 24.2084C119.973 24.1977 119.973 24.187 119.973 24.1763C119.978 24.1603 119.984 24.1442 119.989 24.1281C120.037 23.989 120.096 23.8659 120.166 23.7589C120.241 23.6519 120.314 23.5609 120.383 23.486C120.56 23.3041 120.759 23.1944 120.979 23.1569C121.199 23.1141 121.432 23.0927 121.679 23.0927H123.038C123.028 23.1141 123.006 23.1569 122.974 23.2211C122.942 23.2854 122.926 23.3924 122.926 23.5422C122.926 23.6974 122.955 23.9088 123.014 24.1763C123.078 24.4439 123.202 24.789 123.384 25.2117C123.454 25.3776 123.518 25.5328 123.577 25.6773C123.636 25.8164 123.687 25.9475 123.73 26.0706C123.811 26.2846 123.87 26.4559 123.907 26.5843C123.945 26.7074 123.969 26.8037 123.98 26.8732C123.996 26.9428 124.004 27.0043 124.004 27.0578C124.009 27.106 124.014 27.1595 124.02 27.2184C124.084 27.0578 124.173 26.8465 124.285 26.5843C124.398 26.3221 124.521 26.0331 124.655 25.7174C124.795 25.4017 124.937 25.0806 125.082 24.7542C125.227 24.4278 125.363 24.1201 125.492 23.8312C125.621 23.5422 125.728 23.2961 125.814 23.0927C125.83 23.066 125.886 23.0526 125.983 23.0526C126.079 23.0526 126.189 23.0606 126.313 23.0767C126.436 23.0927 126.519 23.1007 126.562 23.1007C126.412 23.2024 126.251 23.3977 126.079 23.6867C125.913 23.9756 125.731 24.3235 125.532 24.7301C125.366 25.0726 125.2 25.4338 125.033 25.8137C124.873 26.1883 124.725 26.5548 124.591 26.9134C124.462 27.2665 124.358 27.5876 124.277 27.8766C124.202 28.1655 124.165 28.3903 124.165 28.5508C124.165 28.5775 124.165 28.6043 124.165 28.6311C124.17 28.6525 124.175 28.6739 124.181 28.6953H123.674C123.668 28.5347 123.65 28.3849 123.618 28.2458C123.585 28.1067 123.534 27.9488 123.465 27.7722C123.395 27.5903 123.298 27.3655 123.175 27.098C123.057 26.8251 122.91 26.4799 122.733 26.0626C122.577 25.6987 122.462 25.3803 122.387 25.1074C122.317 24.8345 122.274 24.6017 122.258 24.4091C122.172 24.6017 122.07 24.8318 121.952 25.0994C121.84 25.3616 121.722 25.6398 121.598 25.9341C121.475 26.2284 121.357 26.5227 121.244 26.817C121.132 27.1114 121.03 27.3869 120.938 27.6438C120.853 27.9006 120.788 28.1227 120.745 28.31C120.702 28.4919 120.689 28.6204 120.705 28.6953H119.965Z" fill="#16191E"/>
<path d="M126.606 28.8879C126.155 28.813 125.825 28.6177 125.616 28.302C125.412 27.9863 125.31 27.6117 125.31 27.1782C125.31 26.8625 125.361 26.5334 125.463 26.191C125.565 25.8432 125.71 25.5034 125.898 25.1716C126.091 24.8398 126.321 24.5322 126.59 24.2485C126.858 23.9596 127.161 23.7134 127.499 23.5101C127.837 23.3068 128.204 23.165 128.601 23.0847C128.842 23.0365 129.073 23.0125 129.293 23.0125C129.722 23.0125 130.065 23.0981 130.322 23.2693C130.58 23.4352 130.709 23.6492 130.709 23.9114C130.709 23.9649 130.703 24.0185 130.693 24.072C130.687 24.1201 130.671 24.1736 130.644 24.2325C130.585 24.3877 130.486 24.5268 130.347 24.6499C130.213 24.7676 130.057 24.8586 129.88 24.9228C129.708 24.987 129.531 25.0137 129.349 25.003C129.263 24.9923 129.188 24.9629 129.124 24.9148C129.065 24.8612 129.035 24.797 129.035 24.7221C129.035 24.6472 129.067 24.5669 129.132 24.4813C129.191 24.5027 129.258 24.5134 129.333 24.5134C129.467 24.5134 129.598 24.4813 129.727 24.4171C129.856 24.3529 129.963 24.2646 130.049 24.1522C130.135 24.0399 130.178 23.9141 130.178 23.775C130.178 23.5877 130.113 23.4646 129.985 23.4058C129.856 23.3415 129.711 23.3094 129.55 23.3094C129.443 23.3094 129.336 23.3201 129.228 23.3415C129.126 23.3576 129.043 23.3737 128.979 23.3897C128.673 23.47 128.359 23.6171 128.038 23.8312C127.721 24.0399 127.432 24.2967 127.169 24.6017C126.906 24.9014 126.702 25.2305 126.557 25.589C126.45 25.8512 126.367 26.1161 126.308 26.3836C126.249 26.6512 126.219 26.9053 126.219 27.1461C126.219 27.4565 126.27 27.7294 126.372 27.9648C126.48 28.2003 126.649 28.3635 126.879 28.4545C127.088 28.5347 127.303 28.5749 127.523 28.5749C127.877 28.5749 128.233 28.4893 128.593 28.318C128.957 28.1468 129.293 27.9301 129.598 27.6679C129.786 27.502 129.955 27.3307 130.105 27.1542C130.255 26.9776 130.371 26.7903 130.451 26.5923C130.553 26.6565 130.604 26.7502 130.604 26.8732C130.604 26.9696 130.575 27.0739 130.516 27.1863C130.462 27.2986 130.398 27.403 130.322 27.4993C130.253 27.5956 130.191 27.6705 130.137 27.7241C129.762 28.1147 129.311 28.4143 128.786 28.623C128.266 28.8317 127.737 28.9361 127.201 28.9361C126.997 28.9361 126.799 28.92 126.606 28.8879Z" fill="#16191E"/>
<path d="M132.519 28.6953C132.562 28.5026 132.621 28.2939 132.696 28.0692C132.771 27.8391 132.851 27.601 132.937 27.3548C133.061 27.0338 133.122 26.7421 133.122 26.4799C133.122 26.4532 133.122 26.4264 133.122 26.3997C133.122 26.3676 133.12 26.3381 133.114 26.3114C133.082 26.0813 133.023 25.8244 132.937 25.5408C132.851 25.2572 132.758 24.979 132.656 24.7061C132.554 24.4385 132.438 24.2084 132.31 24.0158C132.181 23.8231 132.025 23.7268 131.843 23.7268C131.73 23.7268 131.604 23.775 131.465 23.8713C131.331 23.9676 131.178 24.1281 131.006 24.3529C131.001 24.3582 130.996 24.3609 130.99 24.3609C130.974 24.3609 130.963 24.3422 130.958 24.3047C130.953 24.2673 130.953 24.2405 130.958 24.2245C131.076 23.989 131.199 23.7857 131.328 23.6144C131.462 23.4432 131.62 23.3148 131.803 23.2292C131.991 23.1382 132.224 23.1007 132.503 23.1168C132.771 23.1275 132.969 23.2292 133.098 23.4218C133.227 23.6144 133.342 23.8766 133.444 24.2084C133.524 24.4867 133.608 24.7863 133.693 25.1074C133.779 25.4231 133.857 25.7174 133.927 25.9903C134.131 25.7121 134.348 25.407 134.578 25.0753C134.809 24.7435 135.037 24.4171 135.262 24.096C135.493 23.775 135.699 23.494 135.882 23.2533C135.941 23.1783 136.032 23.1329 136.155 23.1168C136.279 23.0954 136.407 23.0847 136.541 23.0847C136.627 23.0847 136.71 23.0874 136.791 23.0927C136.871 23.0927 136.941 23.0927 137 23.0927C136.764 23.2586 136.509 23.4673 136.236 23.7188C135.962 23.9703 135.691 24.2512 135.423 24.5616C135.187 24.8345 134.946 25.1582 134.699 25.5328C134.452 25.9074 134.23 26.3114 134.031 26.7448C133.833 27.1729 133.685 27.609 133.589 28.0531C133.567 28.1441 133.551 28.2297 133.541 28.31C133.53 28.3849 133.524 28.4518 133.524 28.5107C133.524 28.5963 133.535 28.6578 133.557 28.6953H132.519Z" fill="#16191E"/>
<path d="M3.64677 27.3574H0L23.7972 1.271H27.4373L3.64677 27.3574Z" fill="#EFB93F"/>
<path d="M16.4286 27.3574H8.12357L31.9141 1.271H40.2258L16.4286 27.3574Z" fill="#EFB93F"/>
<path d="M33.7885 17.5737H30.2016V21.1451H33.7885V17.5737Z" fill="#16191E"/>
<path d="M39.7444 17.5737H36.1576V21.1451H39.7444V17.5737Z" fill="#16191E"/>
<path d="M33.7885 23.1787H30.2016V26.7501H33.7885V23.1787Z" fill="#16191E"/>
<path d="M39.7444 23.1787H36.1576V26.7501H39.7444V23.1787Z" fill="#16191E"/>
</svg>
