<svg width="24" height="23" viewBox="0 0 24 23" fill="none" xmlns="http://www.w3.org/2000/svg">
<path d="M22.4689 10.8657V3.32599C22.4689 1.49201 20.9761 0 19.1413 0H4.76306C2.92819 0 1.43545 1.49205 1.43545 3.32599V10.963C0.546703 11.8917 0 13.15 0 14.5335V20.2506C0 21.3 0.854203 22.1538 1.9042 22.1538C2.95416 22.1538 3.80836 21.3 3.80836 20.2506V19.6601H20.1917V20.2506C20.1917 21.3 21.0459 22.1538 22.0958 22.1538C23.1458 22.1538 24 21.3001 24 20.2506V14.5335C24 13.101 23.4139 11.8028 22.4689 10.8657ZM4.76306 0.937043H19.1413C20.4592 0.937043 21.5314 2.00874 21.5314 3.32599V10.1283C21.2424 9.95039 20.9366 9.80144 20.6183 9.68363V8.12561C20.6183 6.74441 19.494 5.62071 18.1122 5.62071H14.0374C13.1985 5.62071 12.4552 6.03521 12 6.66964C11.5449 6.03521 10.8015 5.62071 9.96267 5.62071H5.88792C4.50605 5.62071 3.3818 6.74436 3.3818 8.12561V9.68363C3.02807 9.81456 2.68978 9.98388 2.373 10.1886V3.32599C2.37295 2.00874 3.44513 0.937043 4.76306 0.937043ZM5.17186 9.3642C4.88147 9.3642 4.59666 9.38865 4.3192 9.43485V8.12561C4.3192 7.2611 5.02289 6.55775 5.88783 6.55775H9.96258C10.8275 6.55775 11.5312 7.2611 11.5312 8.12561V9.36424H5.17186V9.3642ZM12.4688 8.12557C12.4688 7.26105 13.1724 6.55771 14.0374 6.55771H18.1121C18.9771 6.55771 19.6807 7.26105 19.6807 8.12557V9.4348C19.399 9.38782 19.1138 9.36419 18.8281 9.36415H12.4688V8.12557ZM5.17186 10.3012H18.8281C21.1629 10.3012 23.0625 12.1998 23.0625 14.5335V15.9235H18.3611C18.1022 15.9235 17.8923 16.1333 17.8923 16.392C17.8923 16.6507 18.1022 16.8605 18.3611 16.8605H23.0625V18.7231H0.9375V16.8605H13.6736C13.9325 16.8605 14.1423 16.6507 14.1423 16.392C14.1423 16.1333 13.9325 15.9235 13.6736 15.9235H0.9375V14.5335C0.9375 12.1998 2.83702 10.3012 5.17186 10.3012ZM2.87086 20.2506C2.87086 20.7833 2.43722 21.2168 1.9042 21.2168C1.37119 21.2168 0.9375 20.7833 0.9375 20.2506V19.6601H2.87086V20.2506ZM22.0958 21.2168C21.5628 21.2168 21.1291 20.7833 21.1291 20.2506V19.6601H23.0625V20.2506C23.0625 20.7833 22.6289 21.2168 22.0958 21.2168Z" fill="#5E5E5E"/>
<path d="M16.0178 16.8609C16.2768 16.8609 16.4868 16.651 16.4868 16.3921C16.4868 16.1332 16.2768 15.9233 16.0178 15.9233C15.7588 15.9233 15.5488 16.1332 15.5488 16.3921C15.5488 16.651 15.7588 16.8609 16.0178 16.8609Z" fill="#5E5E5E"/>
</svg>
