<svg width="24" height="24" viewBox="0 0 24 24" fill="none" xmlns="http://www.w3.org/2000/svg">
<path d="M22.2857 23.9999H1.71429C1.2598 23.9994 0.824077 23.8186 0.502704 23.4972C0.181331 23.1758 0.000544408 22.7401 0 22.2856V4.11419C0.000544408 3.6597 0.181331 3.22398 0.502704 2.90261C0.824077 2.58123 1.2598 2.40045 1.71429 2.3999H3.77143V3.08562H1.71429C1.44149 3.08562 1.17987 3.19398 0.986976 3.38688C0.794081 3.57977 0.685714 3.84139 0.685714 4.11419V22.2856C0.685714 22.5584 0.794081 22.82 0.986976 23.0129C1.17987 23.2058 1.44149 23.3142 1.71429 23.3142H22.2857C22.5585 23.3142 22.8201 23.2058 23.013 23.0129C23.2059 22.82 23.3143 22.5584 23.3143 22.2856V4.11419C23.3143 3.84139 23.2059 3.57977 23.013 3.38688C22.8201 3.19398 22.5585 3.08562 22.2857 3.08562H20.2286V2.3999H22.2857C22.7402 2.40045 23.1759 2.58123 23.4973 2.90261C23.8187 3.22398 23.9995 3.6597 24 4.11419V22.2856C23.9995 22.7401 23.8187 23.1758 23.4973 23.4972C23.1759 23.8186 22.7402 23.9994 22.2857 23.9999Z" fill="#5E5E5E"/>
<path d="M6.51367 2.3999H17.4851V3.08562H6.51367V2.3999Z" fill="#5E5E5E"/>
<path d="M19.5438 5.48571H18.1723C17.8995 5.48571 17.6379 5.37735 17.445 5.18445C17.2521 4.99156 17.1438 4.72994 17.1438 4.45714V1.02857C17.1438 0.755777 17.2521 0.494156 17.445 0.301262C17.6379 0.108367 17.8995 0 18.1723 0H19.5438C19.8165 0 20.0782 0.108367 20.2711 0.301262C20.464 0.494156 20.5723 0.755777 20.5723 1.02857V4.45714C20.5723 4.72994 20.464 4.99156 20.2711 5.18445C20.0782 5.37735 19.8165 5.48571 19.5438 5.48571ZM18.1723 0.685714C18.0814 0.685714 17.9942 0.721837 17.9299 0.786135C17.8656 0.850433 17.8295 0.93764 17.8295 1.02857V4.45714C17.8295 4.54807 17.8656 4.63528 17.9299 4.69958C17.9942 4.76388 18.0814 4.8 18.1723 4.8H19.5438C19.6347 4.8 19.7219 4.76388 19.7862 4.69958C19.8505 4.63528 19.8866 4.54807 19.8866 4.45714V1.02857C19.8866 0.93764 19.8505 0.850433 19.7862 0.786135C19.7219 0.721837 19.6347 0.685714 19.5438 0.685714H18.1723ZM5.82946 5.48571H4.45804C4.18524 5.48571 3.92362 5.37735 3.73073 5.18445C3.53783 4.99156 3.42946 4.72994 3.42946 4.45714V1.02857C3.42946 0.755777 3.53783 0.494156 3.73073 0.301262C3.92362 0.108367 4.18524 0 4.45804 0H5.82946C6.10226 0 6.36388 0.108367 6.55677 0.301262C6.74967 0.494156 6.85804 0.755777 6.85804 1.02857V4.45714C6.85804 4.72994 6.74967 4.99156 6.55677 5.18445C6.36388 5.37735 6.10226 5.48571 5.82946 5.48571ZM4.45804 0.685714C4.3671 0.685714 4.2799 0.721837 4.2156 0.786135C4.1513 0.850433 4.11518 0.93764 4.11518 1.02857V4.45714C4.11518 4.54807 4.1513 4.63528 4.2156 4.69958C4.2799 4.76388 4.3671 4.8 4.45804 4.8H5.82946C5.9204 4.8 6.0076 4.76388 6.0719 4.69958C6.1362 4.63528 6.17232 4.54807 6.17232 4.45714V1.02857C6.17232 0.93764 6.1362 0.850433 6.0719 0.786135C6.0076 0.721837 5.9204 0.685714 5.82946 0.685714H4.45804ZM0.34375 7.59943H23.658V8.28514H0.34375V7.59943ZM12.0009 21.6C10.8481 21.6 9.72122 21.2582 8.76271 20.6177C7.80421 19.9773 7.05715 19.067 6.616 18.0019C6.17484 16.9369 6.05942 15.765 6.28432 14.6343C6.50921 13.5037 7.06433 12.4651 7.87947 11.65C8.69461 10.8349 9.73316 10.2797 10.8638 10.0549C11.9944 9.82996 13.1664 9.94538 14.2314 10.3865C15.2964 10.8277 16.2067 11.5747 16.8472 12.5332C17.4876 13.4918 17.8295 14.6186 17.8295 15.7714C17.8277 17.3167 17.2131 18.7983 16.1204 19.8909C15.0277 20.9836 13.5462 21.5983 12.0009 21.6ZM12.0009 10.6286C10.9837 10.6286 9.98941 10.9302 9.14367 11.4953C8.29794 12.0604 7.63876 12.8636 7.24951 13.8033C6.86026 14.7431 6.75842 15.7771 6.95685 16.7747C7.15529 17.7724 7.6451 18.6887 8.36434 19.408C9.08359 20.1272 9.99996 20.617 10.9976 20.8155C11.9952 21.0139 13.0292 20.9121 13.969 20.5228C14.9087 20.1336 15.7119 19.4744 16.277 18.6286C16.8421 17.7829 17.1438 16.7886 17.1438 15.7714C17.1422 14.4079 16.5999 13.1007 15.6357 12.1366C14.6716 11.1724 13.3644 10.6301 12.0009 10.6286Z" fill="#5E5E5E"/>
<path d="M10.6277 18.5142C10.5367 18.5141 10.4496 18.478 10.3853 18.4137L8.32812 16.3566L8.81293 15.8718L10.6277 17.6865L15.1853 13.1289L15.6701 13.6137L10.8701 18.4137C10.8058 18.478 10.7186 18.5141 10.6277 18.5142Z" fill="#5E5E5E"/>
</svg>
