<svg width="24" height="24" viewBox="0 0 24 24" fill="none" xmlns="http://www.w3.org/2000/svg">
<mask id="mask0_683_5485" style="mask-type:alpha" maskUnits="userSpaceOnUse" x="0" y="0" width="24" height="24">
<rect width="24" height="24" fill="#D9D9D9"/>
</mask>
<g mask="url(#mask0_683_5485)">
<path d="M5.43828 13.5378C4.66761 13.4251 3.89164 13.3518 3.11342 13.3183C2.77218 13.2973 2.32238 13.4743 2.24448 14.3303C2.22995 14.5455 2.25083 14.7617 2.3063 14.9703C2.35799 15.1881 2.47452 15.3853 2.64067 15.5361C2.80681 15.687 3.01484 15.7844 3.23755 15.8158L6.56403 16.2818C6.58064 16.2845 6.59745 16.2858 6.61429 16.2858C6.67926 16.2858 6.74315 16.2692 6.79975 16.2374C6.85635 16.2057 6.90374 16.1599 6.93732 16.1046C6.97089 16.0492 6.98952 15.9862 6.99139 15.9216C6.99326 15.8569 6.97831 15.7929 6.94799 15.7358C5.8539 13.6653 5.57347 13.5793 5.43828 13.5378ZM3.34259 15.0733C3.26951 15.0622 3.20147 15.0295 3.14727 14.9795C3.09306 14.9295 3.05519 14.8644 3.03853 14.7928C3.00347 14.6643 2.98889 14.5312 2.99531 14.3983C2.99651 14.2844 3.02239 14.1722 3.0712 14.0693H3.08176C3.94114 14.1228 4.90757 14.2003 5.16941 14.2463C5.45237 14.623 5.70542 15.021 5.92627 15.4368L3.34259 15.0733ZM20.8876 13.3183C20.1094 13.3518 19.3334 13.4251 18.5628 13.5378C18.4276 13.5793 18.1466 13.6653 17.0511 15.7378C17.0207 15.7949 17.0058 15.8589 17.0077 15.9236C17.0095 15.9882 17.0282 16.0512 17.0617 16.1066C17.0953 16.1619 17.1427 16.2077 17.1993 16.2394C17.2559 16.2712 17.3198 16.2878 17.3848 16.2878C17.4016 16.2878 17.4184 16.2865 17.435 16.2838L20.7615 15.8178C20.9842 15.7864 21.1922 15.689 21.3584 15.5381C21.5245 15.3873 21.6411 15.1901 21.6927 14.9723C21.7481 14.7637 21.7689 14.5475 21.7546 14.3323C21.6782 13.4743 21.2259 13.2978 20.8876 13.3183ZM20.9625 14.7928C20.9459 14.8644 20.908 14.9295 20.8538 14.9795C20.7996 15.0295 20.7315 15.0622 20.6585 15.0733L18.0748 15.4353C18.2958 15.0197 18.5486 14.6217 18.8311 14.2448C19.0975 14.1983 20.0649 14.1208 20.9238 14.0678C20.9786 14.1693 21.0068 14.283 21.0057 14.3983C21.0122 14.5312 20.9976 14.6643 20.9625 14.7928ZM17.2184 13.8868C17.1804 13.8328 17.1289 13.7897 17.0689 13.7618C17.0089 13.7339 16.9426 13.7222 16.8767 13.7278C16.842 13.7308 13.3798 14.0278 12.0018 14.0278C10.6238 14.0278 7.16108 13.7278 7.1269 13.7278C7.0609 13.722 6.99454 13.7336 6.93452 13.7615C6.87449 13.7894 6.82293 13.8326 6.78505 13.8867C6.74716 13.9408 6.7243 14.0038 6.71876 14.0695C6.71322 14.1352 6.7252 14.2012 6.7535 14.2608L7.74606 16.3563C7.77509 16.4172 7.82001 16.4692 7.87615 16.5069C7.93228 16.5447 7.99757 16.5667 8.06519 16.5708L11.9998 16.7948L15.9404 16.5708C16.008 16.5668 16.0734 16.5448 16.1295 16.5071C16.1857 16.4693 16.2306 16.4172 16.2595 16.3563L17.2521 14.2608C17.2802 14.201 17.2918 14.1349 17.2859 14.0693C17.28 14.0036 17.2567 13.9406 17.2184 13.8868ZM15.6715 15.8368L12.0008 16.0478L8.33205 15.8368L7.7134 14.5308C8.79843 14.6188 10.9494 14.7808 12.0023 14.7808C13.0552 14.7808 15.2066 14.6188 16.2922 14.5308L15.6715 15.8368ZM14.1673 2.49477L14.7232 2.70177C14.9049 2.76936 15.07 2.87495 15.2072 3.0114C15.3444 3.14785 15.4507 3.312 15.5187 3.49277L15.7268 4.04777C15.7539 4.11872 15.8021 4.17979 15.865 4.22288C15.9278 4.26597 16.0023 4.28904 16.0786 4.28904C16.1549 4.28904 16.2294 4.26597 16.2922 4.22288C16.3551 4.17979 16.4032 4.11872 16.4304 4.04777L16.6385 3.49477C16.7066 3.31413 16.8128 3.15009 16.9499 3.01366C17.0871 2.87723 17.2519 2.77157 17.4335 2.70377L17.9893 2.49677C18.0607 2.46976 18.122 2.42183 18.1654 2.35932C18.2087 2.29681 18.2319 2.22269 18.2319 2.14677C18.2319 2.07085 18.2087 1.99673 18.1654 1.93422C18.122 1.87171 18.0607 1.82378 17.9893 1.79677L17.4335 1.58977C17.2518 1.52206 17.0868 1.41637 16.9497 1.27983C16.8125 1.1433 16.7064 0.979082 16.6385 0.79827L16.4324 0.24127C16.4053 0.170318 16.3571 0.10925 16.2942 0.0661618C16.2314 0.0230735 16.1569 0 16.0806 0C16.0043 0 15.9298 0.0230735 15.867 0.0661618C15.8041 0.10925 15.756 0.170318 15.7288 0.24127L15.5187 0.79427C15.4508 0.975082 15.3447 1.1393 15.2075 1.27583C15.0704 1.41237 14.9054 1.51806 14.7237 1.58577L14.1678 1.79277C14.0965 1.81978 14.0351 1.86771 13.9918 1.93022C13.9485 1.99273 13.9253 2.06685 13.9253 2.14277C13.9253 2.21869 13.9485 2.29281 13.9918 2.35532C14.0351 2.41783 14.0965 2.46576 14.1678 2.49277L14.1673 2.49477ZM16.0796 1.36427C16.266 1.68894 16.5364 1.95807 16.8626 2.14377C16.5363 2.32933 16.2659 2.5985 16.0796 2.92327C15.8929 2.59866 15.6224 2.32955 15.2961 2.14377C15.6224 1.95799 15.8929 1.68888 16.0796 1.36427ZM18.405 4.82227L18.8261 4.97927C18.9516 5.02614 19.0656 5.09921 19.1603 5.19356C19.2551 5.28791 19.3284 5.40136 19.3754 5.52627L19.5332 5.94527C19.5601 6.01683 19.6083 6.07851 19.6714 6.12206C19.7345 6.1656 19.8095 6.18894 19.8863 6.18894C19.9631 6.18894 20.038 6.1656 20.1011 6.12206C20.1642 6.07851 20.2124 6.01683 20.2393 5.94527L20.3966 5.52627C20.4437 5.40133 20.5171 5.28786 20.612 5.19351C20.7068 5.09916 20.8209 5.02611 20.9464 4.97927L21.3676 4.82227C21.4387 4.79506 21.4998 4.74705 21.543 4.68457C21.5861 4.62209 21.6092 4.54807 21.6092 4.47227C21.6092 4.39647 21.5861 4.32246 21.543 4.25997C21.4998 4.19749 21.4387 4.14948 21.3676 4.12227L20.9464 3.96327C20.8209 3.91676 20.707 3.84393 20.6123 3.74972C20.5176 3.65551 20.4444 3.54213 20.3976 3.41727L20.2393 2.99777C20.2124 2.92621 20.1642 2.86453 20.1011 2.82098C20.038 2.77744 19.9631 2.7541 19.8863 2.7541C19.8095 2.7541 19.7345 2.77744 19.6714 2.82098C19.6083 2.86453 19.5601 2.92621 19.5332 2.99777L19.3754 3.41727C19.3284 3.54212 19.2551 3.6555 19.1603 3.74977C19.0656 3.84404 18.9516 3.91701 18.8261 3.96377L18.4045 4.12077C18.3331 4.14778 18.2718 4.19571 18.2285 4.25822C18.1852 4.32073 18.162 4.39485 18.162 4.47077C18.162 4.54669 18.1852 4.62081 18.2285 4.68332C18.2718 4.74583 18.3331 4.79376 18.4045 4.82077L18.405 4.82227ZM19.886 4.04777C20.0007 4.21238 20.1442 4.35515 20.3097 4.46927C20.1446 4.58361 20.0011 4.72615 19.886 4.89027C19.7712 4.72605 19.6279 4.58349 19.4629 4.46927C19.6282 4.35514 19.7715 4.21237 19.886 4.04777ZM20.7595 2.49477L21.1806 2.65177C21.3061 2.69847 21.42 2.77137 21.5148 2.86555C21.6095 2.95973 21.6829 3.07301 21.7299 3.19777L21.8877 3.61677C21.9146 3.68833 21.9629 3.75001 22.026 3.79356C22.089 3.8371 22.164 3.86044 22.2408 3.86044C22.3176 3.86044 22.3925 3.8371 22.4556 3.79356C22.5187 3.75001 22.567 3.68833 22.5938 3.61677L22.7517 3.19777C22.7985 3.07294 22.8718 2.95956 22.9665 2.86529C23.0611 2.77101 23.175 2.69803 23.3005 2.65127L23.7221 2.49427C23.7934 2.46726 23.8548 2.41933 23.8981 2.35682C23.9414 2.29431 23.9646 2.22019 23.9646 2.14427C23.9646 2.06835 23.9414 1.99423 23.8981 1.93172C23.8548 1.86921 23.7934 1.82128 23.7221 1.79427L23.301 1.63677C23.1756 1.59009 23.0617 1.5172 22.967 1.42301C22.8723 1.32882 22.7991 1.21553 22.7522 1.09077L22.5943 0.67127C22.5675 0.59971 22.5192 0.53803 22.4561 0.494484C22.393 0.450938 22.3181 0.427603 22.2413 0.427603C22.1645 0.427603 22.0896 0.450938 22.0265 0.494484C21.9634 0.53803 21.9151 0.59971 21.8882 0.67127L21.7304 1.09077C21.6834 1.21556 21.6101 1.32887 21.5153 1.42306C21.4206 1.51725 21.3066 1.59012 21.1811 1.63677L20.7595 1.79427C20.6882 1.82128 20.6268 1.86921 20.5835 1.93172C20.5402 1.99423 20.517 2.06835 20.517 2.14427C20.517 2.22019 20.5402 2.29431 20.5835 2.35682C20.6268 2.41933 20.6882 2.46776 20.7595 2.49477ZM22.2405 1.72277C22.3556 1.88678 22.4989 2.02929 22.6637 2.14377C22.4989 2.25825 22.3556 2.40076 22.2405 2.56477C22.1257 2.40055 21.9824 2.25799 21.8174 2.14377C21.9823 2.02942 22.1256 1.88688 22.2405 1.72277ZM22.9622 21.1833C22.8623 21.1833 22.7664 21.2228 22.6957 21.2931C22.625 21.3634 22.5853 21.4588 22.5853 21.5583V23.1153C22.5853 23.1504 22.5713 23.1841 22.5463 23.209C22.5213 23.2338 22.4874 23.2478 22.4521 23.2478H20.4941C20.4588 23.2478 20.4249 23.2338 20.4 23.209C20.375 23.1841 20.361 23.1504 20.361 23.1153V22.4733C20.361 22.3738 20.3212 22.2784 20.2506 22.2081C20.1799 22.1378 20.084 22.0983 19.984 22.0983C19.8841 22.0983 19.7882 22.1378 19.7175 22.2081C19.6468 22.2784 19.6071 22.3738 19.6071 22.4733V23.1153C19.6074 23.3492 19.7009 23.5736 19.8672 23.739C20.0335 23.9044 20.259 23.9975 20.4941 23.9978H22.4541C22.6893 23.9975 22.9148 23.9044 23.0811 23.739C23.2474 23.5736 23.3409 23.3492 23.3412 23.1153V21.5583C23.3412 21.5089 23.3313 21.4599 23.3123 21.4143C23.2932 21.3687 23.2653 21.3272 23.2301 21.2924C23.1948 21.2576 23.153 21.23 23.1071 21.2112C23.0611 21.1925 23.0119 21.183 22.9622 21.1833ZM3.9909 22.0978C3.89093 22.0978 3.79506 22.1373 3.72437 22.2076C3.65368 22.2779 3.61397 22.3733 3.61397 22.4728V23.1148C3.61397 23.1498 3.60001 23.1835 3.57514 23.2083C3.55027 23.2331 3.51653 23.2471 3.48129 23.2473H1.52129C1.48606 23.2471 1.45231 23.2331 1.42744 23.2083C1.40258 23.1835 1.38861 23.1498 1.38861 23.1148V21.5583C1.38861 21.4588 1.3489 21.3634 1.27821 21.2931C1.20753 21.2228 1.11166 21.1833 1.01169 21.1833C0.911723 21.1833 0.815851 21.2228 0.745164 21.2931C0.674477 21.3634 0.634766 21.4588 0.634766 21.5583V23.1153C0.634898 23.349 0.728188 23.5732 0.894183 23.7386C1.06018 23.904 1.28533 23.9972 1.52029 23.9978H3.48029C3.71542 23.9975 3.94083 23.9044 4.10704 23.739C4.27325 23.5735 4.36668 23.3492 4.36681 23.1153V22.4733C4.36695 22.3739 4.32743 22.2785 4.25695 22.2081C4.18647 22.1377 4.09078 22.098 3.9909 22.0978Z" fill="#5E5E5E"/>
<path d="M23.2723 9.42543L22.0159 9.20943C21.8323 9.17573 21.6427 9.20526 21.4782 9.29315C21.3138 9.38104 21.1844 9.52205 21.1113 9.69293L21.0434 9.84293L20.1529 7.75293C19.9515 7.27372 19.6303 6.85376 19.2196 6.53307C18.8089 6.21238 18.3226 6.00165 17.8069 5.92093C15.8853 5.6307 13.9439 5.48927 12.0003 5.49793C10.0566 5.48944 8.11523 5.63103 6.19361 5.92143C5.67796 6.0021 5.19164 6.21276 4.78099 6.53336C4.37034 6.85396 4.04902 7.27381 3.84764 7.75293L2.95408 9.84493L2.89075 9.69793C2.81822 9.52632 2.68912 9.38438 2.52469 9.2955C2.36027 9.20662 2.17033 9.17609 1.98614 9.20893L0.729725 9.42543C0.52583 9.45907 0.34056 9.56363 0.206921 9.72049C0.0732821 9.87735 -4.61658e-05 10.0763 2.1806e-08 10.2819V10.5274C0.000188247 10.7254 0.0680586 10.9174 0.192455 11.0718C0.316852 11.2263 0.490372 11.3341 0.684494 11.3774L1.87758 11.6454L1.34888 12.4479C0.890777 13.1413 0.647034 13.9531 0.647806 14.7829V19.0479C0.647806 20.6574 1.77456 21.6979 3.51946 21.6979H20.481C22.2259 21.6979 23.3527 20.6579 23.3527 19.0479V14.7809C23.3535 13.9511 23.1097 13.1393 22.6516 12.4459L22.1229 11.6459L23.312 11.3789C23.5067 11.3361 23.6809 11.2286 23.8059 11.0741C23.931 10.9196 23.9994 10.7273 24 10.5289V10.2834C24.0006 10.0778 23.9277 9.87868 23.7945 9.72153C23.6612 9.56438 23.4761 9.45944 23.2723 9.42543ZM0.846822 10.6434C0.820368 10.6375 0.796735 10.6228 0.77983 10.6017C0.762925 10.5806 0.753759 10.5544 0.753848 10.5274V10.2819C0.753439 10.2536 0.763418 10.2261 0.781919 10.2046C0.800419 10.183 0.826173 10.1689 0.854361 10.1649L2.1163 9.94793C2.134 9.94476 2.15226 9.94808 2.16769 9.95727C2.18312 9.96647 2.19468 9.98091 2.20023 9.99793L2.5083 10.6909L2.32034 10.9759L0.846822 10.6434ZM22.5988 17.8829H2.35703C2.25706 17.8829 2.16119 17.9224 2.09051 17.9928C2.01982 18.0631 1.98011 18.1585 1.98011 18.2579C1.98011 18.3574 2.01982 18.4528 2.09051 18.5231C2.16119 18.5934 2.25706 18.6329 2.35703 18.6329H22.5988V19.0479C22.5988 20.2369 21.8073 20.9479 20.481 20.9479H3.51946C2.19319 20.9479 1.40165 20.2374 1.40165 19.0479V14.7809C1.40113 14.0973 1.60187 13.4284 1.9791 12.8569L3.16717 11.0539H19.6116C19.7116 11.0539 19.8074 11.0144 19.8781 10.9441C19.9488 10.8738 19.9885 10.7784 19.9885 10.6789C19.9885 10.5795 19.9488 10.4841 19.8781 10.4138C19.8074 10.3434 19.7116 10.3039 19.6116 10.3039H3.57877L4.54168 8.04793C4.69323 7.68597 4.93551 7.3687 5.24538 7.12641C5.55526 6.88411 5.92239 6.72489 6.31172 6.66393C8.19417 6.37865 10.0961 6.23957 12.0003 6.24793C13.9044 6.23907 15.8063 6.37766 17.6888 6.66243C18.0783 6.72353 18.4455 6.88298 18.7554 7.12555C19.0653 7.36811 19.3075 7.68569 19.4588 8.04793L20.5604 10.6314C20.569 10.6521 20.5796 10.6719 20.5921 10.6904L22.0214 12.8589C22.3986 13.4304 22.5994 14.0993 22.5988 14.7829V17.8829ZM23.2461 10.5274C23.2461 10.5549 23.2366 10.5816 23.2191 10.6029C23.2016 10.6242 23.1773 10.6389 23.1502 10.6444L21.6817 10.9744L21.4937 10.6894L21.8038 9.98943C21.8108 9.97427 21.8226 9.96184 21.8374 9.95406C21.8522 9.94628 21.8692 9.9436 21.8857 9.94643L23.1451 10.1634C23.1733 10.1674 23.1991 10.1815 23.2176 10.2031C23.2361 10.2246 23.2461 10.2521 23.2456 10.2804L23.2461 10.5274Z" fill="#5E5E5E"/>
</g>
</svg>
