<svg width="24" height="24" viewBox="0 0 24 24" fill="none" xmlns="http://www.w3.org/2000/svg">
<mask id="mask0_683_5451" style="mask-type:alpha" maskUnits="userSpaceOnUse" x="0" y="0" width="24" height="24">
<rect width="24" height="24" fill="#D9D9D9"/>
</mask>
<g mask="url(#mask0_683_5451)">
<path d="M22.7985 20.7418C22.7991 20.7243 22.7994 20.7069 22.7994 20.6897C22.7989 20.2508 22.6302 19.8301 22.3303 19.5198C22.0303 19.2095 21.6237 19.035 21.1995 19.0345V11.3793L22.6394 10.2621C22.6894 10.2233 22.7299 10.1729 22.7577 10.1149C22.7855 10.057 22.7998 9.99314 22.7994 9.92847C22.799 9.8638 22.7839 9.80012 22.7555 9.74255C22.727 9.68497 22.6859 9.63511 22.6354 9.59695L19.1996 6.99941V2.48276C19.3057 2.48276 19.4074 2.43916 19.4824 2.36156C19.5574 2.28396 19.5996 2.17871 19.5996 2.06897V0.413793C19.5996 0.304048 19.5574 0.198798 19.4824 0.121197C19.4074 0.0435959 19.3057 0 19.1996 0H15.1998C15.0937 0 14.992 0.0435959 14.917 0.121197C14.842 0.198798 14.7998 0.304048 14.7998 0.413793V2.06897C14.7998 2.17871 14.842 2.28396 14.917 2.36156C14.992 2.43916 15.0937 2.48276 15.1998 2.48276V3.97557L12.236 1.73488C12.1675 1.68309 12.0848 1.65518 12 1.65518C11.9152 1.65518 11.8325 1.68309 11.764 1.73488L1.36461 9.59695C1.31413 9.63511 1.27301 9.68497 1.24453 9.74255C1.21605 9.80012 1.20102 9.8638 1.20063 9.92847C1.20024 9.99314 1.21451 10.057 1.24229 10.1149C1.27007 10.1729 1.3106 10.2233 1.36061 10.2621L2.80052 11.3793V19.0345C2.37635 19.035 1.96968 19.2095 1.66974 19.5198C1.36981 19.8301 1.20109 20.2508 1.20061 20.6897C1.20061 20.7069 1.20091 20.7243 1.20151 20.7418C0.824181 20.8422 0.495215 21.0815 0.276339 21.415C0.0574626 21.7484 -0.0362813 22.153 0.0126958 22.5529C0.0616729 22.9528 0.250005 23.3204 0.542356 23.5868C0.834708 23.8533 1.21099 24.0002 1.60059 24H22.3994C22.789 24.0002 23.1653 23.8533 23.4576 23.5868C23.75 23.3204 23.9383 22.9528 23.9873 22.5529C24.0363 22.153 23.9425 21.7484 23.7237 21.415C23.5048 21.0815 23.1758 20.8422 22.7985 20.7418ZM15.5998 0.827586H18.7996V1.65517H15.5998V0.827586ZM15.9998 4.55172V2.48276H18.3996V6.39466L15.9619 4.55172H15.9998ZM12 2.58145L21.7272 9.93538L20.7958 10.658L12.2353 4.21707C12.1669 4.16562 12.0845 4.1379 12 4.1379C11.9155 4.1379 11.8331 4.16562 11.7647 4.21707L3.20415 10.658L2.2728 9.93538L12 2.58145ZM0.800637 22.3448C0.800859 22.1276 0.88357 21.9191 1.03095 21.7643C1.17834 21.6095 1.3786 21.5208 1.58859 21.5172H1.58954C1.60999 21.5202 1.63044 21.5227 1.65129 21.5241C1.71757 21.5284 1.78385 21.5156 1.84415 21.4868C1.90445 21.458 1.95686 21.4142 1.99667 21.3591C2.03647 21.3041 2.06241 21.2398 2.07214 21.1718C2.08187 21.1038 2.0751 21.0344 2.05242 20.9698C2.01932 20.8803 2.00176 20.7855 2.00057 20.6897C2.00082 20.4702 2.08518 20.2599 2.23515 20.1048C2.38511 19.9496 2.58844 19.8623 2.80052 19.8621V23.1724H1.60059C1.38851 23.1722 1.18518 23.0849 1.03522 22.9297C0.88525 22.7746 0.800889 22.5642 0.800637 22.3448ZM17.9997 23.1724H13.1999V14.069H17.9997V23.1724ZM18.7996 23.1724V13.6552C18.7996 13.5454 18.7575 13.4402 18.6825 13.3626C18.6075 13.285 18.5057 13.2414 18.3996 13.2414H12.8C12.6939 13.2414 12.5921 13.285 12.5171 13.3626C12.4421 13.4402 12.4 13.5454 12.4 13.6552V23.1724H3.60048V11.3831L12 5.06338L20.3995 11.3831V23.1724H18.7996ZM22.3994 23.1724H21.1995V19.8621C21.4116 19.8623 21.6149 19.9496 21.7649 20.1048C21.9148 20.2599 21.9992 20.4702 21.9994 20.6897C21.9983 20.7856 21.9807 20.8805 21.9476 20.9701C21.9249 21.0346 21.9181 21.104 21.9279 21.172C21.9376 21.24 21.9635 21.3044 22.0033 21.3594C22.0431 21.4144 22.0956 21.4582 22.1559 21.487C22.2161 21.5158 22.2824 21.5287 22.3487 21.5243C22.3696 21.5229 22.39 21.5204 22.4105 21.5174H22.4114C22.6236 21.5191 22.8264 21.6079 22.9753 21.7642C23.1242 21.9206 23.207 22.1318 23.2054 22.3512C23.2038 22.5707 23.118 22.7806 22.9668 22.9346C22.8157 23.0887 22.6116 23.1743 22.3994 23.1726V23.1724Z" fill="#5E5E5E"/>
<path d="M10.4009 13.2422H5.60115C5.49507 13.2422 5.39333 13.2858 5.31832 13.3634C5.24331 13.441 5.20117 13.5462 5.20117 13.656V19.4491C5.20117 19.5588 5.24331 19.6641 5.31832 19.7417C5.39333 19.8193 5.49507 19.8629 5.60115 19.8629H10.4009C10.507 19.8629 10.6087 19.8193 10.6837 19.7417C10.7587 19.6641 10.8009 19.5588 10.8009 19.4491V13.656C10.8009 13.5462 10.7587 13.441 10.6837 13.3634C10.6087 13.2858 10.507 13.2422 10.4009 13.2422ZM10.0009 16.1387H8.40099V14.0698H10.0009V16.1387ZM7.60103 14.0698V16.1387H6.00113V14.0698H7.60103ZM6.00113 16.9663H7.60103V19.0353H6.00113V16.9663ZM8.40099 19.0353V16.9663H10.0009V19.0353H8.40099Z" fill="#5E5E5E"/>
<path d="M14.7691 18.3656C14.8536 18.1544 14.7567 17.9124 14.5526 17.8249C14.3485 17.7375 14.1146 17.8377 14.03 18.0489C13.9455 18.26 14.0424 18.502 14.2465 18.5895C14.4506 18.677 14.6845 18.5767 14.7691 18.3656Z" fill="#5E5E5E"/>
</g>
</svg>
